<svg width="1967" height="1627" viewBox="0 0 1967 1627" fill="none" xmlns="http://www.w3.org/2000/svg">
<path d="M537 381C573.147 392.64 607.19 411.592 637 435C637.895 435.694 638.789 436.387 639.711 437.102C642.169 439.035 644.587 441.01 647 443C647.937 443.752 648.874 444.503 649.84 445.277C658.312 452.205 666.064 459.849 673.812 467.562C674.616 468.358 674.616 468.358 675.436 469.17C682.431 476.112 688.87 483.268 695 491C695.952 492.139 696.909 493.275 697.871 494.406C712.274 511.626 724.714 531.075 735 551C735.336 551.638 735.672 552.276 736.019 552.934C738.458 557.571 740.768 562.26 743 567C743.572 568.214 743.572 568.214 744.155 569.453C759.857 603.216 769.468 639.073 774 676C774.117 676.954 774.234 677.908 774.355 678.891C783.01 753.471 766.019 828.575 730 894C726.832 891.426 726.141 888.824 725.09 884.945C724.745 883.706 724.401 882.466 724.046 881.189C723.866 880.528 723.686 879.867 723.501 879.186C722.534 875.649 721.524 872.125 720.512 868.602C720.304 867.879 720.097 867.156 719.883 866.412C707.891 824.99 689.841 785.119 668 748C667.498 747.136 666.995 746.272 666.478 745.381C652.18 720.801 635.879 697.289 617 676C615.812 674.625 614.624 673.25 613.438 671.875C602.33 659.269 590.904 646.8 578 636C576.968 635.128 575.937 634.256 574.906 633.383C574.35 632.912 573.794 632.442 573.22 631.957C572.079 630.99 570.937 630.022 569.797 629.053C567.394 627.013 564.988 624.99 562.527 623.02C557.059 618.553 553.466 614.478 552.713 607.242C552.535 597.185 554.32 587.895 556.36 578.088C562.085 550.455 566.741 522.634 571.438 494.812C571.793 492.707 572.149 490.601 572.505 488.495C574.494 476.713 574.494 476.713 576.476 464.929C578.266 454.277 580.104 443.634 582 433C574.7 438.624 567.964 444.663 561.25 450.965C558.246 453.783 555.173 456.505 552.055 459.195C549.331 461.588 546.667 464.044 544 466.5C540.041 470.144 536.048 473.739 531.984 477.266C527.946 480.795 523.98 484.406 520 488C510.508 496.572 510.508 496.572 506.125 500.375C502.697 503.359 499.344 506.422 496 509.5C492.041 513.144 488.048 516.739 483.984 520.266C479.946 523.795 475.981 527.406 472 531C469.503 533.248 467.005 535.495 464.508 537.742C462.814 539.267 461.121 540.793 459.43 542.32C455.684 545.699 451.935 549.069 448.125 552.375C444.697 555.359 441.344 558.422 438 561.5C434.041 565.144 430.048 568.739 425.984 572.266C421.946 575.795 417.981 579.406 414 583C411.503 585.248 409.005 587.495 406.508 589.742C404.814 591.267 403.121 592.793 401.43 594.32C397.684 597.699 393.935 601.069 390.125 604.375C386.697 607.359 383.344 610.422 380 613.5C376.041 617.144 372.048 620.739 367.984 624.266C363.946 627.795 359.98 631.406 356 635C346.508 643.572 346.508 643.572 342.125 647.375C338.697 650.359 335.344 653.422 332 656.5C328.041 660.144 324.048 663.739 319.984 667.266C315.946 670.795 311.981 674.406 308 678C305.503 680.248 303.005 682.495 300.508 684.742C298.814 686.267 297.121 687.793 295.43 689.32C291.684 692.699 287.935 696.069 284.125 699.375C280.697 702.359 277.344 705.422 274 708.5C270.041 712.144 266.048 715.739 261.984 719.266C257.946 722.795 253.981 726.406 250 730C247.503 732.248 245.005 734.495 242.508 736.742C240.814 738.267 239.121 739.793 237.43 741.32C233.684 744.699 229.935 748.069 226.125 751.375C222.697 754.359 219.344 757.422 216 760.5C212.041 764.144 208.048 767.739 203.984 771.266C199.946 774.795 195.981 778.406 192 782C189.503 784.248 187.005 786.495 184.508 788.742C182.814 790.267 181.121 791.793 179.43 793.32C175.663 796.719 171.891 800.108 168.063 803.438C163.866 807.092 159.763 810.847 155.652 814.598C153.475 816.569 151.282 818.514 149.063 820.438C145.653 823.399 142.322 826.442 139 829.5C135.05 833.136 131.066 836.723 127.012 840.242C119.341 846.944 119.341 846.944 112 854C122.483 858.529 133.167 862.48 143.875 866.438C146.733 867.495 149.591 868.552 152.449 869.61C154.396 870.33 156.344 871.05 158.292 871.77C163.956 873.864 169.611 875.98 175.258 878.118C178.706 879.423 182.158 880.719 185.61 882.014C187.228 882.623 188.845 883.237 190.46 883.855C192.71 884.715 194.965 885.56 197.223 886.402C197.866 886.653 198.509 886.903 199.171 887.161C207.853 890.355 215.399 890.5 224.16 887.676C225.044 887.407 225.928 887.139 226.838 886.862C229.898 885.927 232.949 884.964 236 884C238.403 883.256 240.807 882.513 243.21 881.771C250.601 879.484 257.982 877.165 265.361 874.841C281.781 869.67 298.201 864.501 314.68 859.524C316.608 858.941 318.536 858.356 320.463 857.77C321.629 857.419 322.795 857.069 323.996 856.708C325.524 856.248 325.524 856.248 327.082 855.778C330.064 854.983 332.93 854.333 336 854C338.346 855.479 338.346 855.479 340 858C340.486 861.35 340.486 861.35 340.461 865.344C340.461 866.06 340.461 866.777 340.461 867.516C340.454 869.844 340.417 872.171 340.375 874.5C340.357 876.113 340.34 877.726 340.323 879.339C339.916 909.671 334.377 939.164 325 968C324.666 969.039 324.333 970.079 323.989 971.149C317.102 992.409 308.148 1012.53 298.562 1032.69C298.066 1033.73 297.57 1034.78 297.059 1035.86C294.663 1040.83 292.23 1045.52 289 1050C252.212 1038.57 218.315 1015.5 189 991C187.989 990.176 186.979 989.353 185.938 988.504C178.304 982.203 171.206 975.415 164.188 968.438C162.881 967.144 162.881 967.144 161.547 965.825C156.353 960.606 151.572 955.194 146.968 949.449C145.418 947.52 143.846 945.638 142.207 943.785C83.2947 876.8 57.1825 782.619 62.2271 694.745C65.7175 640.724 81.9578 589.302 108 542C111.196 542.635 113.5 543.759 116.254 545.484C117.094 546.001 117.935 546.518 118.801 547.05C119.712 547.611 120.624 548.172 121.563 548.75C185.332 587.105 257.521 597.675 329.608 579.871C373.457 568.611 415.127 549.06 450 520C450.536 519.554 451.072 519.108 451.625 518.648C490.664 486.058 515.783 443.783 532 396C532.288 395.154 532.576 394.308 532.873 393.436C534.277 389.3 535.655 385.156 537 381Z" fill="white"/>
<path d="M525 530C526.98 530.99 526.98 530.99 529 532C525.814 551.545 522.408 571.04 518.811 590.513C517.984 594.989 517.162 599.465 516.341 603.942C514.01 616.642 511.673 629.342 509.331 642.04C508.026 649.115 506.725 656.191 505.428 663.269C504.612 667.722 503.791 672.174 502.966 676.625C502.34 680.011 501.722 683.399 501.102 686.786C500.758 688.632 500.758 688.632 500.407 690.515C500.104 692.181 500.104 692.181 499.795 693.881C499.616 694.851 499.438 695.821 499.253 696.821C499.17 697.54 499.086 698.259 499 699C499.33 699.33 499.66 699.66 500 700C503.835 692.347 507.664 684.691 511.454 677.015C513.009 673.868 514.569 670.722 516.129 667.577C516.929 665.962 517.727 664.345 518.523 662.728C519.693 660.351 520.871 657.978 522.051 655.605C522.581 654.523 522.58 654.523 523.121 653.418C524.753 650.153 526.164 647.335 529 645C532.93 644.764 534.903 645.183 538.07 647.543C539.556 648.877 541.017 650.241 542.454 651.628C544.857 653.867 547.331 655.887 549.914 657.914C556.445 663.224 562.371 669.069 568.298 675.038C570.122 676.872 571.957 678.696 573.793 680.52C579.874 686.594 585.634 692.742 590.98 699.486C592.951 701.939 595.005 704.277 597.117 706.609C601.038 710.978 604.619 715.544 608.125 720.25C608.764 721.106 609.403 721.961 610.061 722.843C620.533 737 630.239 751.723 639 767C639.38 767.659 639.761 768.319 640.153 768.998C666.476 814.825 684.266 863.841 697 915C697.286 916.146 697.286 916.146 697.578 917.315C698.152 919.629 698.717 921.945 699.277 924.262C699.451 924.964 699.625 925.667 699.804 926.391C700.657 929.978 701.405 933.314 701 937C699.38 939.288 697.809 941.255 695.938 943.312C695.432 943.887 694.927 944.462 694.407 945.054C693.4 946.197 692.389 947.336 691.372 948.47C689.682 950.355 688.029 952.271 686.375 954.188C685.252 955.46 684.126 956.73 683 958C682.339 958.754 681.677 959.508 680.996 960.285C672.581 969.784 663.704 978.814 654 987C653.105 987.784 652.211 988.567 651.289 989.375C580.474 1051.05 485.783 1080.68 392.5 1074.38C369.168 1072.53 345.511 1068.39 323 1062C324.496 1057.91 326.439 1054.13 328.426 1050.27C358.275 992.08 376.105 930.258 374.978 864.605C374.967 863.789 374.956 862.973 374.944 862.132C374.922 860.595 374.891 859.057 374.85 857.52C374.797 853.763 374.856 852.216 377 849C381.87 849.487 384.629 850.791 388.5 853.75C389.397 854.425 390.294 855.101 391.219 855.797C392.137 856.524 393.054 857.251 394 858C395.003 858.785 396.006 859.57 397.039 860.379C404.826 867.272 410.114 876.488 414.375 885.875C414.684 886.544 414.993 887.214 415.312 887.903C420.665 900.344 422.724 913.978 424.5 927.312C424.653 928.427 424.653 928.427 424.809 929.564C427.553 949.636 429.279 969.82 431 990C432.484 989.591 432.484 989.591 433.998 989.174C437.661 988.165 441.325 987.159 444.989 986.155C446.576 985.719 448.163 985.283 449.75 984.845C452.028 984.217 454.307 983.593 456.586 982.969C457.653 982.673 457.653 982.673 458.742 982.372C463.772 981 463.772 981 466 981C465.771 979.77 465.771 979.77 465.538 978.515C464.939 974.603 464.64 970.707 464.387 966.762C464.275 965.133 464.163 963.504 464.05 961.875C463.991 961.028 463.932 960.181 463.872 959.309C460.642 913.455 452.54 865.021 418.016 831.605C400.982 816.888 380.446 810.474 358 812C342.556 813.702 327.803 818.693 313.015 823.238C310.213 824.097 307.41 824.949 304.606 825.802C285.002 831.765 265.456 837.905 246 844.336C245.322 844.56 244.645 844.783 243.947 845.013C240.583 846.127 237.23 847.265 233.887 848.438C233.218 848.67 232.549 848.902 231.859 849.14C230.045 849.77 228.233 850.409 226.422 851.049C210.202 855.556 194.568 848.642 180 842C180 839 180 839 182.125 836.766C183.074 835.935 184.022 835.105 185 834.25C185.757 833.581 185.757 833.581 186.53 832.898C188.012 831.591 189.506 830.295 191 829C192.313 827.854 193.625 826.708 194.938 825.562C195.879 824.745 195.879 824.745 196.84 823.91C199.593 821.476 202.297 818.989 205 816.5C208.959 812.856 212.952 809.261 217.016 805.734C221.054 802.205 225.019 798.594 229 795C231.497 792.752 233.995 790.505 236.492 788.258C238.186 786.733 239.879 785.207 241.57 783.68C245.316 780.301 249.065 776.931 252.875 773.625C256.303 770.641 259.656 767.578 263 764.5C266.959 760.856 270.952 757.261 275.016 753.734C279.054 750.205 283.019 746.594 287 743C289.497 740.752 291.995 738.505 294.492 736.258C296.186 734.733 297.879 733.207 299.57 731.68C303.337 728.281 307.109 724.892 310.938 721.562C315.134 717.908 319.237 714.153 323.348 710.402C325.525 708.431 327.718 706.486 329.938 704.562C333.347 701.601 336.678 698.558 340 695.5C343.959 691.856 347.952 688.261 352.016 684.734C356.054 681.205 360.019 677.594 364 674C366.497 671.752 368.995 669.505 371.492 667.258C373.186 665.733 374.879 664.207 376.57 662.68C380.316 659.301 384.065 655.931 387.875 652.625C391.303 649.641 394.656 646.578 398 643.5C401.959 639.856 405.952 636.261 410.016 632.734C414.054 629.205 418.019 625.594 422 622C424.497 619.752 426.995 617.505 429.492 615.258C431.186 613.733 432.879 612.207 434.57 610.68C438.316 607.301 442.065 603.931 445.875 600.625C449.303 597.641 452.656 594.578 456 591.5C459.959 587.856 463.952 584.261 468.016 580.734C472.054 577.205 476.02 573.594 480 570C489.492 561.428 489.492 561.428 493.875 557.625C497.303 554.641 500.656 551.578 504 548.5C510.87 542.178 517.902 536.063 525 530Z" fill="white"/>
<path d="M1477.31 1126.62C1478.43 1126.62 1478.43 1126.62 1479.56 1126.62C1485.66 1126.74 1490.61 1128.06 1496 1131C1498.48 1132.24 1500.78 1132.31 1503.51 1132.54C1543.93 1136.16 1576.86 1154.61 1606 1182C1606.64 1182.58 1607.27 1183.17 1607.93 1183.77C1636.02 1210.37 1653.02 1250.33 1654.29 1288.71C1654.7 1305.2 1654.93 1321.89 1651 1338C1650.83 1338.74 1650.66 1339.48 1650.48 1340.25C1647.85 1351.38 1644.01 1361.73 1639 1372C1638.69 1372.64 1638.38 1373.27 1638.07 1373.93C1619.05 1412.61 1583.63 1443.72 1543 1458C1500.13 1472.52 1451.87 1471.06 1411 1451C1410.38 1450.7 1409.77 1450.41 1409.14 1450.1C1387.45 1439.56 1366.46 1423.55 1351.62 1404.44C1350.92 1403.54 1350.92 1403.54 1350.21 1402.61C1329.72 1375.88 1317 1343.4 1316.8 1309.48C1316.79 1308.7 1316.78 1307.92 1316.78 1307.11C1316.55 1274.47 1316.55 1274.47 1320 1261C1320.2 1260.21 1320.4 1259.41 1320.6 1258.59C1328.16 1229.28 1342.88 1205.12 1363.67 1183.4C1364.8 1182.21 1365.93 1181 1367.05 1179.79C1373.08 1173.46 1379.99 1168.19 1387 1163C1387.58 1162.57 1388.16 1162.14 1388.76 1161.69C1406.7 1148.61 1427.13 1140.36 1448.69 1135.44C1453.1 1134.4 1456.36 1132.9 1459.99 1130.18C1465.38 1127.01 1471.22 1126.61 1477.31 1126.62Z" fill="white"/>
<path d="M1596 688C1618.44 688 1640.88 688 1664 688C1664.33 734.2 1664.66 780.4 1665 828C1678.3 814.784 1678.3 814.784 1691 801C1692.22 799.713 1693.45 798.437 1694.71 797.189C1695.35 796.555 1695.99 795.921 1696.64 795.267C1697.31 794.612 1697.97 793.957 1698.66 793.281C1699.72 792.228 1699.72 792.228 1700.8 791.153C1703.78 788.186 1706.77 785.225 1709.76 782.263C1711.95 780.084 1714.15 777.901 1716.34 775.719C1717.01 775.063 1717.67 774.408 1718.36 773.733C1721.52 770.58 1724.58 767.384 1727.5 764C1731.04 759.902 1734.81 756.084 1738.66 752.281C1739.36 751.579 1740.07 750.877 1740.8 750.153C1743.78 747.186 1746.77 744.225 1749.76 741.263C1751.95 739.084 1754.15 736.901 1756.34 734.719C1757.01 734.063 1757.67 733.408 1758.36 732.733C1763.84 727.278 1768.99 721.646 1773.69 715.495C1794.33 688.734 1794.33 688.734 1810.2 685.833C1822.19 684.328 1834.29 685.055 1846.31 685.871C1851.59 686.194 1856.88 686.331 1862.17 686.486C1872.46 686.814 1882.73 687.34 1893 688C1889.54 692.114 1886.03 696.098 1882.21 699.89C1881.31 700.785 1880.41 701.68 1879.49 702.601C1879.02 703.068 1878.55 703.534 1878.06 704.015C1876.56 705.498 1875.07 706.984 1873.58 708.471C1869.87 712.163 1866.16 715.849 1862.45 719.535C1859.31 722.659 1856.17 725.785 1853.03 728.913C1851.57 730.364 1850.11 731.812 1848.65 733.26C1847.75 734.158 1846.85 735.055 1845.92 735.98C1845.14 736.759 1844.36 737.537 1843.55 738.339C1841.59 740.387 1839.74 742.453 1837.9 744.603C1833.11 750.115 1827.91 755.222 1822.74 760.373C1821.62 761.497 1820.49 762.622 1819.37 763.746C1816.34 766.777 1813.3 769.804 1810.27 772.831C1807.09 776.003 1803.92 779.178 1800.74 782.352C1794.74 788.353 1788.73 794.352 1782.72 800.35C1775.88 807.182 1769.04 814.017 1762.2 820.853C1748.13 834.905 1734.07 848.954 1720 863C1721.63 866.391 1723.53 869.037 1725.94 871.938C1726.74 872.904 1727.54 873.871 1728.37 874.867C1731.56 878.67 1734.77 882.452 1737.98 886.232C1741.37 890.229 1744.65 894.302 1747.91 898.41C1750.83 902.031 1753.85 905.57 1756.86 909.113C1759.78 912.546 1762.66 916.006 1765.5 919.5C1768.79 923.54 1772.13 927.531 1775.5 931.5C1779.55 936.269 1783.54 941.079 1787.5 945.93C1795.31 955.509 1803.16 965.052 1811.17 974.468C1814.73 978.663 1818.21 982.919 1821.69 987.188C1824.26 990.318 1826.88 993.412 1829.5 996.5C1833.55 1001.27 1837.54 1006.08 1841.5 1010.93C1849.31 1020.51 1857.16 1030.05 1865.17 1039.47C1868.72 1043.66 1872.2 1047.9 1875.67 1052.16C1878.8 1055.98 1881.99 1059.74 1885.2 1063.5C1886.47 1064.99 1887.73 1066.5 1889 1068C1889.77 1068.91 1890.53 1069.82 1891.32 1070.76C1893 1073 1893 1073 1893 1075C1881.47 1075.33 1869.95 1075.57 1858.42 1075.73C1853.06 1075.8 1847.71 1075.9 1842.36 1076.06C1837.18 1076.21 1832.01 1076.29 1826.83 1076.33C1824.87 1076.35 1822.9 1076.4 1820.94 1076.48C1804.78 1077.08 1804.78 1077.08 1799.23 1072.03C1796.58 1069.17 1794.35 1066.11 1792.23 1062.85C1790.21 1059.81 1787.91 1057.03 1785.62 1054.19C1784.72 1053.03 1783.82 1051.86 1782.91 1050.7C1779.69 1046.57 1776.34 1042.54 1773 1038.5C1768.7 1033.31 1764.45 1028.08 1760.31 1022.75C1756.81 1018.24 1753.21 1013.84 1749.5 1009.5C1745.31 1004.61 1741.3 999.605 1737.34 994.521C1732.99 988.943 1728.49 983.49 1723.98 978.038C1720.32 973.603 1716.69 969.142 1713.11 964.637C1710.32 961.156 1707.5 957.705 1704.69 954.25C1700.53 949.146 1696.42 944.008 1692.38 938.813C1688.29 933.567 1684.05 928.479 1679.73 923.43C1676.59 919.75 1673.7 916.007 1671 912C1668.53 913.152 1666.95 914.048 1665 916C1664.68 918.861 1664.68 918.861 1664.72 922.277C1664.72 922.928 1664.71 923.579 1664.7 924.249C1664.69 926.441 1664.68 928.632 1664.68 930.823C1664.67 932.39 1664.66 933.956 1664.65 935.523C1664.62 939.785 1664.61 944.047 1664.6 948.31C1664.58 952.761 1664.55 957.212 1664.53 961.662C1664.48 970.095 1664.44 978.527 1664.41 986.96C1664.37 996.558 1664.32 1006.16 1664.27 1015.76C1664.17 1035.5 1664.08 1055.25 1664 1075C1641.56 1075 1619.12 1075 1596 1075C1596 947.29 1596 819.58 1596 688Z" fill="white"/>
<path d="M893 688C965.27 688 1037.54 688 1112 688C1112 709.12 1112 730.24 1112 752C1062.17 752 1012.34 752 961 752C961 778.07 961 804.14 961 831C1009.51 831 1058.02 831 1108 831C1108 852.45 1108 873.9 1108 896C1059.49 896 1010.98 896 961 896C961 933.62 961 971.24 961 1010C1010.83 1010 1060.66 1010 1112 1010C1112 1031.45 1112 1052.9 1112 1075C1039.73 1075 967.46 1075 893 1075C893 947.29 893 819.58 893 688Z" fill="white"/>
<path d="M401 277C421.68 282.979 439.635 305.009 449.875 323C467.662 355.508 471.88 394.168 461.999 429.847C455.712 451.06 446.029 469.703 431 486C430.136 486.946 429.273 487.892 428.383 488.867C405.39 512.952 371.162 529.411 337.727 530.203C305.624 530.56 275.331 524.374 249 505C248.21 504.433 247.42 503.866 246.605 503.281C238.536 497.179 231.599 489.781 224.537 482.569C223.365 481.372 222.184 480.184 221 479C217.477 481.226 213.957 483.456 210.438 485.688C209.447 486.313 208.456 486.939 207.436 487.584C202.179 490.92 197.02 494.318 192 498C209.831 518.918 228.418 533.955 252 548C251.67 548.99 251.34 549.98 251 551C235.115 558.943 199.436 545.039 184 540C171.541 535.664 159.631 530.202 148 524C147.027 523.488 147.027 523.488 146.034 522.966C130.846 514.937 117.119 505.07 104 494C102.106 492.456 100.21 490.914 98.3125 489.375C96.5398 487.919 94.7688 486.461 93 485C92.3593 484.474 91.7187 483.948 91.0586 483.406C80.0334 474.072 69.7308 463.5 61 452C60.578 451.449 60.156 450.898 59.7212 450.331C28.3518 409.215 10.2677 360.919 3.125 309.875C3.00479 309.018 2.88459 308.16 2.76074 307.277C2.0102 301.394 2 296.026 2 290C14.54 290 27.08 290 40 290C40.5362 294.434 41.0725 298.869 41.625 303.438C47.8142 351.122 65.9772 399.181 99 435C100.321 436.016 101.653 437.019 103 438C102.829 437.287 102.657 436.574 102.481 435.839C95.9934 408.548 93.6083 383.86 97 356C104.812 356.673 112.298 358.265 119.938 360C121.168 360.273 122.398 360.547 123.666 360.828C132.724 362.862 132.724 362.862 135 364C134.959 364.556 134.918 365.113 134.876 365.686C132.434 400.915 139.044 433.899 160 463C162.158 465.398 162.158 465.398 164 467C164.402 466.623 164.804 466.246 165.218 465.858C169.177 462.148 173.143 458.446 177.116 454.752C178.655 453.32 180.193 451.887 181.73 450.453C188.508 444.232 195.677 438.558 203 433C203.654 432.5 204.309 432 204.983 431.484C254.63 393.776 313.462 371.324 375 363C375.837 362.881 376.674 362.763 377.536 362.641C391.428 360.749 405.382 360.821 419.375 360.812C420.333 360.811 421.29 360.81 422.277 360.809C425.047 360.81 427.816 360.819 430.586 360.832C431.415 360.833 432.245 360.834 433.099 360.836C438.147 360.876 443.002 361.283 448 362C441.396 332.156 428.191 299.192 402.645 280.254C402.102 279.84 401.559 279.426 401 279C401 278.34 401 277.68 401 277Z" fill="white"/>
<path d="M777 1138C934.627 1138 934.627 1138 984.688 1186.38C1016.34 1218.8 1027.52 1261.92 1027.15 1306.26C1026.48 1345.8 1012.27 1382.29 985 1411C984.553 1411.47 984.106 1411.95 983.645 1412.44C961.875 1435.4 934.091 1450.82 903.125 1457.25C902.409 1457.4 901.692 1457.55 900.954 1457.71C861.245 1465.31 814.05 1461 777 1461C777 1354.41 777 1247.82 777 1138ZM826 1185C826 1260.9 826 1336.8 826 1415C873.88 1415 911.244 1413.55 946.562 1379.81C968.269 1357.52 977.643 1328.02 977.283 1297.22C976.461 1265.46 965.29 1236.14 942 1214C927.467 1200.78 909.164 1193.19 890.188 1188.81C889.526 1188.66 888.864 1188.5 888.182 1188.34C867.391 1183.86 847.398 1185 826 1185Z" fill="white"/>
<path d="M160 1118C162.728 1121.31 164.482 1124.9 166.23 1128.78C166.691 1129.79 166.691 1129.79 167.161 1130.82C168.175 1133.04 169.181 1135.27 170.188 1137.5C170.905 1139.08 171.623 1140.66 172.341 1142.24C177.891 1154.47 183.349 1166.74 188.786 1179.02C193.963 1190.71 199.22 1202.36 204.5 1214C210.385 1226.98 216.23 1239.97 222 1253C228.634 1267.98 235.37 1282.91 242.131 1297.83C242.927 1299.59 243.723 1301.34 244.52 1303.1C244.906 1303.95 245.293 1304.81 245.691 1305.69C250.658 1316.65 255.578 1327.64 260.494 1338.63C263.056 1344.36 265.621 1350.09 268.188 1355.81C268.711 1356.98 269.235 1358.15 269.775 1359.35C274.117 1369.04 278.473 1378.72 282.831 1388.4C285.139 1393.53 287.447 1398.66 289.754 1403.79C291.78 1408.29 293.808 1412.79 295.837 1417.3C297.247 1420.43 298.655 1423.56 300.062 1426.69C300.538 1427.74 301.013 1428.79 301.502 1429.88C306.138 1440.2 310.541 1450.59 315 1461C296.85 1461 278.7 1461 260 1461C251.939 1443.13 244.006 1425.22 236.347 1407.17C235.061 1404.14 233.768 1401.12 232.473 1398.09C231.731 1396.35 230.991 1394.61 230.25 1392.88C229.914 1392.09 229.579 1391.31 229.233 1390.51C227 1385.23 227 1385.23 227 1383C181.46 1383 135.92 1383 89 1383C88.67 1384.65 88.34 1386.3 88 1388C87.1039 1390.13 86.1459 1392.24 85.1484 1394.33C84.8574 1394.94 84.5664 1395.56 84.2666 1396.19C83.6366 1397.52 83.0043 1398.84 82.3698 1400.17C80.6631 1403.74 78.9745 1407.31 77.2852 1410.89C76.9342 1411.63 76.5832 1412.37 76.2215 1413.14C71.6767 1422.77 67.3029 1432.48 62.9253 1442.18C62.6245 1442.85 62.3238 1443.52 62.0139 1444.2C61.2055 1445.99 60.3992 1447.78 59.593 1449.57C57.8062 1453.42 55.8969 1457.21 54 1461C36.18 1461 18.36 1461 0 1461C5.17154 1449.51 10.3367 1438.03 15.6875 1426.62C16.2839 1425.35 16.8802 1424.08 17.4763 1422.8C18.7053 1420.17 19.9349 1417.55 21.165 1414.92C24.1363 1408.57 27.0993 1402.22 30.0625 1395.88C30.4974 1394.94 30.4974 1394.94 30.941 1393.99C35.6765 1383.85 40.3944 1373.69 45.1057 1363.54C49.3521 1354.39 53.6164 1345.25 57.8853 1336.1C62.1019 1327.08 66.3064 1318.04 70.5 1309C75.2805 1298.69 80.0782 1288.4 84.8853 1278.1C89.1019 1269.08 93.3064 1260.04 97.5 1251C102.28 1240.69 107.078 1230.4 111.885 1220.1C116.102 1211.08 120.306 1202.04 124.5 1193C129.565 1182.08 134.647 1171.17 139.743 1160.27C142.743 1153.85 145.732 1147.42 148.703 1140.99C149.305 1139.69 149.906 1138.39 150.508 1137.08C151.646 1134.62 152.781 1132.16 153.914 1129.69C154.422 1128.59 154.93 1127.5 155.453 1126.36C155.898 1125.4 156.343 1124.43 156.802 1123.43C158 1121 158 1121 160 1118ZM159 1229C147.939 1252.92 136.904 1276.86 125.98 1300.85C124.97 1303.07 123.959 1305.28 122.947 1307.5C121.276 1311.16 119.609 1314.82 117.944 1318.49C117.32 1319.86 116.694 1321.23 116.066 1322.61C115.207 1324.49 114.353 1326.37 113.5 1328.25C112.773 1329.85 112.773 1329.85 112.031 1331.48C110.874 1333.86 110.874 1333.86 111 1336C142.35 1336 173.7 1336 206 1336C202.084 1325.74 202.084 1325.74 197.828 1315.66C197.548 1315.03 197.269 1314.4 196.981 1313.75C196.383 1312.41 195.784 1311.06 195.184 1309.72C193.535 1306.02 191.897 1302.32 190.258 1298.62C189.914 1297.85 189.57 1297.07 189.215 1296.27C185.148 1287.09 181.134 1277.89 177.125 1268.69C176.765 1267.86 176.404 1267.03 176.033 1266.18C170.643 1253.81 165.284 1241.42 160 1229C159.67 1229 159.34 1229 159 1229Z" fill="white"/>
<path d="M401 1138C417.5 1138 434 1138 451 1138C451.015 1144.25 451.029 1150.5 451.044 1156.94C451.095 1177.65 451.161 1198.35 451.236 1219.05C451.281 1231.6 451.32 1244.15 451.346 1256.69C451.37 1267.64 451.403 1278.58 451.449 1289.53C451.472 1295.31 451.491 1301.1 451.498 1306.89C451.504 1312.35 451.524 1317.82 451.554 1323.28C451.563 1325.27 451.567 1327.26 451.565 1329.25C451.549 1354.62 453.426 1381.28 471.621 1400.65C483.447 1412.34 498.373 1418.97 515 1420C515.844 1420.05 516.689 1420.11 517.559 1420.16C538.229 1420.81 556.107 1414.4 571.25 1400.19C589.576 1380.85 590.455 1353.43 590.432 1328.27C590.441 1326.18 590.452 1324.09 590.463 1321.99C590.491 1316.38 590.5 1310.77 590.506 1305.16C590.516 1299.27 590.542 1293.39 590.566 1287.5C590.61 1276.38 590.638 1265.26 590.661 1254.14C590.689 1241.47 590.732 1228.79 590.778 1216.12C590.87 1190.08 590.94 1164.04 591 1138C607.5 1138 624 1138 641 1138C641.068 1166.04 641.123 1194.09 641.155 1222.13C641.171 1235.15 641.192 1248.18 641.226 1261.2C641.256 1272.56 641.276 1283.92 641.282 1295.28C641.286 1301.29 641.295 1307.29 641.317 1313.3C641.338 1318.97 641.344 1324.64 641.339 1330.32C641.34 1332.38 641.346 1334.45 641.358 1336.51C641.451 1353.98 640.891 1372.36 634.812 1388.94C634.51 1389.8 634.207 1390.65 633.896 1391.54C623.339 1420.49 600.923 1444.09 573.008 1457.12C566.514 1459.96 559.832 1462.13 553 1464C552.349 1464.18 551.699 1464.36 551.028 1464.54C531.735 1469.55 508.205 1469.29 489 1464C487.912 1463.7 487.912 1463.7 486.802 1463.4C456.557 1454.8 431.238 1434.75 415.48 1407.55C402.384 1384.05 400.674 1358.46 400.773 1332.13C400.774 1330 400.773 1327.87 400.772 1325.74C400.771 1320.01 400.783 1314.28 400.797 1308.56C400.81 1302.55 400.811 1296.55 400.813 1290.54C400.819 1279.19 400.836 1267.85 400.856 1256.5C400.878 1243.57 400.889 1230.64 400.899 1217.71C400.92 1191.14 400.957 1164.57 401 1138Z" fill="white"/>
<path d="M1929.27 1151.54C1939.94 1160.55 1954.64 1173.6 1957 1188C1956.17 1188.48 1955.35 1188.97 1954.5 1189.47C1951.38 1191.29 1948.27 1193.11 1945.16 1194.93C1943.82 1195.72 1942.48 1196.5 1941.14 1197.28C1933.4 1201.81 1925.68 1206.36 1918 1211C1915.1 1208.21 1912.97 1205.09 1910.75 1201.75C1903.41 1191.04 1895.67 1184.19 1882.81 1180.62C1867.73 1177.96 1852.82 1179.85 1839.77 1187.98C1831.71 1193.86 1827.15 1201.02 1824.25 1210.44C1823.29 1220.29 1824.09 1228.22 1829.88 1236.5C1841.12 1249.92 1858.91 1255.79 1874.66 1262.07C1899.12 1271.83 1921.56 1281.7 1941 1300C1941.64 1300.57 1942.28 1301.15 1942.93 1301.74C1958.82 1316.56 1965.22 1339.02 1966.22 1360.06C1967.1 1389.25 1957.54 1415.97 1937.59 1437.46C1915.36 1459.25 1888.43 1467.46 1857.75 1467.36C1830.7 1466.96 1807.45 1458.09 1788 1439C1787.25 1438.28 1786.5 1437.55 1785.73 1436.8C1770.08 1420.63 1758 1393.75 1758 1371C1764.46 1369.57 1770.92 1368.15 1777.38 1366.73C1779.58 1366.24 1781.77 1365.76 1783.97 1365.27C1787.13 1364.57 1790.29 1363.88 1793.45 1363.19C1794.43 1362.97 1795.41 1362.75 1796.42 1362.52C1797.34 1362.32 1798.26 1362.12 1799.21 1361.92C1800.42 1361.65 1800.42 1361.65 1801.65 1361.38C1804.14 1360.98 1806.48 1360.93 1809 1361C1809.14 1361.9 1809.14 1361.9 1809.29 1362.81C1812.47 1382.48 1815.99 1399.58 1833 1412C1845.38 1420.08 1860.64 1421.49 1874.88 1418.87C1888.75 1415.65 1899.48 1408.73 1907.39 1396.88C1915.29 1382.71 1916.9 1367.56 1912.9 1352C1908.57 1337.54 1896.54 1327.25 1883.57 1320.24C1882.78 1319.83 1882 1319.42 1881.19 1319C1880.32 1318.55 1879.45 1318.09 1878.56 1317.63C1869.55 1313.05 1860.22 1309.26 1850.88 1305.44C1833.44 1298.3 1816.58 1291.2 1802 1279C1801.13 1278.29 1800.26 1277.59 1799.37 1276.86C1785.56 1265.12 1775.01 1248.26 1773 1230C1771.48 1206.29 1774.7 1184.62 1790.44 1166C1824.4 1127.52 1888.36 1118.38 1929.27 1151.54Z" fill="white"/>
<path d="M1496 1131C1498.92 1133.12 1501.47 1135.43 1504 1138C1504.55 1138.52 1505.09 1139.05 1505.65 1139.59C1514.25 1148.56 1515.74 1159.58 1515.71 1171.52C1515.72 1172.87 1515.74 1174.22 1515.75 1175.57C1515.79 1179.08 1515.8 1182.59 1515.81 1186.1C1515.82 1189.7 1515.85 1193.3 1515.89 1196.9C1515.95 1203.93 1515.99 1210.97 1516 1218C1517.09 1218.53 1518.17 1219.06 1519.29 1219.61C1520.74 1220.33 1522.19 1221.04 1523.63 1221.76C1524.7 1222.28 1524.7 1222.28 1525.8 1222.82C1546.67 1233.16 1561.52 1251.39 1569.14 1273.26C1576.04 1297.93 1573.06 1322.49 1560.66 1344.59C1557.33 1350.26 1553.5 1355.2 1549 1360C1548.42 1360.65 1547.83 1361.3 1547.23 1361.97C1533.39 1376.72 1511.2 1386.41 1491.03 1387.34C1465.53 1387.79 1443.33 1380.07 1424.37 1362.48C1409.69 1348.19 1399.24 1327.15 1398.83 1306.52C1398.82 1304.43 1398.81 1302.34 1398.81 1300.25C1398.8 1299.22 1398.79 1298.18 1398.78 1297.12C1398.76 1290.5 1399.42 1284.42 1401 1278C1401.2 1277.17 1401.4 1276.35 1401.61 1275.5C1407.06 1254.23 1422.08 1236.17 1440.61 1224.97C1457.73 1215 1457.73 1215 1467 1215C1466.94 1207.59 1466.86 1200.19 1466.76 1192.78C1466.72 1189.34 1466.68 1185.9 1466.65 1182.46C1466.62 1178.49 1466.57 1174.53 1466.51 1170.57C1466.51 1169.34 1466.5 1168.12 1466.49 1166.86C1466.34 1158 1465.19 1150.5 1460 1143.12C1459.51 1142.41 1459.01 1141.69 1458.5 1140.95C1457.11 1139.14 1455.65 1137.57 1454 1136C1455 1133 1455 1133 1457.14 1131.65C1458.03 1131.23 1458.91 1130.81 1459.81 1130.37C1460.69 1129.95 1461.56 1129.52 1462.46 1129.09C1472.38 1124.85 1486.78 1125.27 1496 1131Z" fill="#EE4127"/>
<path d="M1308 770C1312.23 771.416 1314.97 773.454 1318.31 776.375C1323.93 781.207 1329.78 785.664 1335.74 790.064C1336.73 790.79 1336.73 790.79 1337.73 791.531C1338.31 791.96 1338.89 792.388 1339.49 792.83C1341 794 1341 794 1343 796C1343.19 798.821 1343.26 801.543 1343.24 804.365C1343.24 805.24 1343.24 806.116 1343.25 807.018C1343.25 809.969 1343.24 812.92 1343.23 815.872C1343.23 817.98 1343.23 820.089 1343.23 822.198C1343.23 827.937 1343.22 833.676 1343.2 839.416C1343.19 845.408 1343.19 851.401 1343.19 857.393C1343.18 868.747 1343.16 880.102 1343.14 891.456C1343.12 906.794 1343.11 922.133 1343.1 937.471C1343.08 961.647 1343.04 985.824 1343 1010C1379.63 1010 1416.26 1010 1454 1010C1454 1031.45 1454 1052.9 1454 1075C1394.93 1075 1335.86 1075 1275 1075C1274.4 1005.47 1274.4 1005.47 1274.27 976.41C1274.24 969.759 1274.21 963.108 1274.18 956.458C1274.17 955.207 1274.17 955.207 1274.16 953.932C1274.1 940.488 1273.98 927.045 1273.84 913.602C1273.7 899.798 1273.62 885.994 1273.59 872.189C1273.57 863.675 1273.5 855.164 1273.38 846.651C1273.3 840.807 1273.28 834.965 1273.3 829.121C1273.31 825.75 1273.28 822.388 1273.21 819.018C1272.78 797.774 1272.78 797.774 1278.2 791.868C1281.25 789.177 1284.49 787.087 1288.05 785.135C1291.31 783.239 1294.18 780.856 1297.13 778.5C1298.14 777.727 1299.15 776.953 1300.2 776.156C1302.82 774.136 1305.42 772.08 1308 770Z" fill="white"/>
<path d="M438 0C441.18 1.40634 443.335 3.07848 445.793 5.52734C446.501 6.23149 447.209 6.93564 447.939 7.66113C448.681 8.41233 449.423 9.16354 450.188 9.9375C450.953 10.708 451.718 11.4786 452.506 12.2725C457.264 17.1103 461.731 22.0106 465.914 27.3555C467.834 29.7894 469.833 32.1332 471.869 34.4697C484.593 49.146 495.105 65.3253 505 82C505.675 83.1283 505.675 83.1283 506.363 84.2793C533.117 129.38 546.206 181.758 546.25 234C546.251 234.731 546.251 235.461 546.252 236.214C546.167 294.852 531.235 360.237 494 407C492.615 402.844 493.844 399.514 494.812 395.375C506.344 342.471 496.676 284.276 467.535 238.441C464.641 234.01 461.655 229.647 458.618 225.312C457.162 223.231 455.731 221.135 454.309 219.031C442.179 201.289 426.689 187.063 409 175C409.669 170.23 411.535 166.225 413.527 161.891C414.051 160.74 414.051 160.74 414.585 159.565C415.321 157.95 416.06 156.337 416.802 154.724C417.938 152.248 419.062 149.767 420.186 147.285C420.903 145.716 421.621 144.147 422.34 142.578C422.676 141.833 423.013 141.089 423.36 140.321C425.77 135.115 425.77 135.115 428 134C439.638 141.573 450.431 149.507 460.676 158.922C462.272 160.349 463.917 161.724 465.598 163.051C467.694 164.751 469.383 166.39 471.125 168.438C472.016 169.484 472.016 169.484 472.926 170.551C473.61 171.359 474.295 172.167 475 173C476.259 174.444 476.259 174.444 477.543 175.918C483.017 182.235 488.097 188.698 492.827 195.594C494.935 198.81 494.935 198.81 498 201C490.107 138.605 459.416 85.2286 417 40C421.705 30.4648 426.528 20.9943 431.438 11.5625C431.97 10.5376 432.502 9.51273 433.05 8.45679C433.548 7.50296 434.046 6.54914 434.559 5.56641C435.228 4.28165 435.228 4.28165 435.912 2.97095C437 1 437 1 438 0Z" fill="white"/>
<path d="M1147 1138C1163.17 1138 1179.34 1138 1196 1138C1196 1244.59 1196 1351.18 1196 1461C1179.83 1461 1163.66 1461 1147 1461C1147 1354.41 1147 1247.82 1147 1138Z" fill="white"/>
<path d="M1497 1238C1513.8 1240.87 1528.36 1251.69 1538.33 1265.14C1548.43 1280.63 1551.75 1300.06 1548.6 1318.31C1547.52 1322.74 1545.88 1326.86 1544 1331C1543.55 1331.99 1543.11 1332.99 1542.65 1334.01C1534.45 1350.44 1519.42 1362.29 1502.35 1368.34C1500 1369 1500 1369 1497 1369C1496.47 1367.42 1495.95 1365.84 1495.44 1364.25C1495.15 1363.37 1494.86 1362.49 1494.56 1361.58C1493.96 1358.83 1493.8 1357.54 1495 1355C1496.97 1353.58 1496.97 1353.58 1499.5 1352.25C1513.72 1344.11 1521.05 1332.42 1526 1317C1529.9 1301.97 1526.48 1286.23 1518.95 1273.04C1512.54 1263.02 1504.09 1256.99 1494 1251C1494.55 1246.43 1495.42 1242.33 1497 1238Z" fill="#FEFDFC"/>
<path d="M1947.57 1558.17C1955.56 1564.19 1961.03 1572.14 1963 1582C1963.95 1593.36 1962.08 1603.19 1954.76 1612.15C1946.98 1620.33 1939.59 1623.98 1928.4 1624.4C1920.86 1624.52 1914.44 1624.31 1908 1620C1906.96 1619.35 1906.96 1619.35 1905.9 1618.68C1898.11 1613.35 1892.61 1605.87 1890.44 1596.62C1888.73 1586.44 1890.24 1577.09 1895.69 1568.31C1907.91 1551.32 1929.88 1546.83 1947.57 1558.17ZM1906 1573C1901.37 1579.66 1900.93 1587.12 1902 1595C1904.28 1602.9 1909.01 1607.86 1916 1612C1923.17 1614.84 1929.64 1614.67 1936.8 1612.03C1943.23 1609.03 1947.19 1604.32 1950.12 1597.91C1952.18 1591.1 1952.37 1583.18 1949.5 1576.56C1945.74 1570.4 1939.96 1565.61 1933.07 1563.43C1922.18 1561.15 1913.28 1564.75 1906 1573Z" fill="#6D6E71"/>
<path d="M696 1560C702.599 1565.24 707.483 1572.6 709 1581C709.881 1593.15 708.883 1602.84 700.75 1612.37C693.562 1619.81 686.074 1624.17 675.58 1624.38C663.77 1624.35 654.884 1622.29 646 1614C638.698 1606.02 635.63 1596.94 635.855 1586.13C636.53 1576.19 640.507 1567.91 647.875 1561.12C662.59 1549.24 680.744 1549.05 696 1560ZM653 1572C648.073 1578.98 646.932 1585.58 648 1594C649.425 1600.16 652.072 1605 657.34 1608.6C664.349 1612.95 669.752 1615.22 678.172 1613.57C685.694 1611.46 691.579 1607.04 695.437 1600.19C698.564 1592.94 698.711 1585.82 696.141 1578.39C692.882 1571.56 687.74 1567.18 681 1564C670.486 1560.85 660.2 1563.73 653 1572Z" fill="#6D6E71"/>
<path d="M976.016 1559.37C978.8 1561.66 980.864 1564.11 983 1567C980.69 1569.31 978.38 1571.62 976 1574C972.888 1572.44 970.77 1571.12 968.125 1569C962.467 1564.72 957.137 1563.12 950 1564C945.381 1565.23 941.727 1566.99 938 1570C937.34 1570 936.68 1570 936 1570C935.732 1570.54 935.464 1571.07 935.188 1571.62C934.287 1573.43 933.367 1575.21 932.438 1577C929.113 1583.94 928.987 1590.86 931.5 1598.12C934.444 1604.79 939.376 1609.13 946.063 1611.94C952.087 1613.8 956.469 1613.47 962.188 1610.81C968.763 1607.26 970.607 1604.18 973 1597C967.39 1597 961.78 1597 956 1597C956 1593.37 956 1589.74 956 1586C965.9 1586 975.8 1586 986 1586C986 1598.87 984.327 1607.45 975.336 1616.71C968.365 1623.22 960.398 1625 951 1625C941.309 1624.08 932.599 1620.26 926 1613C918.571 1602.51 916.799 1592.62 918 1580C919.968 1570.9 925.778 1563.05 933.25 1557.62C947.082 1549.17 962.954 1550.13 976.016 1559.37Z" fill="#6D6E71"/>
<path d="M1172.31 1557.75C1173.56 1558.81 1174.79 1559.9 1176 1561C1176.62 1561.5 1177.23 1562.01 1177.87 1562.52C1184.36 1568.23 1187.75 1575.61 1188.45 1584.2C1188.94 1595.45 1187.17 1603.57 1179.75 1612.31C1173.35 1619.01 1166.33 1623.83 1156.83 1624.34C1144.54 1624.58 1135.77 1623.03 1126.04 1614.99C1119.02 1608.16 1115.85 1600.34 1115.52 1590.59C1115.44 1581.37 1116.71 1574.84 1122 1567C1122.38 1566.39 1122.77 1565.78 1123.16 1565.15C1127.87 1558.56 1137.05 1554.1 1144.81 1552.38C1154.31 1551.26 1164.33 1551.95 1172.31 1557.75ZM1133 1571C1127.73 1577.92 1126 1584.42 1127 1593C1128.77 1600.11 1132 1605.7 1138 1610C1145.21 1613.9 1151.45 1615.12 1159.44 1612.94C1167.31 1610.08 1172.49 1604.45 1176 1597C1178.44 1588.79 1177.03 1581.46 1173 1574C1170.69 1571.1 1170.69 1571.1 1168 1569C1167.2 1568.28 1166.39 1567.56 1165.56 1566.81C1155.12 1559.43 1141.78 1562.47 1133 1571Z" fill="#6D6E71"/>
<path d="M297 1549C303.473 1554.55 309.553 1560.07 315.062 1566.56C319.272 1571.47 323.916 1575.94 328.508 1580.49C332.337 1584.29 336.054 1588.13 339.508 1592.29C341.554 1594.63 343.799 1596.8 346 1599C346.33 1584.15 346.66 1569.3 347 1554C350.63 1554 354.26 1554 358 1554C358 1578.09 358 1602.18 358 1627C354.492 1625.25 353.085 1624.29 350.566 1621.54C349.924 1620.85 349.281 1620.15 348.619 1619.44C347.94 1618.7 347.262 1617.95 346.562 1617.19C341.451 1611.67 336.297 1606.22 330.938 1600.94C327.594 1597.63 324.313 1594.32 321.25 1590.75C317.39 1586.3 313.168 1582.17 309 1578C308.67 1592.85 308.34 1607.7 308 1623C304.37 1623 300.74 1623 297 1623C297 1598.58 297 1574.16 297 1549Z" fill="#6D6E71"/>
<path d="M1275 688C1297.44 688 1319.88 688 1343 688C1343 701.86 1343 715.72 1343 730C1340.15 728.576 1338.04 727.4 1335.57 725.531C1334.92 725.047 1334.28 724.562 1333.62 724.063C1332.6 723.289 1332.6 723.289 1331.56 722.5C1330.86 721.973 1330.16 721.445 1329.43 720.902C1325.98 718.303 1322.57 715.669 1319.23 712.914C1318.65 712.443 1318.08 711.972 1317.48 711.486C1315.9 710.195 1314.33 708.883 1312.77 707.57C1310.15 705.695 1310.15 705.695 1307.48 706.457C1304.56 708.276 1302.04 710.3 1299.44 712.562C1293.49 717.661 1287.31 722.353 1281 727C1280.27 727.579 1279.54 728.158 1278.78 728.754C1277 730 1277 730 1275 730C1275 716.14 1275 702.28 1275 688Z" fill="white"/>
<path d="M1717 1554C1752.86 1554 1752.86 1554 1762 1563C1770.31 1573.07 1772.17 1583.1 1771 1596C1769.32 1604.78 1764.71 1611.2 1758 1617C1744.8 1625.52 1733.89 1623 1717 1623C1717 1600.23 1717 1577.46 1717 1554ZM1728 1564C1728 1579.84 1728 1595.68 1728 1612C1742.27 1612.32 1742.27 1612.32 1752.75 1605.69C1758.33 1599.02 1760.51 1593.38 1759.82 1584.71C1758.71 1578.1 1755.6 1572.9 1750.37 1568.68C1743.36 1564.27 1736.12 1564 1728 1564Z" fill="#6D6E71"/>
<path d="M1242 1554C1264 1554 1264 1554 1272 1558C1273.84 1560 1273.84 1560 1274.94 1562C1275.32 1562.66 1275.7 1563.32 1276.09 1564C1278.06 1568.33 1278.4 1572.26 1278 1577C1276.88 1579.8 1275.51 1582.4 1274 1585C1274.47 1585.35 1274.94 1585.7 1275.43 1586.07C1280.53 1590.11 1283.43 1593.68 1284.31 1600.39C1284.64 1607.16 1283.21 1612.46 1278.61 1617.54C1268.42 1626.74 1255.16 1623 1242 1623C1242 1600.23 1242 1577.46 1242 1554ZM1254 1564C1254 1570.27 1254 1576.54 1254 1583C1261.23 1583.18 1261.23 1583.18 1266 1579C1267.55 1575.9 1267.29 1573.42 1267 1570C1265.73 1566.97 1265.73 1566.97 1263 1565C1260.03 1564.67 1257.06 1564.34 1254 1564ZM1254 1593C1254 1599.27 1254 1605.54 1254 1612C1256.82 1612.09 1256.82 1612.09 1259.69 1612.19C1261.27 1612.24 1261.27 1612.24 1262.89 1612.29C1266.4 1611.96 1268.19 1611.09 1271 1609C1272.74 1606.07 1273.01 1604.35 1272.88 1600.94C1271.87 1597.55 1270.75 1596.18 1268 1594C1264.85 1592.95 1262.61 1592.9 1259.31 1592.94C1257.56 1592.96 1255.81 1592.98 1254 1593Z" fill="#6D6E71"/>
<path d="M1527 1549C1529.28 1551.09 1530.63 1552.95 1531.89 1555.77C1532.24 1556.52 1532.58 1557.28 1532.93 1558.05C1533.29 1558.87 1533.65 1559.69 1534.03 1560.53C1534.41 1561.39 1534.8 1562.24 1535.2 1563.13C1536.45 1565.91 1537.69 1568.71 1538.94 1571.5C1539.79 1573.41 1540.65 1575.32 1541.51 1577.23C1543.21 1581.04 1544.92 1584.85 1546.62 1588.66C1548.41 1592.68 1550.21 1596.69 1552.02 1600.71C1553.41 1603.8 1554.8 1606.9 1556.19 1610C1556.69 1611.11 1557.18 1612.21 1557.7 1613.35C1558.14 1614.35 1558.59 1615.35 1559.04 1616.38C1559.42 1617.23 1559.81 1618.08 1560.2 1618.96C1561 1621 1561 1621 1561 1623C1556.71 1623 1552.42 1623 1548 1623C1547 1620.71 1546 1618.42 1545 1616.12C1544.71 1615.47 1544.43 1614.82 1544.13 1614.15C1542 1609.23 1542 1609.23 1542 1607C1532.43 1607.33 1522.86 1607.66 1513 1608C1510.69 1612.95 1508.38 1617.9 1506 1623C1501.71 1623 1497.42 1623 1493 1623C1498.73 1609.51 1504.97 1596.27 1511.19 1583C1514.6 1575.72 1517.99 1568.42 1521.38 1561.12C1521.95 1559.89 1522.52 1558.66 1523.09 1557.43C1524.39 1554.62 1525.7 1551.81 1527 1549ZM1527 1575C1525.49 1578.12 1524 1581.25 1522.5 1584.38C1522.07 1585.26 1521.64 1586.15 1521.2 1587.07C1520.79 1587.92 1520.39 1588.77 1519.97 1589.65C1519.59 1590.43 1519.21 1591.22 1518.83 1592.03C1517.87 1593.95 1517.87 1593.95 1518 1596C1524.27 1596 1530.54 1596 1537 1596C1535.91 1593.28 1534.81 1590.56 1533.69 1587.75C1533.35 1586.9 1533.01 1586.05 1532.66 1585.17C1532.39 1584.49 1532.11 1583.81 1531.82 1583.11C1531.41 1582.07 1531.41 1582.07 1530.98 1581.01C1529.89 1578.78 1528.55 1576.94 1527 1575Z" fill="#6D6E71"/>
<path d="M34 1549C36.2837 1551.09 37.6317 1552.95 38.8943 1555.77C39.2361 1556.52 39.5779 1557.28 39.9301 1558.05C40.2922 1558.87 40.6543 1559.69 41.0273 1560.53C41.4129 1561.39 41.7984 1562.24 42.1956 1563.13C43.4496 1565.91 44.6938 1568.71 45.9375 1571.5C46.7935 1573.41 47.65 1575.32 48.5071 1577.23C50.2138 1581.04 51.9164 1584.85 53.6152 1588.66C55.4079 1592.68 57.2085 1596.69 59.016 1600.71C60.41 1603.8 61.7987 1606.9 63.1875 1610C63.6856 1611.11 64.1838 1612.21 64.697 1613.35C65.1412 1614.35 65.5853 1615.35 66.043 1616.38C66.4248 1617.23 66.8066 1618.08 67.2 1618.96C68 1621 68 1621 68 1623C63.71 1623 59.42 1623 55 1623C53.9956 1620.71 52.9963 1618.42 52 1616.12C51.7138 1615.47 51.4277 1614.82 51.1328 1614.15C49 1609.23 49 1609.23 49 1607C39.43 1607.33 29.86 1607.66 20 1608C17.69 1612.95 15.38 1617.9 13 1623C8.71 1623 4.42 1623 0 1623C5.32568 1610.79 10.9054 1598.71 16.5518 1586.65C17.1569 1585.36 17.7621 1584.07 18.3672 1582.77C18.6674 1582.13 18.9676 1581.49 19.277 1580.83C24.2303 1570.24 29.1124 1559.62 34 1549ZM34 1575C32.497 1578.31 30.9981 1581.62 29.5 1584.94C29.0707 1585.88 28.6415 1586.83 28.1992 1587.8C27.7932 1588.7 27.3871 1589.6 26.9688 1590.53C26.5917 1591.36 26.2146 1592.19 25.8262 1593.05C24.935 1594.8 24.935 1594.8 25 1596C31.27 1596 37.54 1596 44 1596C42.9069 1593.28 41.8138 1590.56 40.6875 1587.75C40.3494 1586.9 40.0112 1586.05 39.6628 1585.17C39.3861 1584.49 39.1094 1583.81 38.8242 1583.11C38.4079 1582.07 38.4079 1582.07 37.9832 1581.01C36.8919 1578.78 35.5455 1576.94 34 1575Z" fill="#6D6E71"/>
<path d="M1608 1554C1611.63 1554 1615.26 1554 1619 1554C1619.02 1555.36 1619.04 1556.71 1619.06 1558.11C1619.14 1563.16 1619.22 1568.22 1619.32 1573.27C1619.36 1575.45 1619.39 1577.64 1619.42 1579.82C1619.47 1582.96 1619.53 1586.11 1619.59 1589.25C1619.6 1590.22 1619.61 1591.19 1619.62 1592.19C1619.74 1597.51 1620.27 1601.97 1622 1607C1622.33 1607.99 1622.66 1608.98 1623 1610C1626.99 1612.18 1631.47 1613.07 1636 1613C1640.59 1611.57 1643.61 1610.26 1646 1606C1646.96 1603.11 1647.15 1601.17 1647.21 1598.16C1647.23 1597.18 1647.25 1596.2 1647.27 1595.19C1647.28 1594.13 1647.3 1593.08 1647.32 1591.99C1647.34 1590.9 1647.36 1589.82 1647.38 1588.71C1647.44 1585.24 1647.5 1581.78 1647.56 1578.31C1647.61 1575.97 1647.65 1573.62 1647.69 1571.27C1647.8 1565.51 1647.9 1559.76 1648 1554C1651.96 1554 1655.92 1554 1660 1554C1660.07 1560.65 1660.13 1567.31 1660.16 1573.96C1660.18 1576.22 1660.2 1578.48 1660.23 1580.74C1660.26 1584 1660.28 1587.26 1660.29 1590.52C1660.31 1591.52 1660.32 1592.52 1660.34 1593.55C1660.34 1603.09 1658.74 1611.34 1651.92 1618.3C1645.22 1624.21 1638.5 1624.76 1629.79 1624.39C1622.34 1623.63 1617.86 1620.67 1613 1615C1609.14 1609.75 1607.87 1606.29 1607.89 1599.86C1607.89 1598.84 1607.89 1597.82 1607.89 1596.77C1607.89 1595.68 1607.9 1594.58 1607.9 1593.45C1607.9 1592.33 1607.91 1591.2 1607.91 1590.04C1607.91 1586.44 1607.92 1582.85 1607.94 1579.25C1607.94 1576.81 1607.95 1574.37 1607.95 1571.93C1607.96 1565.96 1607.98 1559.98 1608 1554Z" fill="#6D6E71"/>
<path d="M187 1554C190.96 1554 194.92 1554 199 1554C199.015 1555.42 199.029 1556.83 199.044 1558.3C199.102 1563.57 199.18 1568.85 199.262 1574.12C199.296 1576.4 199.324 1578.68 199.346 1580.96C199.38 1584.25 199.432 1587.53 199.488 1590.82C199.495 1591.83 199.501 1592.84 199.508 1593.89C199.642 1600.4 200.196 1605.76 204.625 1610.88C209.053 1612.97 213.464 1613.62 218.258 1612.45C222.363 1610.73 223.632 1609.8 225.576 1605.59C227.438 1600.41 227.476 1595.39 227.512 1589.94C227.53 1588.91 227.548 1587.87 227.566 1586.81C227.62 1583.54 227.654 1580.27 227.687 1577C227.721 1574.77 227.755 1572.54 227.791 1570.32C227.876 1564.88 227.943 1559.44 228 1554C231.63 1554 235.26 1554 239 1554C239.124 1561.22 239.215 1568.44 239.275 1575.67C239.3 1578.12 239.334 1580.58 239.377 1583.03C239.438 1586.57 239.466 1590.11 239.488 1593.65C239.514 1594.73 239.54 1595.82 239.566 1596.94C239.569 1604.27 238.252 1609.93 234 1616C227.269 1622.39 221.076 1624.45 211.811 1624.43C204.667 1624.22 199.377 1622.09 194.129 1617.29C186.526 1608.95 186.844 1599.08 186.902 1588.38C186.904 1587.39 186.905 1586.4 186.907 1585.38C186.912 1582.26 186.925 1579.13 186.937 1576C186.942 1573.87 186.947 1571.74 186.951 1569.61C186.962 1564.4 186.979 1559.2 187 1554Z" fill="#6D6E71"/>
<path d="M1338 1554C1350.87 1554 1363.74 1554 1377 1554C1377 1557.3 1377 1560.6 1377 1564C1367.76 1564 1358.52 1564 1349 1564C1349 1569.28 1349 1574.56 1349 1580C1357.91 1580 1366.82 1580 1376 1580C1376 1583.63 1376 1587.26 1376 1591C1367.09 1591 1358.18 1591 1349 1591C1349 1597.93 1349 1604.86 1349 1612C1358.24 1612 1367.48 1612 1377 1612C1377 1615.63 1377 1619.26 1377 1623C1364.13 1623 1351.26 1623 1338 1623C1338 1600.23 1338 1577.46 1338 1554Z" fill="#6D6E71"/>
<path d="M763 1554C774.55 1554 786.1 1554 798 1554C798 1557.3 798 1560.6 798 1564C790.08 1564 782.16 1564 774 1564C774 1569.28 774 1574.56 774 1580C781.59 1580 789.18 1580 797 1580C797 1583.63 797 1587.26 797 1591C789.41 1591 781.82 1591 774 1591C774 1601.56 774 1612.12 774 1623C770.37 1623 766.74 1623 763 1623C763 1600.23 763 1577.46 763 1554Z" fill="#6D6E71"/>
<path d="M477 1554C491.19 1554 505.38 1554 520 1554C520 1557.3 520 1560.6 520 1564C514.72 1564 509.44 1564 504 1564C504 1583.47 504 1602.94 504 1623C500.37 1623 496.74 1623 493 1623C493 1603.53 493 1584.06 493 1564C487.72 1564 482.44 1564 477 1564C477 1560.7 477 1557.4 477 1554Z" fill="#6D6E71"/>
<path d="M1040 1554C1043.63 1554 1047.26 1554 1051 1554C1051 1573.14 1051 1592.28 1051 1612C1057.6 1612 1064.2 1612 1071 1612C1071 1615.63 1071 1619.26 1071 1623C1060.77 1623 1050.54 1623 1040 1623C1040 1600.23 1040 1577.46 1040 1554Z" fill="#6D6E71"/>
<path d="M1308 745C1312.32 746.435 1315.14 748.588 1318.56 751.562C1322.73 755.137 1326.96 758.539 1331.38 761.812C1332.36 762.555 1333.34 763.298 1334.35 764.062C1336.86 765.958 1336.86 765.958 1339.09 767.25C1340.75 768.312 1340.75 768.312 1343 771C1343.48 775.049 1343.35 778.944 1343 783C1338.16 781.461 1334.84 778.687 1331 775.5C1329.68 774.421 1328.35 773.343 1327.03 772.266C1326.36 771.722 1325.69 771.179 1325.01 770.619C1321.9 768.111 1318.74 765.677 1315.56 763.25C1315 762.82 1314.44 762.39 1313.86 761.947C1312.58 760.964 1311.29 759.982 1310 759C1306.33 760.627 1303.4 762.901 1300.25 765.375C1299.1 766.266 1297.96 767.157 1296.81 768.047C1296.2 768.521 1295.59 768.994 1294.96 769.482C1291.43 772.218 1287.87 774.927 1284.31 777.625C1283.27 778.424 1283.27 778.424 1282.21 779.24C1277.23 783 1277.23 783 1275 783C1273.88 778.669 1273.76 775.322 1275 771C1278.69 766.356 1283.87 763.036 1288.68 759.646C1291.77 757.455 1294.78 755.162 1297.8 752.869C1299.84 751.321 1301.9 749.79 1303.96 748.266C1306.74 746.305 1306.74 746.305 1308 745Z" fill="white"/>
<path d="M415 1554C418.96 1554 422.92 1554 427 1554C427 1576.77 427 1599.54 427 1623C423.04 1623 419.08 1623 415 1623C415 1600.23 415 1577.46 415 1554Z" fill="#6D6E71"/>
<path d="M1825 1554C1828.63 1554 1832.26 1554 1836 1554C1836 1576.77 1836 1599.54 1836 1623C1832.37 1623 1828.74 1623 1825 1623C1825 1600.23 1825 1577.46 1825 1554Z" fill="#6D6E71"/>
</svg>
