<svg width="2000" height="820" viewBox="0 0 2000 820" fill="none" xmlns="http://www.w3.org/2000/svg">
<g clip-path="url(#clip0_39_193)">
<path d="M1242.03 204.718C1243.09 204.722 1243.09 204.722 1244.17 204.726C1245.29 204.718 1245.29 204.718 1246.43 204.71C1248.95 204.695 1251.46 204.694 1253.98 204.694C1255.78 204.686 1257.58 204.678 1259.37 204.668C1264.27 204.646 1269.16 204.638 1274.06 204.632C1277.11 204.629 1280.17 204.623 1283.22 204.615C1293.87 204.591 1304.52 204.578 1315.17 204.574C1325.11 204.571 1335.05 204.541 1344.99 204.499C1353.52 204.464 1362.04 204.449 1370.57 204.448C1375.66 204.447 1380.76 204.439 1385.85 204.41C1390.64 204.384 1395.43 204.382 1400.23 204.398C1401.99 204.4 1403.75 204.393 1405.51 204.377C1407.91 204.357 1410.31 204.367 1412.71 204.385C1413.41 204.372 1414.11 204.359 1414.83 204.345C1416.78 204.379 1416.78 204.379 1420 205C1421.86 207.311 1421.86 207.311 1423 210C1423.53 211.203 1424.07 212.405 1424.61 213.644C1425.18 215.032 1425.75 216.421 1426.31 217.812C1426.58 218.467 1426.85 219.121 1427.13 219.795C1429.13 224.691 1431 229.635 1432.84 234.59C1435.86 242.682 1439.01 250.72 1442.19 258.75C1442.76 260.194 1443.33 261.638 1443.9 263.082C1444.77 265.28 1445.63 267.478 1446.5 269.676C1449.18 276.447 1451.84 283.223 1454.5 290C1455.39 292.273 1456.29 294.547 1457.18 296.82C1458.65 300.568 1460.12 304.316 1461.59 308.065C1463.27 312.336 1464.95 316.606 1466.63 320.875C1466.9 321.577 1467.18 322.278 1467.46 323.001C1471.2 332.518 1475 342.012 1478.93 351.451C1481.3 357.144 1483.48 362.899 1485.63 368.675C1488.45 376.237 1491.41 383.744 1494.38 391.25C1494.95 392.712 1495.53 394.174 1496.11 395.636C1499.08 403.185 1502.09 410.723 1505.13 418.25C1508.92 427.66 1512.5 437.153 1516.06 446.653C1518.89 454.172 1521.88 461.6 1525 469C1526.49 472.58 1527.96 476.164 1529.44 479.75C1529.97 481.042 1529.97 481.042 1530.52 482.359C1532.71 487.709 1534.8 493.092 1536.82 498.512C1540.25 507.745 1543.87 516.903 1547.5 526.062C1548.14 527.693 1548.79 529.324 1549.43 530.955C1552.33 538.269 1555.23 545.578 1558.15 552.879C1560.82 559.533 1563.45 566.201 1566.06 572.875C1567.02 575.32 1567.98 577.766 1568.94 580.211C1569.19 580.841 1569.44 581.471 1569.69 582.12C1572.62 589.583 1575.56 597.041 1578.5 604.5C1582.95 615.798 1587.4 627.099 1591.84 638.402C1595.66 648.14 1599.49 657.873 1603.33 667.606C1606.2 674.881 1609.06 682.157 1611.92 689.437C1616.65 701.5 1621.41 713.549 1626.23 725.575C1630.75 736.837 1635.17 748.133 1639.6 759.43C1641.47 764.21 1643.35 768.988 1645.23 773.767C1646.15 776.109 1647.07 778.452 1647.99 780.796C1650.21 786.458 1652.44 792.115 1654.69 797.766C1655.32 799.36 1655.32 799.36 1655.97 800.987C1656.76 802.987 1657.56 804.986 1658.36 806.984C1658.71 807.867 1659.06 808.75 1659.42 809.66C1659.73 810.43 1660.03 811.199 1660.35 811.992C1661 814 1661 814 1661 817C1595.33 817 1529.66 817 1462 817C1462.92 812.399 1464.32 809.188 1466.56 805.187C1467.3 803.839 1468.03 802.49 1468.77 801.141C1469.33 800.107 1469.33 800.107 1469.9 799.053C1471.6 795.879 1473.21 792.663 1474.81 789.437C1475.14 788.788 1475.46 788.138 1475.79 787.469C1476.86 785.313 1477.93 783.157 1479 781C1484.69 769.524 1490.43 758.087 1496.44 746.771C1499.67 740.664 1502.77 734.5 1505.82 728.297C1509.11 721.811 1512.58 715.417 1516 709C1391.59 709 1267.18 709 1139 709C1141.31 712.96 1143.62 716.92 1146 721C1147.3 723.505 1148.58 726.024 1149.81 728.562C1153.1 735.251 1156.53 741.858 1160.01 748.446C1162.32 752.805 1164.61 757.169 1166.88 761.547C1171.94 771.289 1177.05 780.995 1182.31 790.625C1182.81 791.538 1183.31 792.451 1183.82 793.391C1185.97 797.327 1188.14 801.254 1190.34 805.16C1190.68 805.767 1191.02 806.374 1191.37 806.999C1192.24 808.549 1193.11 810.093 1193.99 811.637C1195 814 1195 814 1194 817C1128.66 817 1063.32 817 996 817C994.886 812.541 995.224 811.64 996.887 807.539C997.324 806.444 997.762 805.348 998.213 804.22C998.943 802.44 998.943 802.44 999.688 800.625C1000.19 799.369 1000.7 798.113 1001.2 796.856C1002.26 794.221 1003.32 791.589 1004.39 788.959C1006.42 783.976 1008.41 778.981 1010.41 773.985C1011.4 771.514 1012.38 769.043 1013.37 766.573C1017.14 757.187 1020.86 747.785 1024.56 738.375C1024.83 737.684 1025.11 736.993 1025.39 736.281C1028.23 729.046 1031.08 721.809 1033.91 714.57C1038.2 703.638 1042.5 692.712 1046.88 681.812C1050.72 672.222 1054.53 662.615 1058.31 653C1058.59 652.307 1058.86 651.613 1059.14 650.899C1061.65 644.53 1064.15 638.161 1066.65 631.791C1068.29 627.631 1069.93 623.472 1071.56 619.312C1071.83 618.628 1072.1 617.943 1072.38 617.237C1076.7 606.251 1081.08 595.284 1085.47 584.325C1089.53 574.196 1093.53 564.043 1097.52 553.885C1101.24 544.405 1105.01 534.948 1108.93 525.549C1111 520.564 1112.94 515.538 1114.82 510.48C1118.08 501.732 1121.5 493.052 1124.94 484.375C1125.59 482.722 1126.25 481.069 1126.9 479.416C1127.91 476.852 1128.93 474.288 1129.94 471.724C1132.26 465.862 1134.58 459.998 1136.89 454.133C1142.58 439.699 1148.28 425.272 1154.06 410.875C1158.45 399.945 1162.74 388.982 1167 378C1172.74 363.18 1178.6 348.409 1184.53 333.662C1187.04 327.402 1189.56 321.139 1192.06 314.875C1192.31 314.251 1192.56 313.628 1192.82 312.986C1198.02 299.98 1203.14 286.941 1208.26 273.898C1222.65 237.182 1222.65 237.182 1230.04 219.348C1230.73 217.658 1231.4 215.96 1232.06 214.257C1232.41 213.356 1232.76 212.455 1233.12 211.527C1233.43 210.709 1233.75 209.89 1234.07 209.047C1235.93 204.947 1237.77 204.766 1242.03 204.718ZM1328 368C1327.7 368.841 1327.41 369.683 1327.1 370.55C1321.2 387.35 1315.25 404.132 1309.19 420.875C1304.72 433.224 1300.3 445.588 1296 458C1294.77 461.542 1293.54 465.084 1292.31 468.625C1291.99 469.566 1291.66 470.507 1291.32 471.477C1287.05 483.771 1282.7 496.042 1278.36 508.316C1276.54 513.461 1274.73 518.607 1272.91 523.754C1266.08 543.132 1259.2 562.49 1252.27 581.831C1244.74 602.837 1237.27 623.856 1230.04 644.967C1228.48 649.524 1226.9 654.076 1225.31 658.625C1225.04 659.411 1224.76 660.197 1224.48 661.006C1223.05 665.073 1221.59 669.125 1220.09 673.164C1219.77 674.017 1219.45 674.869 1219.12 675.747C1218.52 677.354 1217.92 678.958 1217.31 680.561C1215.52 685.324 1214.15 690.043 1213 695C1219.4 693.104 1225.77 691.136 1232.12 689.066C1233.38 688.656 1233.38 688.656 1234.67 688.237C1237.41 687.347 1240.14 686.455 1242.88 685.562C1244.3 685.099 1244.3 685.099 1245.75 684.627C1263.06 678.983 1280.34 673.249 1297.61 667.468C1302.07 665.978 1306.52 664.492 1310.97 663.008C1312.09 662.636 1312.09 662.636 1313.23 662.256C1316.24 661.254 1319.24 660.252 1322.25 659.249C1329.74 656.753 1337.24 654.257 1344.72 651.75C1362.66 645.746 1380.62 639.819 1398.62 634.008C1406.76 631.379 1414.89 628.726 1423 626C1422.43 622.071 1421.61 618.568 1420.18 614.867C1419.81 613.907 1419.45 612.946 1419.07 611.957C1418.67 610.94 1418.28 609.923 1417.88 608.875C1414.98 601.283 1412.14 593.683 1409.5 586C1406.95 578.619 1404.26 571.303 1401.5 564C1398.79 556.82 1396.13 549.63 1393.63 542.375C1389.88 531.532 1385.91 520.773 1381.94 510.008C1377.33 497.471 1372.78 484.908 1368.23 472.348C1360.2 450.224 1352.12 428.123 1343.94 406.057C1339.24 393.389 1334.6 380.702 1330 368C1329.34 368 1328.68 368 1328 368Z" fill="#D9D9D9"/>
<path d="M11.6873 -0.81226C12.4652 -0.895405 13.2432 -0.97855 14.0447 -1.06421C16.7067 -1.15524 18.508 -0.963229 20.9998 0.000239491C23.8225 2.72486 25.816 5.85113 27.8673 9.18179C29.0945 11.1524 30.3739 13.0809 31.667 15.0088C34.1512 18.7164 36.6038 22.4437 39.0454 26.1794C40.5607 28.4978 42.0797 30.8137 43.5994 33.1291C46.409 37.4134 49.2073 41.7048 51.9998 46.0002C52.3832 46.5887 52.7666 47.1772 53.1616 47.7834C54.1623 49.322 55.1574 50.8641 56.1521 52.4065C56.9544 53.6488 56.9544 53.6488 57.773 54.9163C60.3731 59.3331 60.1349 63.528 60.1133 68.4896C60.1134 69.3666 60.1136 70.2436 60.1137 71.1472C60.113 74.0974 60.1052 77.0476 60.0974 79.9978C60.0955 82.1083 60.094 84.2189 60.093 86.3294C60.0898 90.8802 60.0836 95.4309 60.0749 99.9817C60.0614 107.175 60.0555 114.368 60.0508 121.561C60.0387 138.131 60.0167 154.702 59.9946 171.273C59.9744 186.452 59.9563 201.631 59.9464 216.81C59.9414 223.963 59.9315 231.116 59.9179 238.269C59.9105 242.717 59.9071 247.165 59.905 251.613C59.9031 253.678 59.8995 255.744 59.894 257.809C59.8868 260.625 59.8858 263.441 59.8862 266.257C59.8827 267.077 59.8791 267.897 59.8754 268.742C59.8824 272.62 60.0488 276.231 60.9998 280C66.2971 275.624 71.0962 270.926 75.8631 265.977C77.9998 264 77.9998 264 79.9998 264C79.9998 263.34 79.9998 262.68 79.9998 262C83.4443 258.749 87.2725 255.92 90.9998 253C91.6532 252.484 92.3066 251.968 92.9798 251.436C101.967 244.351 110.976 237.575 121 232C121.752 231.58 122.504 231.16 123.28 230.728C159.513 210.703 198.195 200.746 239.625 200.813C240.678 200.814 240.678 200.814 241.752 200.815C252.943 200.841 263.931 201.263 275 203C275.841 203.129 276.681 203.258 277.548 203.391C307.121 208.048 335.626 216.666 362 231C362.726 231.387 363.452 231.773 364.2 232.172C374.265 237.533 383.815 243.217 393 250C393.534 250.392 394.068 250.783 394.619 251.187C401.901 256.547 408.689 262.282 415.281 268.469C417.579 270.608 419.916 272.66 422.312 274.688C426.283 278.156 429.636 281.947 433 286C433.455 286.532 433.91 287.064 434.379 287.613C442.826 297.491 450.046 307.794 456.748 318.926C457.788 320.649 458.85 322.358 459.918 324.063C478.441 354.334 490.714 389.832 496.619 424.773C496.995 426.971 497.408 429.158 497.828 431.348C506.387 477.983 502.892 527.52 495 574C494.838 574.976 494.675 575.952 494.508 576.957C486.761 622.572 468.996 668.287 442 706C441.262 707.031 440.525 708.063 439.765 709.125C418.224 738.459 391.888 764.12 360 782C359.205 782.447 358.411 782.894 357.593 783.355C282.876 824.919 187.545 828.321 105 812C103.876 811.78 102.753 811.56 101.595 811.333C69.153 804.843 27.7855 796.524 -0.000226974 778C-0.375658 775.71 -0.375658 775.71 -0.376274 772.778C-0.383785 771.662 -0.391295 770.546 -0.399034 769.396C-0.39201 768.156 -0.384987 766.917 -0.37775 765.641C-0.382111 764.329 -0.386471 763.017 -0.390964 761.665C-0.402727 757.995 -0.395614 754.325 -0.38563 750.655C-0.378061 746.673 -0.387783 742.692 -0.39536 738.71C-0.40623 731.722 -0.405845 724.734 -0.398218 717.745C-0.386908 707.354 -0.392653 696.963 -0.401843 686.572C-0.417672 668.017 -0.416258 649.462 -0.407606 630.907C-0.400071 614.67 -0.398084 598.432 -0.401674 582.195C-0.401903 581.12 -0.402132 580.044 -0.402369 578.936C-0.403303 574.572 -0.404258 570.207 -0.405248 565.842C-0.414433 524.862 -0.406092 483.883 -0.389957 442.904C-0.37572 406.464 -0.376993 370.024 -0.39134 333.584C-0.40739 292.682 -0.413782 251.779 -0.404504 210.877C-0.403542 206.52 -0.402603 202.162 -0.401674 197.805C-0.401437 196.732 -0.4012 195.66 -0.400955 194.554C-0.397537 178.324 -0.401545 162.093 -0.409113 145.863C-0.417672 127.415 -0.415587 108.968 -0.399271 90.5205C-0.390433 80.1851 -0.389929 69.8498 -0.401209 59.5145C-0.407904 52.6227 -0.403809 45.731 -0.390695 38.8393C-0.383514 34.9047 -0.381208 30.9702 -0.391912 27.0356C-0.403291 22.8102 -0.391794 18.5852 -0.37775 14.3598C-0.384774 13.1207 -0.391797 11.8815 -0.399034 10.6048C-0.391523 9.48853 -0.384012 8.37221 -0.376274 7.22207C-0.376071 6.2545 -0.375867 5.28693 -0.375658 4.29004C-0.251766 3.53441 -0.127874 2.77877 -0.000226974 2.00024C3.84744 -0.564873 7.20748 -0.627564 11.6873 -0.81226ZM122 292C120.346 293.147 118.693 294.293 117.039 295.438C99.3119 307.823 82.1374 323.069 69.0572 340.337C67.7311 342.054 66.3498 343.729 64.9064 345.348C58.3746 353.13 57.8654 359.997 58.0041 369.722C57.997 371.296 57.9864 372.871 57.9727 374.445C57.9452 378.745 57.9673 383.044 57.998 387.345C58.0223 391.992 58.0004 396.638 57.9843 401.285C57.9604 410.376 57.9791 419.467 58.0127 428.559C58.0504 439.145 58.047 449.731 58.0423 460.317C58.0354 479.199 58.0679 498.081 58.1216 516.964C58.1737 535.292 58.1949 553.621 58.1831 571.949C58.1703 591.912 58.1729 611.876 58.204 631.839C58.2056 632.894 58.2072 633.948 58.2089 635.035C58.2122 637.154 58.2155 639.273 58.2189 641.391C58.2297 648.774 58.2299 656.156 58.2266 663.539C58.223 672.528 58.2379 681.517 58.2762 690.505C58.2953 695.093 58.3064 699.681 58.2961 704.269C58.2869 708.465 58.3006 712.66 58.333 716.857C58.3407 718.378 58.3399 719.899 58.3299 721.42C58.3177 723.483 58.336 725.542 58.3622 727.604C58.3646 728.751 58.3671 729.898 58.3696 731.08C58.7611 734.199 58.7611 734.199 61.3995 736.341C63.8284 737.891 65.7573 738.81 68.5193 739.563C69.3678 739.8 70.2164 740.037 71.0906 740.282C71.9887 740.519 72.8869 740.756 73.8123 741C75.2233 741.386 75.2233 741.386 76.6629 741.779C79.4385 742.533 82.2184 743.268 84.9998 744C86.3527 744.366 87.7055 744.732 89.0584 745.098C131.872 756.288 174.974 759.748 219 756C219.895 755.929 220.791 755.858 221.713 755.785C240.404 754.275 259.021 750.253 277 745C277.766 744.783 278.532 744.565 279.322 744.341C290.489 741.166 301.376 737.724 312 733C312.854 732.623 313.709 732.245 314.59 731.856C351.446 715.39 380.982 690.471 402 656C402.967 654.422 402.967 654.422 403.953 652.813C444.477 584.285 459.136 501.307 440.181 423.647C438.309 416.374 436.223 409.174 434 402C433.762 401.226 433.524 400.451 433.279 399.653C425.928 376.194 414.509 353.802 400 334C399.605 333.454 399.21 332.908 398.803 332.346C384.114 312.212 365.367 295.749 344 283C342.714 282.18 342.714 282.18 341.402 281.344C322.98 269.944 301.721 262.67 280.625 258.188C279.65 257.981 278.676 257.773 277.672 257.56C265.618 255.139 253.643 254.792 241.375 254.813C240.316 254.814 240.316 254.814 239.235 254.816C197.904 254.934 155.479 267.139 122 292Z" fill="#D9D9D9"/>
<path d="M787.941 200.914C790.633 200.873 793.308 200.924 796 201C797.264 201.017 798.529 201.033 799.832 201.051C852.039 202.343 904.477 222.233 945 255C945.559 255.45 946.118 255.901 946.695 256.365C958.543 265.981 970.259 276.23 980 288C980.882 289.001 981.768 289.999 982.656 290.996C990.497 299.855 997.414 309.177 1004 319C1004.73 320.076 1004.73 320.076 1005.47 321.173C1018.4 340.482 1030.43 362.01 1037.94 384.062C1038.31 385.144 1038.31 385.144 1038.69 386.248C1039.21 387.755 1039.72 389.262 1040.23 390.77C1040.97 392.914 1041.73 395.047 1042.5 397.18C1049.24 416.143 1053.47 436.052 1056 456C1056.2 457.55 1056.2 457.55 1056.41 459.132C1062.11 503.727 1059.08 550.006 1050 594C1049.85 594.717 1049.71 595.434 1049.56 596.173C1041.19 636.769 1024.46 678.084 999 711C998.209 712.054 997.419 713.109 996.605 714.195C991.394 721.121 985.882 727.628 980 734C978.561 735.624 977.124 737.249 975.687 738.875C967.087 748.402 958.1 757.062 948 765C946.954 765.857 945.91 766.717 944.867 767.578C920.4 787.582 891.375 802.408 861 811C860.295 811.207 859.59 811.414 858.863 811.628C837.331 817.935 815.835 820.688 793.416 820.521C790 820.5 786.587 820.521 783.171 820.547C722.593 820.624 664.574 795.367 620 755C619.125 754.218 619.125 754.218 618.233 753.42C596.063 733.594 577.946 709.634 563 684C562.557 683.242 562.114 682.485 561.658 681.704C555.694 671.424 550.401 661.042 546 650C545.476 648.689 545.476 648.689 544.941 647.352C533.143 617.53 525.333 586.929 522 555C521.903 554.085 521.807 553.17 521.707 552.228C520.673 540.446 520.813 528.617 520.814 516.799C520.812 513.037 520.794 509.274 520.775 505.512C520.73 486.665 521.689 468.109 524.812 449.5C525.067 447.95 525.067 447.95 525.328 446.368C527.12 435.808 529.379 425.384 532 415C532.213 414.145 532.427 413.29 532.646 412.41C543.148 371.134 563.657 331.626 591 299C591.821 297.994 592.642 296.989 593.488 295.953C605.239 281.747 618.302 268.169 633 257C634.427 255.847 634.427 255.847 635.882 254.672C679.263 220.098 732.87 202.523 787.941 200.914ZM734 274C733.224 274.231 732.448 274.463 731.649 274.701C709.912 281.261 689.955 292.189 672 306C671.083 306.675 670.166 307.351 669.222 308.047C652.286 321.095 638.041 337.438 626 355C625.529 355.679 625.058 356.359 624.573 357.059C609.151 379.592 598.191 406.406 591.563 432.817C590.912 435.338 590.202 437.838 589.496 440.344C571.557 506.005 580.956 584.433 612.959 644.059C613.683 645.41 614.398 646.765 615.106 648.124C623.483 664.194 633.535 678.824 646 692C647.214 693.39 648.423 694.786 649.625 696.187C656.129 703.613 663.224 709.914 671 716C671.827 716.65 671.827 716.65 672.672 717.314C694.196 734.084 718.69 745.016 745 752C746.535 752.418 746.535 752.418 748.101 752.844C779.471 760.785 814.289 758.591 845 749C846.067 748.669 846.067 748.669 847.156 748.332C884.333 736.588 918.037 712.71 942 682C942.686 681.12 942.686 681.12 943.387 680.222C966.323 650.66 981.519 618.476 990 582C990.163 581.302 990.326 580.604 990.495 579.885C992.293 572.035 993.491 564.092 994.625 556.125C994.748 555.276 994.871 554.427 994.998 553.552C996.912 539.407 997.208 525.13 997.187 510.875C997.186 510.118 997.186 509.361 997.185 508.581C997.048 444.581 977.734 381.513 935 333C934.386 332.275 933.772 331.551 933.14 330.805C921.488 317.1 907.966 305.915 893 296C891.648 295.083 891.648 295.083 890.269 294.148C844.769 264.6 785.471 257.954 734 274Z" fill="#D9D9D9"/>
<path d="M1755.88 -0.187744C1757.08 -0.206113 1757.08 -0.206113 1758.31 -0.224854C1759.48 -0.227754 1759.48 -0.227754 1760.68 -0.230713C1761.74 -0.236876 1761.74 -0.236876 1762.83 -0.243164C1765 -0.000244141 1765 -0.000244141 1770 1.99976C1770 67.6698 1770 133.34 1770 201C1834.35 201 1898.7 201 1965 201C1965 218.82 1965 236.64 1965 255C1963.28 256.72 1961.09 256.122 1958.79 256.129C1957.67 256.124 1957.67 256.124 1956.51 256.12C1955.72 256.121 1954.93 256.122 1954.11 256.123C1951.43 256.124 1948.76 256.119 1946.08 256.113C1944.17 256.113 1942.25 256.113 1940.34 256.114C1935.14 256.114 1929.93 256.108 1924.72 256.101C1919.29 256.095 1913.86 256.094 1908.42 256.093C1898.12 256.09 1887.82 256.082 1877.52 256.072C1865.8 256.061 1854.08 256.055 1842.36 256.05C1818.24 256.04 1794.12 256.022 1770 256C1770.04 306.073 1770.09 356.146 1770.18 406.219C1770.19 412.15 1770.2 418.08 1770.21 424.011C1770.21 425.192 1770.21 426.372 1770.21 427.589C1770.24 446.627 1770.26 465.665 1770.27 484.704C1770.29 504.284 1770.31 523.863 1770.35 543.443C1770.38 555.495 1770.39 567.547 1770.39 579.599C1770.39 587.898 1770.41 596.197 1770.43 604.496C1770.45 609.262 1770.46 614.028 1770.45 618.794C1768.71 681.22 1768.71 681.22 1792.81 735.972C1801.81 744.491 1813.09 748.075 1824.95 750.566C1826.88 750.974 1828.8 751.423 1830.71 751.875C1883.49 763.009 1938.45 748.495 1987.93 730.583C1988.57 730.351 1989.21 730.119 1989.87 729.88C1991.66 729.231 1993.45 728.577 1995.24 727.922C1998 727 1998 727 2000 727C2000 747.79 2000 768.58 2000 790C1983.75 796.966 1983.75 796.966 1976.31 799.5C1975.47 799.79 1974.62 800.081 1973.75 800.38C1971.17 801.261 1968.58 802.131 1966 803C1965.23 803.263 1964.46 803.526 1963.67 803.797C1931 814.922 1897.52 820.375 1863.09 820.315C1859.27 820.312 1855.45 820.336 1851.63 820.361C1805.07 820.482 1761.42 807.429 1727 775C1726.39 774.439 1725.77 773.878 1725.14 773.301C1706.51 755.653 1695.59 729.419 1694 704C1693.86 697.929 1693.87 691.861 1693.88 685.789C1693.88 683.933 1693.88 682.076 1693.88 680.22C1693.87 675.134 1693.88 670.049 1693.88 664.964C1693.89 659.474 1693.89 653.984 1693.89 648.494C1693.89 638.987 1693.89 629.481 1693.89 619.975C1693.9 606.23 1693.9 592.486 1693.91 578.741C1693.91 556.44 1693.92 534.14 1693.92 511.839C1693.93 490.178 1693.94 468.517 1693.95 446.857C1693.95 446.189 1693.95 445.521 1693.95 444.832C1693.95 437.458 1693.95 430.084 1693.95 422.709C1693.96 367.139 1693.98 311.57 1694 256C1632.29 256 1570.58 256 1507 256C1508.16 251.352 1509.35 250.414 1512.88 247.312C1513.37 246.874 1513.86 246.436 1514.37 245.985C1518.48 242.369 1522.75 238.945 1527.02 235.515C1531.3 231.901 1535.36 228.052 1539.41 224.165C1543.79 220 1543.79 220 1546 220C1546 219.34 1546 218.68 1546 218C1547.59 216.564 1549.25 215.201 1550.94 213.875C1551.85 213.15 1552.77 212.426 1553.71 211.679C1554.23 211.277 1554.75 210.874 1555.29 210.459C1557.09 208.982 1557.09 208.982 1558.84 207.02C1562.93 202.808 1565.95 200.494 1571.9 200.038C1574.16 200.015 1576.42 200.035 1578.68 200.092C1579.92 200.09 1581.16 200.089 1582.44 200.088C1585.81 200.093 1589.18 200.132 1592.56 200.189C1596.09 200.239 1599.63 200.243 1603.16 200.253C1609.85 200.278 1616.53 200.343 1623.21 200.424C1630.82 200.513 1638.44 200.557 1646.05 200.597C1661.7 200.681 1677.35 200.821 1693 201C1692.99 200.27 1692.99 199.541 1692.98 198.789C1692.83 181.019 1692.71 163.25 1692.64 145.48C1692.6 136.886 1692.55 128.293 1692.47 119.699C1692.4 112.208 1692.36 104.716 1692.34 97.2242C1692.33 93.2586 1692.31 89.2939 1692.26 85.3286C1692.21 81.5921 1692.2 77.8568 1692.21 74.12C1692.21 72.1032 1692.17 70.0865 1692.13 68.0701C1692.18 62.0387 1692.33 57.9919 1696.37 53.3179C1697.56 52.1885 1698.77 51.0803 1700 49.9998C1700.96 48.9696 1701.91 47.9285 1702.84 46.8748C1703.72 45.926 1704.6 44.9773 1705.5 43.9998C1709.14 40.0448 1712.74 36.0541 1716.26 31.9919C1718.32 29.6395 1720.41 27.3194 1722.5 24.9998C1725.17 22.0411 1727.82 19.0705 1730.44 16.0623C1731.62 14.7068 1732.81 13.3528 1734 11.9998C1734.84 11.0407 1735.68 10.0816 1736.55 9.09351C1737.45 8.08259 1738.35 7.07218 1739.25 6.06226C1740.08 5.12511 1740.91 4.18796 1741.77 3.22241C1745.88 -0.87107 1750.43 -0.183419 1755.88 -0.187744Z" fill="#D9D9D9"/>
</g>
<defs>
<clipPath id="clip0_39_193">
<rect width="2000" height="820" fill="white"/>
</clipPath>
</defs>
</svg>
