<svg width="2000" height="250" viewBox="0 0 2000 250" fill="none" xmlns="http://www.w3.org/2000/svg">
<g clip-path="url(#clip0_39_194)">
<path d="M378 0.000211954C415.759 -0.0914038 453.518 -0.161857 491.278 -0.204049C495.738 -0.209052 500.199 -0.214229 504.66 -0.219515C505.548 -0.220564 506.436 -0.221613 507.351 -0.222694C521.718 -0.240085 536.085 -0.271616 550.452 -0.308399C565.201 -0.345845 579.95 -0.368032 594.699 -0.376142C603.795 -0.381622 612.891 -0.398912 621.987 -0.431454C628.23 -0.452647 634.473 -0.458977 640.717 -0.453794C644.315 -0.451239 647.913 -0.455071 651.512 -0.47661C655.422 -0.499846 659.333 -0.491698 663.244 -0.480806C664.368 -0.492457 665.493 -0.504109 666.651 -0.516113C677.673 -0.433456 687.24 2.10615 695.219 9.92599C699.103 14.4487 700.566 18.8527 700.277 24.938C699.044 34.1152 693.918 42.1905 689.562 50.1877C688.843 51.5212 688.123 52.8551 687.405 54.1892C685.612 57.5118 683.811 60.8296 682.007 64.146C680.508 66.906 679.016 69.6701 677.523 72.4338C675.106 76.9031 672.662 81.3576 670.203 85.8044C669.145 87.7356 668.114 89.6778 667.094 91.6291C658.128 108.186 642.815 118.599 625 124C624.01 124 623.02 124 622 124C622.471 124.678 622.941 125.356 623.426 126.055C628.764 134.035 633.215 142.11 632 152C629.59 160.142 625.846 167.359 621.625 174.688C621.016 175.76 620.407 176.832 619.779 177.937C617.864 181.298 615.934 184.65 614 188C613.064 189.625 613.064 189.625 612.109 191.282C608.6 197.363 605.063 203.426 601.492 209.471C600.196 211.668 598.91 213.871 597.625 216.074C586.146 235.379 571.271 244.072 549.948 249.525C545.899 250.178 541.936 250.136 537.842 250.123C536.448 250.125 536.448 250.125 535.026 250.127C531.895 250.129 528.764 250.125 525.633 250.12C523.372 250.121 521.111 250.122 518.851 250.123C512.625 250.125 506.4 250.121 500.175 250.116C494.155 250.112 488.135 250.113 482.115 250.114C469.8 250.115 457.485 250.112 445.169 250.106C432.973 250.1 420.778 250.096 408.582 250.095C407.824 250.095 407.066 250.095 406.285 250.095C402.436 250.095 398.586 250.094 394.737 250.094C367.464 250.092 340.192 250.085 312.919 250.076C286.422 250.066 259.926 250.059 233.429 250.055C232.612 250.055 231.796 250.055 230.954 250.055C222.754 250.053 214.554 250.052 206.353 250.051C189.647 250.048 172.942 250.046 156.236 250.043C155.084 250.042 155.084 250.042 153.909 250.042C102.606 250.033 51.3028 250.017 0 250C0 236.8 0 223.6 0 210C87.12 210 174.24 210 264 210C264.66 208.02 265.32 206.04 266 204C267.032 201.947 268.116 199.919 269.238 197.914C269.555 197.344 269.872 196.775 270.199 196.187C271.232 194.331 272.272 192.478 273.312 190.625C274.776 188.001 276.235 185.376 277.695 182.75C278.062 182.092 278.428 181.434 278.806 180.756C282.154 174.742 285.427 168.688 288.688 162.625C293.453 153.779 298.364 145.023 303.337 136.292C307.097 129.664 310.684 122.965 314.192 116.202C318.012 108.882 322.095 101.719 326.184 94.5471C329.57 88.5869 332.844 82.5851 336 76.5002C339.56 69.6403 343.291 62.8985 347.125 56.1877C353.05 45.8106 358.696 35.2988 364.268 24.7295C364.589 24.1225 364.91 23.5154 365.241 22.89C366.106 21.2539 366.968 19.6163 367.829 17.9785C369.86 14.1959 372.002 10.4767 374.136 6.75157C374.507 6.10178 374.879 5.452 375.262 4.78252C376.174 3.18822 377.087 1.59419 378 0.000211954ZM503 45.0002C496.081 57.6359 489.196 70.2875 482.459 83.0215C481.276 85.2573 480.088 87.4911 478.9 89.7248C478.138 91.1642 477.375 92.6036 476.613 94.0432C476.262 94.7024 475.911 95.3616 475.55 96.0408C474.161 98.6737 472.944 101.17 472 104C481.215 104.093 490.43 104.164 499.645 104.207C503.925 104.228 508.204 104.256 512.484 104.302C516.621 104.346 520.757 104.369 524.894 104.38C526.466 104.387 528.037 104.401 529.609 104.423C541.463 104.58 550.311 103.013 560.113 95.9533C566.086 89.7705 569.797 81.1284 573.812 73.6252C574.41 72.5527 575.007 71.4802 575.623 70.3752C579.015 64.0015 581.588 58.315 580 51.0002C577.473 47.654 575.961 46.3204 572 45.0002C569.777 44.9105 567.551 44.8826 565.325 44.8867C564.652 44.8865 563.979 44.8864 563.285 44.8862C561.061 44.8869 558.837 44.8947 556.613 44.9026C555.071 44.9044 553.528 44.9058 551.985 44.9068C547.926 44.9107 543.867 44.9205 539.808 44.9315C535.666 44.9418 531.523 44.9463 527.381 44.9514C519.254 44.9621 511.127 44.9792 503 45.0002ZM446 149C440.533 158.767 435.11 168.541 430 178.5C425.805 186.623 421.484 194.657 416.945 202.594C414.766 206.077 414.766 206.077 414 210C422.954 210.07 431.908 210.123 440.862 210.156C445.021 210.171 449.18 210.192 453.338 210.227C457.358 210.259 461.378 210.277 465.398 210.285C466.925 210.29 468.452 210.301 469.979 210.317C481.338 210.434 491.614 210.325 500.195 202.106C503.481 198.273 505.722 193.982 508 189.5C508.508 188.532 509.015 187.564 509.538 186.566C510.557 184.623 511.57 182.676 512.577 180.726C513.851 178.285 515.165 175.875 516.512 173.473C516.884 172.804 517.256 172.135 517.639 171.446C518.615 169.693 519.594 167.942 520.574 166.192C522.13 162.708 522.746 159.799 523 156C521.809 153.18 520.869 151.58 518.317 149.878C515.17 148.686 512.484 148.761 509.12 148.773C508.437 148.773 507.753 148.773 507.049 148.772C504.798 148.774 502.548 148.789 500.297 148.805C498.733 148.809 497.169 148.811 495.606 148.813C491.496 148.821 487.386 148.841 483.276 148.863C479.08 148.883 474.884 148.892 470.688 148.903C462.458 148.924 454.229 148.958 446 149Z" fill="#D9D9D9"/>
<path d="M815.254 -0.549207C817.917 -0.557911 820.579 -0.568153 823.241 -0.580182C829.697 -0.605561 836.153 -0.609278 842.609 -0.604582C847.859 -0.601003 853.109 -0.60454 858.36 -0.613031C859.109 -0.614221 859.859 -0.615411 860.632 -0.616638C862.155 -0.619061 863.678 -0.62149 865.202 -0.623923C879.456 -0.645628 893.711 -0.641369 907.966 -0.629153C920.987 -0.61881 934.008 -0.641345 947.029 -0.679349C960.427 -0.718151 973.825 -0.734611 987.223 -0.727103C994.734 -0.723287 1002.24 -0.728178 1009.76 -0.756532C1016.15 -0.780419 1022.54 -0.783103 1028.93 -0.758952C1032.19 -0.747216 1035.44 -0.748141 1038.7 -0.768956C1064.58 -0.922411 1064.58 -0.922411 1073 6.00011C1076.92 10.2704 1078.81 14.738 1079.12 20.5431C1078.57 31.7707 1073.2 41.3224 1068 51.0001C1067.51 51.9144 1067.02 52.8286 1066.52 53.7706C1060.72 64.6135 1054.81 75.3956 1048.81 86.1324C1045.32 92.3929 1041.91 98.6938 1038.5 105C1034.76 111.915 1031.01 118.822 1027.19 125.688C1026.8 126.384 1026.41 127.081 1026.01 127.799C1025.6 128.529 1025.2 129.259 1024.78 130.012C1021.25 136.334 1017.75 142.665 1014.25 149C1013.91 149.618 1013.57 150.237 1013.21 150.874C1008.3 159.783 1003.44 168.721 998.625 177.688C996.418 181.792 994.209 185.896 992 190C991.528 190.878 991.057 191.756 990.571 192.661C976.792 218.242 960.785 239.815 932 249C929.005 249.873 926.343 250.128 923.225 250.137C922.262 250.142 921.299 250.147 920.307 250.152C919.251 250.153 918.196 250.153 917.108 250.154C915.423 250.161 915.423 250.161 913.704 250.167C909.926 250.181 906.147 250.187 902.369 250.193C899.665 250.2 896.962 250.209 894.258 250.218C886.135 250.242 878.012 250.257 869.889 250.27C867.594 250.274 865.299 250.278 863.004 250.282C848.747 250.307 834.489 250.329 820.232 250.341C816.931 250.344 813.629 250.347 810.328 250.35C809.507 250.351 808.687 250.352 807.841 250.352C794.553 250.365 781.265 250.398 767.977 250.44C754.328 250.482 740.68 250.506 727.031 250.511C719.371 250.515 711.71 250.526 704.049 250.559C697.524 250.587 690.999 250.598 684.474 250.587C681.147 250.582 677.821 250.587 674.494 250.61C670.88 250.632 667.268 250.624 663.654 250.608C662.612 250.622 661.57 250.636 660.496 250.65C652.829 250.567 646.091 248.751 640.311 243.451C635.707 238.168 635.573 233.301 635.684 226.563C636.773 214.295 644.528 203.52 650.535 193.102C653.854 187.315 656.953 181.433 660 175.5C663.903 167.923 667.952 160.459 672.188 153.063C677.497 143.782 682.567 134.39 687.563 124.938C687.927 124.249 688.291 123.56 688.666 122.851C689.028 122.165 689.39 121.48 689.764 120.774C690.484 119.41 691.205 118.047 691.926 116.684C692.277 116.02 692.628 115.355 692.99 114.671C696.962 107.169 701.032 99.7209 705.113 92.2775C707.697 87.5651 710.249 82.8363 712.797 78.1048C715.517 73.062 718.257 68.0302 721 63.0001C721.831 61.4716 721.831 61.4716 722.678 59.9122C735.683 36.0627 750.167 15.0685 776 4.00011C777.193 3.4708 777.193 3.4708 778.409 2.9308C790.26 -1.50069 802.79 -0.576144 815.254 -0.549207ZM866 58.0001C863.731 61.6096 861.757 65.3331 859.813 69.1251C858.683 71.268 857.551 73.4099 856.418 75.5509C855.85 76.6293 855.282 77.7078 854.697 78.819C852.093 83.7001 849.365 88.5071 846.625 93.3126C839.973 105.018 833.435 116.785 826.907 128.561C823.157 135.323 819.4 142.082 815.643 148.841C812.754 154.041 809.865 159.242 806.983 164.446C805.645 166.863 804.305 169.28 802.965 171.696C802.038 173.37 801.112 175.044 800.186 176.719C799.609 177.759 799.032 178.799 798.438 179.871C797.878 180.883 797.319 181.895 796.742 182.937C795.535 185.06 794.287 187.159 793.008 189.239C792.366 190.285 791.724 191.332 791.063 192.41C790.183 193.806 790.183 193.806 789.285 195.231C787.804 198.422 787.645 200.52 788 204C790.486 207.729 793.315 208.596 797.574 209.594C802.278 210.381 806.992 210.339 811.75 210.313C812.816 210.307 813.882 210.301 814.981 210.296C824.584 210.147 834.402 209.731 842.018 203.163C844.44 200.52 846.015 197.761 847.758 194.629C848.103 194.012 848.448 193.396 848.804 192.761C849.876 190.844 850.938 188.922 852 187C852.634 185.865 853.267 184.729 853.92 183.559C855.831 180.128 857.73 176.69 859.625 173.25C859.966 172.633 860.306 172.015 860.657 171.379C866.152 161.418 871.554 151.41 876.925 141.381C880.649 134.449 884.474 127.584 888.375 120.75C893.84 111.174 899.054 101.479 904.22 91.7407C909.052 82.6319 913.944 73.5619 918.984 64.5665C919.317 63.9731 919.649 63.3798 919.991 62.7684C920.694 61.5375 921.412 60.3155 922.142 59.1009C924.505 55.1388 925.454 52.6507 925 48.0001C920.175 45.1288 916.104 44.5451 910.602 44.5665C909.808 44.5613 909.014 44.556 908.196 44.5506C906.524 44.5442 904.851 44.5455 903.179 44.5541C900.639 44.5626 898.102 44.5338 895.563 44.5021C893.93 44.5005 892.297 44.501 890.664 44.504C889.915 44.4928 889.166 44.4815 888.394 44.47C878.113 44.6038 871.909 49.9976 866 58.0001Z" fill="#D9D9D9"/>
<path d="M1180.26 -0.267655C1181.36 -0.272186 1182.46 -0.276717 1183.6 -0.281386C1187.28 -0.294001 1190.95 -0.292411 1194.63 -0.290757C1197.28 -0.296744 1199.92 -0.303494 1202.56 -0.311112C1208.99 -0.327678 1215.41 -0.33322 1221.84 -0.334337C1227.06 -0.335289 1232.29 -0.339409 1237.51 -0.345738C1252.35 -0.363337 1267.18 -0.372579 1282.01 -0.371077C1282.81 -0.370997 1283.61 -0.370917 1284.43 -0.370835C1285.23 -0.370753 1286.03 -0.370671 1286.85 -0.370587C1299.81 -0.369774 1312.77 -0.388918 1325.73 -0.417112C1339.05 -0.445869 1352.37 -0.45965 1365.69 -0.457924C1373.16 -0.457261 1380.64 -0.462706 1388.11 -0.48428C1394.47 -0.50253 1400.83 -0.506808 1407.19 -0.493261C1410.43 -0.486751 1413.68 -0.488736 1416.92 -0.503968C1420.44 -0.519446 1423.96 -0.510094 1427.49 -0.494706C1428.5 -0.504993 1429.51 -0.51528 1430.56 -0.525879C1438.08 -0.453546 1446.25 0.620321 1452.04 5.83768C1455.38 9.59988 1457.16 12.4171 1457.31 17.4998C1457.35 18.2938 1457.39 19.0879 1457.43 19.906C1456.17 29.0325 1450.89 37.4231 1446.67 45.4851C1445.69 47.362 1444.72 49.243 1443.75 51.1248C1440.18 57.9998 1440.18 57.9998 1439.12 59.8883C1437.9 62.1032 1437.9 62.1032 1436.77 64.9544C1435.15 68.4386 1433.59 71.1424 1431 73.9998C1426.19 75.7296 1421.48 75.5239 1416.44 75.3621C1414.96 75.3587 1413.48 75.3606 1412 75.3674C1408 75.3708 1404 75.3004 1400 75.2165C1395.82 75.1413 1391.63 75.1344 1387.44 75.1202C1379.52 75.0829 1371.61 74.9845 1363.69 74.864C1354.67 74.7297 1345.65 74.6639 1336.63 74.6037C1318.09 74.4783 1299.54 74.2674 1281 73.9998C1281.73 70.863 1282.74 68.4107 1284.32 65.5935C1284.77 64.7672 1285.22 63.9409 1285.69 63.0896C1286.65 61.3597 1287.61 59.6332 1288.58 57.9099C1289.03 57.0836 1289.48 56.2573 1289.95 55.406C1290.36 54.6564 1290.78 53.9068 1291.21 53.1345C1292.14 50.6084 1292.04 49.4618 1291 46.9998C1287.68 45.3413 1284.02 45.7731 1280.37 45.7498C1279.2 45.7188 1279.2 45.7188 1278 45.6873C1268.89 45.6268 1262.88 48.2342 1256.21 54.4973C1252.01 59.2479 1249.12 64.7558 1246.12 70.3123C1245.16 72.0534 1244.2 73.7945 1243.23 75.5345C1242.27 77.2697 1241.32 79.0084 1240.37 80.7472C1237.72 85.5301 1234.98 90.2552 1232.23 94.981C1231.73 95.8524 1231.22 96.7239 1230.7 97.6218C1229.47 99.7482 1228.23 101.874 1227 104C1227.75 104.001 1228.5 104.003 1229.27 104.004C1247.59 104.041 1265.9 104.1 1284.22 104.184C1293.07 104.223 1301.93 104.256 1310.79 104.271C1318.51 104.284 1326.24 104.311 1333.96 104.354C1338.05 104.377 1342.13 104.393 1346.22 104.392C1350.07 104.391 1353.93 104.409 1357.78 104.441C1359.19 104.449 1360.59 104.451 1362 104.446C1372.5 104.409 1383.42 105.262 1392.12 111.75C1396.07 115.671 1397.88 119.831 1398.09 125.383C1397.45 135.849 1392.23 144.752 1387.06 153.625C1385.9 155.651 1384.74 157.678 1383.58 159.707C1382.99 160.743 1382.39 161.779 1381.78 162.846C1378.89 167.964 1376.1 173.136 1373.31 178.312C1372.23 180.316 1371.15 182.32 1370.07 184.324C1369.55 185.281 1369.03 186.238 1368.5 187.224C1339.91 240.108 1339.91 240.108 1310.52 249.06C1305.25 250.335 1300.07 250.283 1294.67 250.267C1293.55 250.272 1292.43 250.276 1291.27 250.281C1287.52 250.294 1283.77 250.292 1280.02 250.29C1277.33 250.296 1274.64 250.303 1271.94 250.311C1265.39 250.327 1258.85 250.333 1252.3 250.334C1246.97 250.335 1241.64 250.339 1236.32 250.345C1221.2 250.363 1206.09 250.372 1190.97 250.371C1190.16 250.371 1189.35 250.37 1188.51 250.37C1187.69 250.37 1186.88 250.37 1186.04 250.37C1172.83 250.369 1159.63 250.388 1146.42 250.417C1132.84 250.445 1119.27 250.459 1105.69 250.457C1098.08 250.457 1090.46 250.462 1082.85 250.484C1076.36 250.502 1069.88 250.506 1063.4 250.493C1060.09 250.486 1056.79 250.488 1053.48 250.504C1049.89 250.519 1046.3 250.51 1042.71 250.494C1041.68 250.505 1040.64 250.515 1039.58 250.525C1031.35 250.448 1023.27 248.697 1016.5 243.75C1012.34 239.175 1010.69 234.705 1010.81 228.5C1011.97 220.671 1016.24 213.834 1020 207C1020.85 205.448 1020.85 205.448 1021.72 203.865C1024.79 198.262 1027.89 192.672 1031.02 187.101C1031.81 185.699 1031.81 185.699 1032.61 184.268C1034 182 1034 182 1036 180C1038.56 179.754 1038.56 179.754 1041.86 179.759C1043.11 179.757 1044.35 179.754 1045.64 179.751C1047.03 179.758 1048.42 179.765 1049.81 179.773C1051.27 179.773 1052.73 179.773 1054.19 179.772C1058.15 179.771 1062.12 179.783 1066.09 179.797C1070.23 179.809 1074.37 179.811 1078.52 179.813C1086.36 179.819 1094.21 179.836 1102.06 179.856C1110.99 179.878 1119.93 179.889 1128.86 179.899C1147.24 179.92 1165.62 179.955 1184 180C1183.3 184.003 1182.22 186.497 1179.94 189.875C1177.17 194.281 1176.33 196.868 1177 202C1181.53 204.577 1185.58 204.367 1190.69 204.375C1191.55 204.399 1192.41 204.424 1193.29 204.449C1199.51 204.477 1204.7 203.386 1210 200C1215.87 193.637 1219.37 184.725 1223.33 177.086C1226.34 171.301 1229.53 165.619 1232.78 159.963C1233.17 159.267 1233.56 158.572 1233.97 157.855C1234.49 156.953 1234.49 156.953 1235.01 156.032C1236.27 153.433 1237.1 150.743 1238 148C1237.26 148.003 1236.51 148.005 1235.75 148.008C1217.63 148.074 1199.52 148.124 1181.41 148.155C1172.65 148.171 1163.89 148.192 1155.13 148.226C1147.49 148.256 1139.86 148.275 1132.22 148.282C1128.18 148.286 1124.14 148.295 1120.1 148.317C1116.29 148.337 1112.48 148.344 1108.67 148.339C1107.27 148.34 1105.88 148.346 1104.49 148.357C1094.01 148.44 1084.43 147.826 1076 141C1071.1 135.687 1069.48 131.069 1069.7 123.918C1070.67 114.45 1075.35 105.856 1079.94 97.6873C1080.51 96.6553 1081.08 95.6233 1081.66 94.5601C1083.43 91.3663 1085.21 88.1817 1087 84.9998C1087.54 84.0301 1088.09 83.0604 1088.65 82.0613C1091.31 77.3277 1093.98 72.6036 1096.67 67.8865C1099.01 63.7649 1101.31 59.6198 1103.58 55.4568C1117.09 30.7368 1131.74 10.7217 1160 1.99977C1166.8 0.106683 1173.22 -0.289091 1180.26 -0.267655Z" fill="#D9D9D9"/>
<path d="M1518.36 -0.130859C1519.14 -0.128232 1519.91 -0.125605 1520.71 -0.122899C1521.53 -0.124053 1522.36 -0.125206 1523.2 -0.126395C1525.99 -0.129069 1528.78 -0.124533 1531.57 -0.120105C1533.58 -0.120541 1535.58 -0.121416 1537.59 -0.122695C1543.13 -0.124943 1548.67 -0.120914 1554.2 -0.115917C1560.17 -0.111617 1566.13 -0.113058 1572.09 -0.113819C1582.43 -0.114344 1592.77 -0.111229 1603.11 -0.105581C1613.96 -0.0996704 1624.81 -0.0958163 1635.66 -0.0947281C1636.67 -0.094625 1636.67 -0.094625 1637.7 -0.0945198C1641.12 -0.0941815 1644.54 -0.0938801 1647.96 -0.093593C1672.21 -0.0914908 1696.46 -0.0847484 1720.72 -0.0752904C1744.28 -0.0661107 1767.85 -0.0590248 1791.41 -0.0547825C1792.5 -0.0545853 1792.5 -0.0545853 1793.61 -0.054384C1800.9 -0.0530655 1808.19 -0.0517897 1815.48 -0.0505451C1830.34 -0.0480087 1845.19 -0.0451874 1860.04 -0.042194C1861.07 -0.0419881 1861.07 -0.0419881 1862.11 -0.041778C1907.74 -0.0325724 1953.37 -0.0164988 1999 0.000149101C1999 14.1901 1999 28.3801 1999 43.0001C1879.87 43.3301 1760.74 43.6601 1638 44.0001C1633.71 51.9201 1629.42 59.8402 1625 68.0002C1622.72 72.0733 1620.44 76.1391 1618.12 80.1877C1613.62 88.0639 1609.3 96.0084 1605 104C1667.04 104.33 1729.08 104.66 1793 105C1791.48 109.573 1790.04 113.015 1787.73 117.141C1787.42 117.708 1787.1 118.275 1786.78 118.859C1786.11 120.054 1785.44 121.247 1784.77 122.439C1783.76 124.229 1782.76 126.022 1781.76 127.817C1778.14 134.302 1778.14 134.302 1777.03 136.117C1775.91 138.049 1775.91 138.049 1775.12 140.488C1773.77 143.683 1772.56 145.636 1770 148C1764.02 149.55 1758.11 149.324 1751.97 149.227C1750.11 149.234 1748.24 149.246 1746.38 149.261C1741.33 149.291 1736.28 149.259 1731.23 149.216C1725.95 149.182 1720.66 149.204 1715.38 149.22C1705.39 149.242 1695.39 149.213 1685.39 149.166C1674.01 149.115 1662.62 149.12 1651.24 149.13C1627.83 149.15 1604.41 149.098 1581 149C1580.61 149.723 1580.23 150.445 1579.83 151.189C1578.35 153.935 1576.88 156.681 1575.4 159.425C1574.47 161.171 1573.53 162.918 1572.59 164.665C1567.99 173.226 1563.27 181.711 1558.45 190.155C1554.89 196.4 1551.44 202.686 1548 209C1609.71 209.33 1671.42 209.66 1735 210C1734.02 213.917 1732.7 216.694 1730.8 220.235C1730.48 220.831 1730.16 221.428 1729.83 222.043C1729.15 223.305 1728.47 224.566 1727.79 225.825C1726.76 227.727 1725.74 229.633 1724.72 231.539C1722.84 235.041 1720.96 238.538 1719 242C1718.6 243.015 1718.6 243.015 1718.19 244.05C1717.05 246.528 1716.01 248.14 1714 250C1709.55 251.221 1705.16 251.044 1700.57 250.962C1699.17 250.966 1697.77 250.973 1696.37 250.983C1692.53 251.001 1688.69 250.969 1684.84 250.929C1680.7 250.894 1676.56 250.906 1672.41 250.912C1665.23 250.916 1658.05 250.891 1650.88 250.846C1640.5 250.781 1630.12 250.76 1619.74 250.75C1602.89 250.733 1586.05 250.679 1569.21 250.604C1552.85 250.53 1536.49 250.474 1520.13 250.44C1519.13 250.438 1518.12 250.435 1517.08 250.433C1512.02 250.423 1506.96 250.413 1501.9 250.403C1459.94 250.32 1417.97 250.179 1376 250C1377.26 247.456 1378.53 244.913 1379.8 242.371C1380.15 241.657 1380.5 240.944 1380.87 240.208C1383.84 234.25 1387.04 228.451 1390.38 222.688C1394.38 215.687 1398.29 208.66 1402 201.5C1405.56 194.64 1409.29 187.899 1413.13 181.188C1418.31 172.104 1423.29 162.926 1428.19 153.688C1433.55 143.58 1438.99 133.525 1444.58 123.543C1447.65 118.038 1450.7 112.519 1453.75 107C1454.09 106.381 1454.43 105.762 1454.79 105.125C1460.3 95.1294 1465.74 85.0911 1471.14 75.0307C1475.11 67.6343 1479.15 60.2791 1483.24 52.9494C1486.5 47.1168 1489.72 41.265 1492.94 35.4147C1495.34 31.0772 1497.73 26.7409 1500.12 22.4044C1501.31 20.2548 1502.49 18.1051 1503.68 15.9552C1505.1 13.3859 1506.52 10.8178 1507.94 8.25015C1508.34 7.51216 1508.75 6.77417 1509.17 6.01382C1512.57 -0.112232 1512.57 -0.112232 1518.36 -0.130859Z" fill="#D9D9D9"/>
<path d="M1987.81 55.1875C1993.98 59.9949 1999.13 68.3997 2000.33 76.1475C2001.24 88.1928 1999.79 97.2343 1992.43 107.105C1986.46 113.87 1978.32 117.015 1969.5 118C1959.24 118.401 1950.89 115.55 1943 109C1935.76 102.264 1932.16 93.605 1931.75 83.8125C1931.89 74.238 1935.55 65.8938 1941.94 58.8672C1954.91 46.3131 1972.75 45.6927 1987.81 55.1875ZM1946.18 69.1211C1942.03 75.7097 1940.76 82.4618 1942.47 90.1016C1944.68 96.919 1948.74 102.07 1955.12 105.375C1962.11 108.601 1968.78 109.015 1976.06 106.5C1982.72 103.592 1987.07 98.7034 1989.94 92.0625C1992.22 84.7293 1991.42 78.3379 1988.32 71.3633C1985.1 65.6007 1980.6 61.3969 1974.23 59.4414C1963.17 57.2489 1953.19 59.9274 1946.18 69.1211Z" fill="#D9D9D9"/>
<path d="M1954 67.0001C1957.03 66.9588 1960.06 66.9176 1963.19 66.8751C1964.13 66.8569 1965.08 66.8387 1966.06 66.8199C1971.39 66.7848 1975.66 66.9004 1979.81 70.6251C1981.54 74.0724 1981.48 77.2134 1981 81.0001C1979.94 83.3751 1979.94 83.3751 1979 85.0001C1979.33 85.6601 1979.66 86.3201 1980 87.0001C1980.23 89.2044 1980.41 91.414 1980.56 93.6251C1980.69 95.4079 1980.69 95.4079 1980.82 97.2266C1980.88 98.1419 1980.94 99.0571 1981 100C1978.36 100 1975.72 100 1973 100C1972.66 98.3756 1972.33 96.7505 1972 95.1251C1971.81 94.2202 1971.63 93.3152 1971.44 92.3829C1971 90.0001 1971 90.0001 1971 88.0001C1968.03 88.0001 1965.06 88.0001 1962 88.0001C1962 91.9601 1962 95.9201 1962 100C1959.36 100 1956.72 100 1954 100C1954 89.1101 1954 78.2201 1954 67.0001ZM1962 74.0001C1962 76.3101 1962 78.6201 1962 81.0001C1965.3 81.0001 1968.6 81.0001 1972 81.0001C1972.68 78.6029 1972.68 78.6029 1973 76.0001C1971.21 73.7864 1971.21 73.7864 1968.84 73.8048C1968.02 73.828 1967.21 73.8512 1966.38 73.8751C1965.15 73.9022 1965.15 73.9022 1963.9 73.9298C1962.96 73.9646 1962.96 73.9646 1962 74.0001Z" fill="#D9D9D9"/>
</g>
<defs>
<clipPath id="clip0_39_194">
<rect width="2000" height="250" fill="white"/>
</clipPath>
</defs>
</svg>
