<svg width="2000" height="1110" viewBox="0 0 2000 1110" fill="none" xmlns="http://www.w3.org/2000/svg">
<path d="M784 0C1214.35 0 1214.35 0 1267 49C1267.72 49.651 1268.43 50.302 1269.17 50.9727C1292.17 72.7562 1307.42 103.243 1314.81 133.75C1315.01 134.552 1315.2 135.354 1315.4 136.18C1318.83 151.196 1319.29 165.834 1319.27 181.163C1319.28 183.363 1319.28 185.562 1319.29 187.762C1319.3 193.696 1319.3 199.63 1319.3 205.564C1319.3 210.536 1319.31 215.509 1319.31 220.481C1319.32 232.89 1319.32 245.299 1319.31 257.709C1319.31 268.443 1319.32 279.177 1319.34 289.911C1319.36 300.979 1319.37 312.047 1319.36 323.115C1319.36 329.31 1319.36 335.506 1319.38 341.701C1319.39 347.531 1319.39 353.361 1319.38 359.192C1319.37 361.318 1319.38 363.443 1319.38 365.569C1319.44 381.946 1318.37 397.837 1312.94 413.438C1312.64 414.305 1312.34 415.173 1312.03 416.067C1304.4 437.378 1291.57 454.824 1276 471C1275.38 471.679 1274.77 472.359 1274.13 473.059C1262.01 486.015 1246.27 495.298 1231 504C1231.75 504.384 1231.75 504.384 1232.52 504.775C1276.39 527.219 1309.18 560.832 1324.77 608.356C1330.41 626.34 1333.16 644.652 1333.13 663.49C1333.14 665.145 1333.14 665.145 1333.14 666.833C1333.15 670.502 1333.15 674.171 1333.15 677.84C1333.15 680.482 1333.15 683.125 1333.16 685.767C1333.16 692.184 1333.17 698.601 1333.17 705.017C1333.17 710.24 1333.17 715.462 1333.17 720.684C1333.18 735.524 1333.19 750.365 1333.19 765.205C1333.19 766.403 1333.19 766.403 1333.19 767.625C1333.19 768.824 1333.19 768.824 1333.19 770.048C1333.18 782.99 1333.19 795.933 1333.21 808.876C1333.22 822.199 1333.23 835.523 1333.23 848.846C1333.23 856.312 1333.23 863.779 1333.24 871.245C1333.25 877.605 1333.25 883.964 1333.25 890.324C1333.24 893.56 1333.24 896.797 1333.25 900.034C1333.29 918.269 1332.72 935.855 1328.25 953.625C1327.99 954.688 1327.72 955.752 1327.45 956.847C1323.73 971.456 1318.17 984.761 1311 998C1310.66 998.628 1310.32 999.255 1309.97 999.902C1288.74 1038.62 1250.61 1067.78 1208.64 1080.72C1072.61 1119.92 925.562 1087 784 1087C784 728.29 784 369.58 784 0ZM961 95C961 214.79 961 334.58 961 458C1039.78 466.766 1039.78 466.766 1114.75 439.5C1115.86 438.263 1115.86 438.263 1117 437C1117.52 436.499 1118.03 435.997 1118.57 435.48C1122.72 431.22 1125.55 426.562 1128.25 421.312C1128.58 420.69 1128.91 420.068 1129.25 419.427C1135.82 406.094 1135.43 392.213 1135.37 377.725C1135.37 375.49 1135.38 373.254 1135.38 371.019C1135.39 364.98 1135.38 358.94 1135.37 352.901C1135.36 346.562 1135.36 340.222 1135.36 333.883C1135.37 323.238 1135.35 312.594 1135.34 301.949C1135.32 291.026 1135.31 280.104 1135.32 269.181C1135.32 255.978 1135.32 242.775 1135.31 229.572C1135.3 224.545 1135.3 219.519 1135.3 214.493C1135.31 208.566 1135.3 202.639 1135.28 196.712C1135.28 194.545 1135.28 192.379 1135.28 190.213C1135.31 161.904 1130.72 137.82 1110.75 116.312C1093.65 100.123 1072.11 93.8245 1049.01 93.8672C1047.24 93.8658 1047.24 93.8658 1045.44 93.8643C1042.94 93.8636 1040.43 93.8654 1037.92 93.8696C1034.25 93.8748 1030.59 93.8698 1026.92 93.8633C1004.92 93.8749 983.01 94.4759 961 95ZM961 558C961 699.57 961 841.14 961 987C984.316 987 1007.63 986.968 1030.94 986.764C1036.12 986.719 1041.29 986.68 1046.47 986.654C1051.58 986.627 1056.7 986.587 1061.81 986.537C1063.73 986.52 1065.65 986.509 1067.57 986.502C1089.82 986.421 1107.24 982.03 1123.89 966.207C1137.74 951.609 1142.16 933.243 1142.13 913.693C1142.13 912.454 1142.13 911.215 1142.13 909.938C1142.14 906.512 1142.14 903.086 1142.13 899.66C1142.13 896.72 1142.13 893.781 1142.14 890.842C1142.14 881.174 1142.14 871.506 1142.13 861.837C1142.12 858.479 1142.12 855.122 1142.12 851.764C1142.1 828.878 1142.07 805.992 1142.02 783.106C1142 776.828 1141.99 770.55 1141.98 764.273C1141.95 745.288 1141.9 726.303 1141.81 707.318C1141.81 705.674 1141.8 704.029 1141.79 702.385C1141.79 701.576 1141.78 700.767 1141.78 699.934C1141.75 694.265 1141.74 688.596 1141.73 682.927C1141.72 676.007 1141.69 669.088 1141.65 662.168C1141.62 658.649 1141.61 655.129 1141.61 651.609C1141.59 622.974 1136.83 600.149 1116.89 578.734C1106.72 569.02 1093.65 562.215 1080 559C1079.27 558.827 1078.54 558.654 1077.78 558.476C1067.1 556.347 1056.3 556.73 1045.45 556.77C1043.27 556.771 1041.09 556.771 1038.9 556.771C1034.35 556.772 1029.79 556.781 1025.24 556.794C1019.41 556.811 1013.59 556.815 1007.76 556.814C1003.26 556.815 998.758 556.82 994.258 556.827C992.11 556.83 989.962 556.832 987.813 556.833C984.811 556.835 981.808 556.844 978.806 556.855C977.489 556.854 977.489 556.854 976.145 556.853C975.318 556.858 974.491 556.862 973.64 556.866C972.933 556.868 972.226 556.87 971.497 556.871C967.982 557.052 964.492 557.564 961 558Z" fill="#D9D9D9"/>
<path d="M1483.89 -0.132771C1521.89 -0.127136 1559.89 0.0792142 1597.9 0.47223C1603.81 0.532972 1609.72 0.591745 1615.63 0.65072C1627.08 0.765328 1638.54 0.881986 1650 1.00009C1650 1.80597 1650 2.61185 1650 3.44216C1650.03 91.1751 1650.06 178.908 1650.12 266.641C1650.12 268.607 1650.12 268.607 1650.12 270.612C1650.14 298.396 1650.16 326.181 1650.18 353.965C1650.19 367.923 1650.2 381.88 1650.21 395.837C1650.21 397.943 1650.21 400.048 1650.21 402.154C1650.23 434.567 1650.25 466.98 1650.26 499.394C1650.26 500.091 1650.26 500.787 1650.26 501.505C1650.27 512.738 1650.27 523.971 1650.27 535.204C1650.28 567.565 1650.29 599.926 1650.31 632.287C1650.32 633.286 1650.32 633.286 1650.32 634.305C1650.33 648.264 1650.34 662.223 1650.35 676.183C1650.36 682.72 1650.36 689.258 1650.37 695.795C1650.37 697.726 1650.37 697.726 1650.37 699.695C1650.39 720.412 1650.39 741.129 1650.39 761.847C1650.39 782.672 1650.4 803.497 1650.43 824.322C1650.45 836.696 1650.45 849.07 1650.44 861.445C1650.44 869.713 1650.45 877.98 1650.47 886.248C1650.48 890.957 1650.48 895.667 1650.47 900.377C1650.46 904.668 1650.46 908.959 1650.49 913.25C1650.49 914.787 1650.49 916.323 1650.48 917.86C1650.4 931.125 1652.5 943.545 1658.81 955.375C1659.16 956.043 1659.51 956.711 1659.86 957.399C1662.71 962.746 1665.91 967.512 1670 972C1670.73 972.819 1671.45 973.637 1672.2 974.481C1685.77 988.943 1704.98 997.694 1724.81 998.386C1728.13 998.451 1731.44 998.463 1734.76 998.446C1737.3 998.438 1739.83 998.467 1742.37 998.498C1756.03 998.559 1769.16 996.817 1781.37 990.25C1782.36 989.736 1782.36 989.736 1783.37 989.211C1789.14 986.116 1794.17 982.421 1799 978C1799.68 977.41 1800.36 976.819 1801.07 976.211C1815.04 963.359 1823.26 943.791 1824.28 924.986C1824.44 920.532 1824.44 916.078 1824.43 911.622C1824.44 909.925 1824.45 908.228 1824.46 906.532C1824.49 901.971 1824.5 897.41 1824.51 892.849C1824.52 888.066 1824.54 883.282 1824.57 878.499C1824.61 869.461 1824.64 860.424 1824.66 851.386C1824.69 841.088 1824.73 830.791 1824.78 820.493C1824.87 799.329 1824.94 778.165 1825 757C1836.89 756.865 1848.78 756.734 1860.67 756.609C1866.2 756.55 1871.73 756.491 1877.27 756.427C1918.18 755.963 1959.08 756 2000 756C2000 865.23 2000 974.46 2000 1087C1866.38 1087.04 1866.38 1087.04 1815.28 1087.05C1801.92 1087.05 1788.55 1087.05 1775.19 1087.05C1773.57 1087.05 1771.96 1087.06 1770.34 1087.06C1744.55 1087.06 1718.76 1087.07 1692.96 1087.08C1666.47 1087.09 1639.97 1087.09 1613.47 1087.09C1609.73 1087.09 1605.99 1087.09 1602.26 1087.09C1601.52 1087.1 1600.78 1087.1 1600.03 1087.1C1588.16 1087.1 1576.29 1087.1 1564.42 1087.11C1552.5 1087.11 1540.59 1087.11 1528.67 1087.11C1522.21 1087.11 1515.75 1087.11 1509.28 1087.12C1503.38 1087.12 1497.47 1087.12 1491.56 1087.12C1489.42 1087.12 1487.27 1087.12 1485.12 1087.12C1482.23 1087.13 1479.33 1087.13 1476.43 1087.12C1475.58 1087.13 1474.73 1087.13 1473.85 1087.13C1468.11 1087.11 1468.11 1087.11 1467 1086C1466.9 1083.63 1466.87 1081.29 1466.87 1078.92C1466.87 1077.79 1466.87 1077.79 1466.87 1076.63C1466.87 1074.07 1466.87 1071.5 1466.87 1068.93C1466.87 1067.08 1466.87 1065.23 1466.87 1063.38C1466.87 1058.25 1466.87 1053.11 1466.87 1047.97C1466.87 1042.41 1466.87 1036.84 1466.87 1031.27C1466.86 1021.49 1466.86 1011.72 1466.87 1001.94C1466.87 988.085 1466.87 974.227 1466.87 960.37C1466.86 935.242 1466.86 910.115 1466.86 884.987C1466.86 884.242 1466.86 883.497 1466.86 882.729C1466.86 881.982 1466.86 881.236 1466.86 880.467C1466.87 857.753 1466.87 835.04 1466.87 812.327C1466.87 810.807 1466.87 809.288 1466.87 807.769C1466.87 801.665 1466.87 795.56 1466.86 789.456C1466.86 772.39 1466.86 755.324 1466.86 738.258C1466.86 737.481 1466.86 736.704 1466.86 735.903C1466.86 711.126 1466.86 686.348 1466.87 661.57C1466.87 660.766 1466.87 659.962 1466.87 659.134C1466.87 646.076 1466.87 633.019 1466.87 619.961C1466.87 568.168 1466.87 516.375 1466.87 464.583C1466.87 451.532 1466.87 438.481 1466.87 425.43C1466.87 424.626 1466.87 423.823 1466.87 422.995C1466.86 398.244 1466.86 373.493 1466.86 348.742C1466.86 347.965 1466.86 347.189 1466.86 346.388C1466.86 329.342 1466.86 312.295 1466.86 295.248C1466.87 289.149 1466.87 283.05 1466.87 276.951C1466.87 275.434 1466.87 273.916 1466.87 272.399C1466.87 249.69 1466.87 226.98 1466.86 204.271C1466.86 203.526 1466.86 202.781 1466.86 202.013C1466.86 201.269 1466.86 200.525 1466.86 199.759C1466.86 174.706 1466.86 149.653 1466.87 124.6C1466.87 110.141 1466.87 95.6815 1466.87 81.2223C1466.86 71.583 1466.87 61.9437 1466.87 52.3044C1466.87 46.7997 1466.87 41.295 1466.87 35.7903C1466.87 30.7943 1466.87 25.7983 1466.87 20.8022C1466.87 18.9948 1466.87 17.1874 1466.87 15.38C1466.87 12.9467 1466.87 10.5135 1466.87 8.08018C1466.87 7.36752 1466.87 6.65486 1466.87 5.9206C1466.9 -3.49896 1476.36 -0.132617 1483.89 -0.132771Z" fill="#D9D9D9"/>
<path d="M633 -3.33786e-05C634.793 1.79291 634.126 4.47643 634.127 6.89648C634.129 8.18915 634.132 9.48183 634.135 10.8137C634.133 12.2699 634.131 13.7262 634.129 15.1825C634.13 16.719 634.132 18.2555 634.134 19.792C634.139 24.0537 634.137 28.3154 634.135 32.577C634.133 37.1988 634.137 41.8206 634.141 46.4424C634.146 54.5562 634.147 62.6701 634.146 70.7839C634.145 82.8502 634.149 94.9164 634.154 106.983C634.164 129.788 634.167 152.594 634.167 175.4C634.168 193.016 634.17 210.633 634.173 228.25C634.174 233.315 634.175 238.38 634.176 243.446C634.176 244.705 634.176 245.964 634.176 247.262C634.182 282.706 634.186 318.15 634.186 353.595C634.186 354.946 634.186 356.297 634.186 357.648C634.186 363.749 634.186 369.849 634.186 375.949C634.186 378.67 634.185 381.39 634.185 384.11C634.185 385.472 634.185 386.833 634.185 388.195C634.185 431.21 634.192 474.225 634.206 517.24C634.209 528.069 634.213 538.897 634.216 549.726C634.216 550.393 634.217 551.06 634.217 551.747C634.228 587.784 634.23 623.822 634.229 659.859C634.229 664.931 634.229 670.002 634.229 675.074C634.229 676.947 634.229 676.947 634.229 678.858C634.229 698.947 634.235 719.035 634.244 739.124C634.252 759.327 634.253 779.53 634.247 799.733C634.243 811.731 634.245 823.729 634.255 835.726C634.261 843.751 634.259 851.775 634.252 859.799C634.248 864.364 634.247 868.93 634.256 873.496C634.329 917.541 634.329 917.541 629.75 938.062C629.533 939.059 629.316 940.055 629.093 941.081C620.82 978.04 604.26 1010.76 579 1039C578.499 1039.56 577.999 1040.12 577.483 1040.7C571.668 1047.21 565.813 1053.52 559 1059C557.986 1059.83 556.971 1060.66 555.926 1061.51C511.771 1097.2 461.778 1110.52 405.991 1110.44C402.595 1110.43 399.199 1110.44 395.803 1110.44C387.772 1110.46 379.742 1110.46 371.712 1110.45C363.504 1110.43 355.297 1110.45 347.089 1110.48C339.971 1110.5 332.854 1110.5 325.736 1110.5C321.517 1110.5 317.297 1110.5 313.077 1110.51C289.603 1110.6 266.814 1109.48 244.125 1102.75C243.096 1102.45 242.067 1102.15 241.006 1101.84C206.066 1091.38 176.362 1071.81 150 1047C149.012 1046.08 149.012 1046.08 148.004 1045.13C142.854 1040.16 138.406 1034.63 134 1029C133.572 1028.45 133.143 1027.91 132.702 1027.34C102.864 988.927 87.7582 942.158 87.8866 893.706C87.8868 892.197 87.8867 890.688 87.8861 889.179C87.8858 885.116 87.8917 881.053 87.8987 876.989C87.905 872.731 87.9055 868.472 87.9067 864.213C87.9098 856.164 87.918 848.114 87.9281 840.064C87.9393 830.894 87.9447 821.723 87.9497 812.552C87.9602 793.702 87.9778 774.851 88.0001 756C134.337 755.903 180.665 756.047 227 756.5C228.223 756.512 229.446 756.524 230.706 756.536C245.804 756.684 260.902 756.839 276 757C276.002 757.973 276.003 758.946 276.005 759.948C276.041 783.688 276.101 807.428 276.184 831.168C276.224 842.649 276.256 854.13 276.271 865.611C276.284 875.625 276.311 885.638 276.355 895.652C276.377 900.948 276.393 906.243 276.392 911.539C276.391 916.538 276.409 921.536 276.441 926.535C276.45 928.356 276.452 930.177 276.446 931.998C276.38 956.494 282.33 977.566 299 996C319.482 1015.96 343.266 1019.45 370.742 1019.21C383.695 1018.95 395.332 1016.91 407 1011C407.984 1010.51 408.967 1010.02 409.981 1009.51C427.794 999.875 441.22 983.475 447.289 964.09C450.732 952.103 451.148 940.536 451.139 928.165C451.141 926.547 451.144 924.928 451.147 923.309C451.155 918.857 451.157 914.404 451.157 909.952C451.159 905.11 451.167 900.268 451.173 895.425C451.184 886.938 451.192 878.45 451.197 869.962C451.204 857.341 451.217 844.72 451.231 832.099C451.255 810.869 451.274 789.639 451.291 768.409C451.307 747.385 451.326 726.362 451.347 705.338C451.348 704.032 451.35 702.725 451.351 701.379C451.358 694.743 451.365 688.107 451.371 681.471C451.385 667.977 451.398 654.482 451.412 640.988C451.412 640.313 451.413 639.638 451.414 638.942C451.446 606.104 451.475 573.266 451.503 540.428C451.513 529.033 451.522 517.638 451.532 506.243C451.533 505.536 451.534 504.83 451.534 504.101C451.563 471.245 451.594 438.389 451.626 405.532C451.628 403.399 451.63 401.266 451.632 399.133C451.646 384.996 451.659 370.859 451.673 356.723C451.7 328.594 451.728 300.466 451.754 272.338C451.756 270.998 451.757 269.659 451.758 268.319C451.844 179.213 451.922 90.1064 452 0.999967C464.508 0.869685 477.016 0.741373 489.524 0.615292C495.338 0.556634 501.151 0.497401 506.965 0.436643C618.976 -0.731989 618.976 -0.731989 633 -3.33786e-05Z" fill="#D9D9D9"/>
<path d="M0 0C113.52 0 227.04 0 344 0C343.091 4.54525 341.709 8.31897 339.852 12.5078C339.528 13.2487 339.204 13.9896 338.87 14.753C337.793 17.2125 336.709 19.6687 335.625 22.125C334.859 23.8704 334.093 25.616 333.328 27.3618C330.893 32.9112 328.447 38.4559 326 44C325.208 45.7949 324.416 47.5898 323.625 49.3848C320.474 56.5243 317.321 63.6625 314.163 70.7988C308.735 83.0657 303.327 95.3412 297.938 107.625C297.568 108.467 297.199 109.309 296.818 110.176C294.956 114.42 293.095 118.663 291.234 122.907C287.117 132.294 282.995 141.68 278.874 151.065C277.748 153.629 276.622 156.194 275.496 158.758C275.125 159.604 274.753 160.45 274.37 161.322C272.13 166.426 269.89 171.531 267.651 176.636C259.543 195.123 251.415 213.601 243.25 232.062C237.79 244.407 232.342 256.756 226.938 269.125C226.524 270.071 226.524 270.071 226.103 271.036C225.542 272.318 224.982 273.601 224.422 274.883C224.141 275.526 223.86 276.169 223.57 276.832C223.146 277.804 223.146 277.804 222.712 278.796C218.921 287.472 215.118 296.142 211.312 304.812C210.939 305.664 210.565 306.516 210.18 307.394C205.782 317.413 201.373 327.427 196.945 337.434C196.315 338.858 196.315 338.858 195.673 340.311C193.661 344.857 191.648 349.404 189.632 353.948C188.889 355.627 188.146 357.306 187.402 358.984C187.042 359.794 186.683 360.604 186.312 361.438C184.336 365.903 182.415 370.385 180.547 374.896C180.143 375.867 179.738 376.837 179.321 377.836C178.541 379.712 177.77 381.592 177.009 383.476C176.659 384.316 176.308 385.155 175.948 386.021C175.643 386.766 175.339 387.512 175.025 388.28C174 390 174 390 171 391C152.566 350.491 152.566 350.491 143.982 330.533C139.346 319.764 134.619 309.035 129.875 298.312C129.472 297.403 129.07 296.493 128.655 295.555C126.595 290.898 124.533 286.241 122.472 281.584C118.871 273.45 115.276 265.312 111.681 257.174C109.705 252.699 107.727 248.225 105.75 243.75C104.958 241.958 104.167 240.167 103.375 238.375C102.787 237.045 102.787 237.045 102.188 235.688C79.625 184.625 79.625 184.625 78.4375 181.938C77.6458 180.146 76.8541 178.354 76.0624 176.562C74.0839 172.085 72.1055 167.607 70.1272 163.129C66.5566 155.048 62.9855 146.966 59.4119 138.886C57.4201 134.383 55.4287 129.879 53.4375 125.375C53.045 124.487 52.6525 123.599 52.2481 122.685C46.0378 108.635 39.8581 94.5724 33.6909 80.5039C28.6665 69.0444 23.6111 57.5992 18.5211 46.1687C16.5662 41.7775 14.6149 37.3848 12.6636 32.992C11.2251 29.7542 9.78503 26.5171 8.33984 23.2822C6.8863 20.0245 5.44178 16.7629 4 13.5C3.58428 12.5743 3.16855 11.6486 2.74023 10.6948C2.37221 9.85709 2.00418 9.01937 1.625 8.15625C1.30789 7.44275 0.990781 6.72926 0.664062 5.99414C0 4 0 4 0 0Z" fill="#D9D9D9"/>
<path d="M246.449 450.779C265.404 467.657 277.343 492.066 281 517C282.836 549.659 276.777 576.901 256 603C255.306 603.909 255.306 603.909 254.598 604.836C251.228 609.125 247.202 612.563 243 616C241.703 617.071 241.703 617.071 240.379 618.164C228.649 627.427 215.3 633.71 201 638C199.948 638.32 198.896 638.639 197.813 638.969C170.072 645.904 140.281 640.69 115.684 626.691C110.538 623.448 105.748 619.794 101 616C100.218 615.385 99.4351 614.77 98.629 614.137C77.9207 596.898 65.1947 569.457 62.45 543.025C59.7628 511.253 70.0732 482.732 90.2266 458.301C130.705 411.6 201.311 412.052 246.449 450.779Z" fill="#D9D9D9"/>
</svg>
