<svg width="2000" height="532" viewBox="0 0 2000 532" fill="none" xmlns="http://www.w3.org/2000/svg">
<g clip-path="url(#clip0_39_196)">
<path d="M797 0.000103235C800.663 2.66466 800.89 4.3896 801.687 8.8126C801.497 12.4269 800.376 14.1204 797.957 16.7618C797.322 17.4562 796.688 18.1506 796.034 18.8661C792.095 22.9985 788.036 27.0026 783.961 31.0001C778.626 36.2731 773.702 41.8108 768.855 47.5314C768.03 48.5059 768.03 48.5059 767.187 49.5001C766.624 50.1704 766.061 50.8407 765.48 51.5314C764 53.0001 764 53.0001 762 53.0001C761.784 53.5351 761.569 54.07 761.347 54.6212C759.507 57.8695 757.001 60.3843 754.437 63.0626C749.802 67.9865 745.446 73.0449 741.211 78.3204C738.89 81.1326 736.469 83.8181 734 86.5001C729.963 90.8904 726.159 95.4119 722.414 100.051C719.661 103.414 716.838 106.709 714 110C708.901 115.922 703.92 121.928 699 128C697.981 129.249 696.961 130.498 695.941 131.746C690.281 138.682 684.675 145.652 679.166 152.708C675.646 157.206 672.051 161.64 668.437 166.063C662.821 172.943 657.38 179.934 652 187C650.336 189.169 648.668 191.334 647 193.5C646.158 194.594 645.317 195.688 644.476 196.781C642.889 198.845 641.3 200.907 639.711 202.969C625.821 220.993 612.059 239.108 598.58 257.441C594.191 263.403 589.761 269.333 585.312 275.25C575.835 287.861 566.542 300.599 557.32 313.399C555.135 316.43 552.942 319.456 550.742 322.477C544.574 330.956 538.533 339.504 532.664 348.193C529.947 352.205 527.167 356.151 524.293 360.051C518.999 367.292 514.078 374.775 509.125 382.25C508.186 383.663 507.247 385.076 506.308 386.488C504.447 389.288 502.588 392.089 500.73 394.891C498.937 397.592 497.138 400.29 495.334 402.984C461.468 448.454 461.468 448.454 445.496 501.082C446.156 503.594 446.876 504.499 449 506C462.959 509.201 476.867 500.203 488.25 493.125C490.858 491.452 493.435 489.738 496 488C496.592 487.601 497.184 487.201 497.795 486.79C521.405 470.727 545.003 451.158 563.562 429.438C571.246 420.454 571.246 420.454 574 418C574.66 418 575.32 418 576 418C576 417.34 576 416.68 576 416C578.088 414.186 580.18 412.489 582.375 410.813C583.02 410.314 583.666 409.816 584.331 409.303C589.45 405.373 594.614 401.559 600 398C600.639 397.576 601.279 397.153 601.938 396.716C628.415 379.294 664.409 357.565 697.66 363.473C705.441 365.433 711.372 369.448 716 376C716.922 374.844 716.922 374.844 717.863 373.664C718.671 372.661 719.479 371.658 720.312 370.625C721.113 369.627 721.913 368.63 722.738 367.602C725.691 364.205 727.123 363.074 731.657 362.694C733.175 362.66 734.693 362.639 736.211 362.629C737.016 362.62 737.821 362.611 738.65 362.602C740.353 362.587 742.056 362.578 743.759 362.575C746.359 362.563 748.956 362.513 751.554 362.463C753.211 362.454 754.867 362.446 756.523 362.441C757.297 362.422 758.071 362.402 758.869 362.382C762.888 362.416 764.764 362.815 767.963 365.324C770.561 368.738 771.074 370.712 771 375C768.544 381.08 764.062 385.373 759.633 390.125C757.214 392.766 754.935 395.463 752.687 398.25C747.498 404.673 742.067 410.877 736.646 417.104C734.063 420.079 731.499 423.07 728.937 426.063C728.447 426.635 727.957 427.208 727.452 427.798C726.464 428.952 725.476 430.107 724.488 431.262C722.983 433.02 721.476 434.776 719.968 436.531C714.67 442.703 709.391 448.891 704.144 455.106C700.781 459.086 697.394 463.046 694 467C692.994 468.173 691.989 469.346 690.984 470.52C689.501 472.25 688.018 473.979 686.529 475.705C673.765 489.885 673.765 489.885 666 507C683.547 502.765 698.398 486.434 711.312 474.473C713.451 472.505 715.609 470.582 717.812 468.688C724.381 462.985 730.658 456.952 737 451C738.321 449.762 739.643 448.523 740.965 447.285C746.385 442.206 751.804 437.125 757.215 432.035C763.549 426.079 769.899 420.153 776.386 414.363C780.405 410.729 784.353 407.019 788.308 403.315C793.34 398.605 798.414 393.944 803.511 389.305C805.729 387.251 807.88 385.154 810 383C808.926 379.696 807.798 376.55 806.375 373.375C803.589 365.941 804.113 357.438 806.961 350.094C810.278 343.409 814.668 338.87 821 335C826.627 333.19 832.778 333.203 838.312 335.188C846.086 340.43 848.934 347.043 851 356C850.889 360.917 849.231 364.69 847 369C849.063 368.378 851.125 367.752 853.187 367.125C854.336 366.777 855.484 366.429 856.668 366.07C859.927 365.072 859.927 365.072 862.722 363.883C866.423 362.448 868.206 362.735 872 364C875.415 366.995 878.173 370.456 881 374C881.476 374.592 881.952 375.185 882.443 375.795C894.474 390.786 894.474 390.786 894.303 396.878C893.795 400.432 892.101 403.23 890.187 406.188C889.783 406.833 889.378 407.479 888.961 408.145C881.347 419.977 871.333 429.981 861.716 440.174C859.064 442.995 856.436 445.84 853.812 448.688C853.325 449.217 852.837 449.745 852.335 450.29C850.889 451.86 849.444 453.43 848 455C847.524 455.517 847.048 456.034 846.558 456.566C844.225 459.103 841.895 461.643 839.57 464.188C837.986 465.921 836.398 467.651 834.804 469.375C818.027 486.88 818.027 486.88 805 507C835.266 500.016 861.059 476.102 883.207 455.574C885.756 453.225 888.34 450.921 890.937 448.625C895.574 444.474 899.942 440.089 904.315 435.666C907.787 432.168 911.35 428.862 915.109 425.672C918.143 422.989 920.937 420.07 923.781 417.188C926.407 414.598 929.169 412.212 931.968 409.813C934.236 407.789 936.365 405.664 938.5 403.5C941.228 400.734 943.985 398.087 946.937 395.563C950.11 392.844 953.063 389.973 956 387C959.521 383.436 963.132 380.097 966.937 376.844C970.29 373.847 973.399 370.608 976.558 367.41C979.272 364.732 982.107 362.254 985.004 359.777C987.261 357.767 989.377 355.652 991.5 353.5C994.228 350.734 996.985 348.087 999.937 345.563C1003.11 342.844 1006.06 339.973 1009 337C1013.16 332.79 1017.43 328.765 1022 325C1022.65 324.451 1023.31 323.902 1023.98 323.336C1027.15 321.238 1030.38 321.365 1034 322C1038.72 324.622 1040.44 327.904 1042 333C1042.17 337.684 1041.1 340.228 1038.12 343.688C1036.76 345.135 1035.38 346.571 1034 348C1032.53 349.574 1031.08 351.157 1029.62 352.742C1028.63 353.819 1027.64 354.893 1026.64 355.964C1020.58 362.505 1021.63 369.037 1021.84 377.563C1022.24 386.214 1023.1 394.842 1023.93 403.461C1025.98 425.079 1025.98 425.079 1024 434C1024.63 433.359 1025.26 432.719 1025.91 432.059C1026.76 431.194 1027.62 430.329 1028.5 429.438C1029.33 428.591 1030.17 427.744 1031.03 426.871C1033.88 424.053 1036.9 421.444 1039.93 418.819C1043.28 415.876 1046.51 412.812 1049.75 409.75C1051.15 408.429 1052.56 407.109 1053.96 405.789C1054.65 405.146 1055.33 404.503 1056.04 403.841C1063.23 397.092 1070.48 390.493 1078.16 384.305C1081.26 381.792 1084.28 379.213 1087.31 376.625C1093.49 371.37 1099.83 366.354 1106.23 361.379C1108.59 359.537 1110.95 357.68 1113.3 355.824C1117.81 352.269 1122.34 348.729 1126.89 345.234C1127.96 344.411 1129.03 343.587 1130.1 342.761C1132.88 340.615 1135.67 338.499 1138.5 336.422C1146.72 330.301 1153.21 323.568 1159.66 315.622C1161.59 313.281 1163.64 311.049 1165.69 308.813C1168.7 305.499 1171.57 302.111 1174.37 298.625C1178.06 294.071 1181.93 289.764 1185.91 285.481C1188.9 282.248 1191.74 278.933 1194.5 275.5C1198.13 270.982 1201.97 266.722 1205.91 262.481C1208.9 259.248 1211.74 255.933 1214.5 252.5C1218.14 247.98 1221.97 243.716 1225.92 239.476C1228.87 236.296 1231.62 233.026 1234.31 229.625C1238.53 224.378 1243.18 219.705 1247.97 214.994C1251.63 211.39 1255.11 207.712 1258.43 203.789C1260.83 201.056 1263.44 198.55 1266.03 196C1267.94 194.061 1269.73 192.063 1271.5 190C1274.45 186.572 1277.56 183.389 1280.81 180.25C1282.71 178.302 1284.47 176.308 1286.23 174.246C1290 169.914 1294.05 165.973 1298.25 162.063C1299.37 161.011 1299.37 161.011 1300.52 159.939C1306.16 154.703 1311.96 149.77 1318 145C1319.06 144.121 1320.11 143.239 1321.16 142.356C1344.79 122.683 1376.2 98.866 1408.38 99.6564C1416.37 100.415 1423.21 102.832 1428.56 108.996C1435.34 118.45 1435.37 129.773 1434 141C1430.52 158.334 1418.48 173.16 1407 186C1405.85 187.333 1404.71 188.666 1403.56 190C1389.18 206.28 1389.18 206.28 1381.78 212.469C1379.98 214.021 1378.34 215.661 1376.69 217.375C1373.06 221.061 1369.1 224.254 1365.07 227.492C1362.35 229.715 1359.69 231.99 1357.05 234.3C1349.01 241.305 1340.63 247.74 1332 254C1331.34 254.479 1330.68 254.958 1330.01 255.452C1312.06 268.462 1293.39 280.405 1274.3 291.643C1272.12 292.93 1269.95 294.234 1267.78 295.543C1258.9 300.889 1249.82 305.771 1240.6 310.526C1232.26 314.836 1224.05 319.358 1215.86 323.959C1213.3 325.393 1210.71 326.791 1208.12 328.188C1207.29 328.649 1206.45 329.111 1205.58 329.586C1203.71 330.609 1201.83 331.612 1199.95 332.602C1192.8 336.5 1187.98 340.595 1183 347C1182.13 348.101 1181.26 349.201 1180.38 350.301C1178.48 352.7 1176.6 355.109 1174.72 357.524C1172.36 360.554 1169.94 363.535 1167.5 366.5C1159.81 375.846 1152.41 385.435 1145 395C1145.56 394.581 1146.11 394.162 1146.69 393.731C1193.34 358.821 1193.34 358.821 1221 361C1228.19 362.557 1233.64 366.071 1238 372C1245.07 384.565 1244.66 401.315 1241 415C1233.81 435.719 1219.72 450.471 1204.44 465.688C1203.54 466.585 1202.65 467.483 1201.73 468.408C1197.2 472.928 1192.62 477.301 1187.77 481.469C1179.91 488.276 1172.69 495.626 1168 505C1184.6 500.301 1197.65 491.601 1211 481C1211.68 480.467 1212.35 479.934 1213.05 479.384C1221.87 472.426 1230.29 465.153 1238.46 457.441C1239.99 456.005 1241.55 454.595 1243.12 453.191C1250.5 446.583 1257.26 439.567 1263.68 432.024C1274.78 419.016 1286.89 408.614 1301 399C1302.28 398.106 1303.57 397.212 1304.85 396.316C1330.02 378.924 1365.16 359.307 1397 363C1406.21 364.853 1412.28 368.596 1418 376C1418.61 375.229 1419.23 374.458 1419.86 373.664C1420.67 372.661 1421.48 371.658 1422.31 370.625C1423.11 369.627 1423.91 368.63 1424.74 367.602C1427.69 364.202 1429.12 363.07 1433.66 362.71C1435.17 362.683 1436.69 362.668 1438.21 362.664C1439.02 362.657 1439.82 362.651 1440.65 362.644C1442.35 362.634 1444.06 362.629 1445.76 362.629C1448.36 362.625 1450.96 362.589 1453.55 362.551C1455.21 362.545 1456.87 362.541 1458.52 362.539C1459.3 362.525 1460.07 362.51 1460.87 362.496C1464.62 362.527 1466.78 362.856 1469.97 364.904C1472.88 367.911 1473.65 370.355 1473.6 374.598C1472.25 380.011 1467.68 383.998 1464 388C1463.25 388.838 1462.49 389.676 1461.71 390.539C1460.23 392.193 1458.73 393.843 1457.23 395.488C1455 398.002 1452.87 400.573 1450.75 403.188C1445.53 409.627 1440.09 415.855 1434.65 422.104C1430.57 426.798 1426.54 431.529 1422.5 436.253C1420.97 438.038 1419.43 439.82 1417.9 441.602C1413.31 446.936 1408.74 452.281 1404.31 457.75C1401.47 461.259 1398.54 464.659 1395.5 468C1391.6 472.284 1387.9 476.695 1384.27 481.203C1382.73 483.106 1381.16 484.991 1379.57 486.859C1374.28 493.136 1369.86 498.853 1368 507C1384.76 503.647 1399.83 487.208 1412 476C1413.6 474.561 1415.21 473.124 1416.81 471.688C1422.32 466.725 1427.78 461.7 1433.21 456.656C1434.44 455.518 1435.67 454.38 1436.9 453.242C1447.01 443.883 1447.01 443.883 1456.78 434.16C1458.72 432.274 1460.7 430.512 1462.75 428.746C1467.04 425.023 1471.03 421.052 1475 417C1479.56 412.351 1484.19 407.903 1489.12 403.652C1491.88 401.225 1494.44 398.628 1497 396C1500.91 392.033 1504.9 388.254 1509.14 384.641C1511.18 382.839 1513.09 380.941 1515 379C1518.16 375.794 1521.43 372.801 1524.86 369.879C1526.32 368.594 1527.75 367.266 1529.14 365.902C1536.34 358.948 1544.33 353.417 1552.59 347.797C1564.23 340.267 1564.23 340.267 1573.81 330.438C1577.01 326.258 1580.31 322.23 1583.75 318.25C1584.26 317.658 1584.77 317.065 1585.3 316.455C1586.34 315.241 1587.39 314.028 1588.44 312.815C1590.46 310.461 1592.49 308.101 1594.51 305.741C1595.5 304.578 1596.5 303.415 1597.5 302.253C1600.01 299.33 1602.51 296.403 1605 293.465C1610.96 286.453 1617.06 279.616 1623.33 272.883C1625.43 270.618 1627.48 268.335 1629.5 266C1634.01 260.793 1638.72 255.773 1643.41 250.723C1644.98 249.017 1646.56 247.305 1648.12 245.59C1653.22 240.028 1658.35 234.543 1663.77 229.293C1665.63 227.385 1667.35 225.443 1669.08 223.423C1673.18 218.732 1677.53 214.33 1681.93 209.934C1683.19 208.677 1683.19 208.677 1684.47 207.395C1686.23 205.635 1687.99 203.876 1689.75 202.119C1692.43 199.445 1695.1 196.767 1697.78 194.088C1699.49 192.37 1701.21 190.651 1702.93 188.934C1703.72 188.142 1704.51 187.35 1705.33 186.534C1709.54 182.338 1713.83 178.3 1718.35 174.431C1720.33 172.712 1722.18 170.888 1724 169C1727.15 165.804 1730.42 162.822 1733.82 159.899C1736.31 157.733 1738.71 155.491 1741.12 153.25C1746.32 148.509 1751.76 144.162 1757.32 139.863C1759.84 137.919 1762.31 135.937 1764.77 133.918C1783.16 118.82 1806.88 103.078 1831.74 103.746C1841.66 104.862 1849.03 109.119 1855.39 116.734C1860.19 123.484 1862.29 130.791 1861 139C1855.45 161.264 1840.09 180.607 1823.72 196.28C1821.97 198.032 1820.37 199.859 1818.77 201.746C1815.2 205.852 1811.38 209.569 1807.37 213.25C1806.68 213.894 1805.99 214.538 1805.27 215.202C1803.86 216.512 1802.44 217.821 1801.02 219.128C1799.16 220.851 1797.31 222.583 1795.46 224.32C1788.85 230.504 1782.06 236.338 1775 242C1773.82 242.971 1772.64 243.944 1771.46 244.918C1760.9 253.627 1750.02 261.873 1739 270C1738.27 270.541 1737.54 271.082 1736.79 271.639C1717.61 285.854 1697.59 299.052 1677.28 311.592C1675.72 312.553 1674.17 313.519 1672.63 314.49C1630.35 341 1630.35 341 1617 341C1616.73 341.585 1616.46 342.171 1616.18 342.774C1615.01 344.984 1613.73 346.706 1612.13 348.617C1611.56 349.3 1610.99 349.982 1610.41 350.685C1609.8 351.408 1609.19 352.13 1608.56 352.875C1604.06 358.273 1599.62 363.698 1595.31 369.25C1591.79 373.781 1588.17 378.204 1584.44 382.563C1580.03 387.72 1575.83 393.016 1571.73 398.422C1569.71 401.076 1567.67 403.706 1565.61 406.328C1559.76 413.791 1554 421.278 1548.54 429.034C1545.48 433.367 1542.28 437.572 1539.03 441.762C1512.96 472.22 1512.96 472.22 1498 508C1514.93 504.973 1527.83 495.469 1541 485C1542.02 484.191 1543.05 483.381 1544.1 482.547C1549.6 478.118 1554.85 473.476 1560 468.652C1562 467 1562 467 1564 467C1564 466.34 1564 465.68 1564 465C1565.22 463.766 1565.22 463.766 1567.06 462.25C1577.47 453.38 1587.25 443.829 1596.87 434.115C1600.38 430.575 1603.96 427.216 1607.78 424C1611.85 420.329 1615.65 416.37 1619.5 412.475C1623.21 408.75 1626.96 405.188 1630.98 401.801C1634.32 398.821 1637.42 395.598 1640.57 392.413C1643.99 388.968 1647.51 385.722 1651.21 382.574C1653.05 380.952 1654.78 379.253 1656.5 377.5C1659.47 374.486 1662.57 371.699 1665.78 368.945C1667.39 367.533 1668.97 366.086 1670.53 364.617C1675.92 359.556 1681.36 355.264 1687.55 351.25C1699.3 343.633 1709.6 336.339 1718 325C1719.96 322.636 1721.98 320.319 1724 318C1727.59 313.844 1731.12 309.653 1734.56 305.375C1738.66 300.322 1743.02 295.547 1747.44 290.777C1750.1 287.893 1752.69 284.957 1755.26 281.992C1758.07 278.771 1760.95 275.606 1763.82 272.43C1765.69 270.344 1767.54 268.242 1769.37 266.125C1773.66 261.21 1778.08 256.423 1782.5 251.63C1784.03 249.963 1785.56 248.292 1787.09 246.621C1792.08 241.18 1797.11 235.823 1802.38 230.656C1804.21 228.846 1804.21 228.846 1806.37 226C1806.91 225.34 1807.45 224.68 1808 224C1808.66 224 1809.32 224 1810 224C1810.25 223.425 1810.5 222.85 1810.76 222.257C1812.17 219.687 1813.79 217.965 1815.86 215.893C1817.06 214.696 1817.06 214.696 1818.27 213.475C1819.13 212.621 1819.99 211.767 1820.88 210.887C1822.21 209.555 1822.21 209.555 1823.57 208.197C1825.46 206.317 1827.34 204.44 1829.23 202.566C1831.63 200.184 1834.02 197.796 1836.41 195.405C1838.71 193.104 1841.01 190.808 1843.32 188.512C1844.17 187.664 1845.02 186.816 1845.89 185.942C1850.26 181.607 1854.69 177.413 1859.37 173.411C1861.35 171.699 1863.18 169.881 1865 168C1868.84 164.12 1872.85 160.542 1877 157C1878.05 156.094 1879.11 155.188 1880.16 154.281C1883.17 151.693 1886.19 149.115 1889.2 146.538C1890.9 145.088 1892.58 143.629 1894.27 142.168C1915.15 124.125 1942.54 102.574 1971.63 103.719C1980.66 104.792 1987.72 108.145 1993.76 114.992C2000.58 123.722 2000.96 132.266 2000 143C1996.23 162.658 1978.82 180.322 1965.53 194.365C1963.96 196.047 1962.4 197.748 1960.86 199.457C1956.1 204.696 1951.36 209.781 1945.93 214.328C1943.67 216.285 1941.59 218.373 1939.5 220.5C1935.49 224.548 1931.34 228.316 1927 232C1925.58 233.216 1925.58 233.216 1924.14 234.457C1904.3 251.43 1883.48 267.16 1862 282C1861.16 282.583 1860.31 283.165 1859.45 283.765C1841.02 296.469 1822.48 308.962 1803 320C1802.16 320.478 1801.32 320.957 1800.46 321.449C1786.53 329.367 1772.25 336.918 1757 342C1755.29 343.986 1753.7 345.97 1752.12 348.063C1751.14 349.342 1750.16 350.621 1749.17 351.899C1748.66 352.57 1748.14 353.241 1747.61 353.933C1744.92 357.394 1742.15 360.791 1739.37 364.188C1738.82 364.863 1738.27 365.538 1737.71 366.233C1734.54 370.119 1731.36 373.998 1728.19 377.875C1724.86 381.942 1721.56 386.038 1718.29 390.152C1716.53 392.345 1714.75 394.522 1712.96 396.691C1707.33 403.526 1701.88 410.399 1696.8 417.651C1693.57 422.255 1690.19 426.731 1686.75 431.188C1671.36 451.185 1656.3 471.538 1643 493C1642.61 493.624 1642.23 494.247 1641.83 494.89C1639.92 498.067 1638.51 500.718 1638.25 504.438C1638.17 505.613 1638.08 506.789 1638 508C1656.96 504.414 1671.73 492.426 1686.38 480.579C1689.14 478.37 1691.74 476.398 1695 475C1695 474.34 1695 473.68 1695 473C1696.56 471.631 1698.17 470.331 1699.81 469.063C1705.08 464.859 1709.73 460.373 1714.45 455.555C1717.15 452.845 1719.98 450.363 1722.9 447.899C1726.56 444.589 1729.86 440.892 1733.19 437.258C1736.56 434.552 1738.73 434.146 1743 434C1747.53 435.836 1750.33 438.956 1753 443C1753.7 447.02 1754 449.303 1751.93 452.82C1749.36 455.952 1746.38 458.569 1743.3 461.188C1738.08 465.733 1733.29 470.688 1728.47 475.654C1727.79 476.345 1727.11 477.035 1726.41 477.746C1725.8 478.372 1725.2 478.998 1724.57 479.642C1723 481 1723 481 1721 481C1721 481.66 1721 482.32 1721 483C1719.74 484.305 1719.74 484.305 1717.87 485.875C1716.78 486.805 1716.78 486.805 1715.66 487.754C1714.78 488.495 1713.9 489.236 1713 490C1711.93 490.924 1710.87 491.85 1709.81 492.777C1663.97 532.665 1663.97 532.665 1638.44 532.438C1637.64 532.458 1636.84 532.478 1636.02 532.498C1629.17 532.493 1624.34 530.455 1618.86 526.43C1611.53 519.077 1607.11 509.541 1606.62 499.125C1607.14 478.187 1617.77 459.484 1627.98 441.821C1629.05 439.909 1630.03 437.966 1631 436C1625.41 440.821 1619.98 445.79 1614.62 450.875C1610.05 455.205 1605.47 459.516 1600.75 463.688C1596.21 467.726 1591.95 472.019 1587.68 476.336C1584.22 479.819 1580.69 483.155 1576.94 486.336C1574.65 488.301 1572.42 490.337 1570.19 492.375C1553.46 507.41 1535.2 522.006 1514 530C1513.08 530.369 1512.17 530.737 1511.23 531.117C1506.98 532.28 1503.01 532.368 1498.62 532.375C1497.81 532.4 1497 532.424 1496.16 532.449C1489.22 532.483 1484.42 530.511 1478.86 526.43C1471.27 518.815 1467.64 509.675 1466.62 499.063C1467.26 475.831 1480.46 454.363 1492 435C1484.61 441.734 1477.28 448.534 1469.99 455.381C1465.36 459.734 1460.7 464.057 1456.01 468.36C1450.66 473.293 1445.37 478.295 1440.09 483.306C1436.1 487.072 1432.06 490.741 1427.92 494.332C1426.12 495.895 1424.34 497.479 1422.57 499.07C1387.33 530.468 1387.33 530.468 1364.41 530.207C1357.45 529.785 1353.31 526.996 1348.57 521.969C1343.25 515.316 1341.92 508.576 1341.44 500.25C1341.37 499.204 1341.37 499.204 1341.31 498.137C1341.2 496.425 1341.1 494.712 1341 493C1340.28 493.643 1339.56 494.287 1338.82 494.949C1329.46 503.18 1319.4 510.149 1309 517C1308.37 517.42 1307.75 517.84 1307.11 518.272C1293.33 527.512 1280.01 532.27 1263.49 529.594C1256.91 527.633 1252.13 522.287 1248.49 516.676C1243.53 507.451 1241.66 497.366 1241 487C1240.34 487.643 1239.68 488.287 1239.01 488.949C1222.64 504.5 1202.46 519.483 1181 527C1179.87 527.433 1178.73 527.866 1177.56 528.313C1168.92 529.98 1160.97 530.117 1153.21 525.594C1145.53 520.067 1140.77 512.332 1139 503C1137.09 485.705 1140.27 471.493 1150.87 457.542C1156.35 450.731 1162.23 444.521 1168.46 438.39C1170.16 436.717 1171.85 435.036 1173.54 433.355C1177.13 429.793 1180.72 426.24 1184.31 422.688C1188.5 418.548 1192.68 414.406 1196.86 410.254C1198.52 408.607 1200.18 406.967 1201.85 405.326C1202.87 404.311 1203.89 403.296 1204.91 402.28C1205.8 401.403 1206.69 400.526 1207.61 399.622C1211.8 395.031 1214.4 391.26 1215 385C1191.44 387.992 1170.99 405.758 1153 420C1152.46 420.43 1151.91 420.859 1151.36 421.301C1145.58 425.893 1140.02 430.688 1134.58 435.664C1132.47 437.571 1130.35 439.444 1128.2 441.309C1116.69 451.363 1105.87 462.005 1095.51 473.234C1091.4 477.679 1087.11 481.926 1082.78 486.156C1080.69 488.298 1078.73 490.445 1076.78 492.715C1072.42 497.753 1067.68 502.388 1062.94 507.063C1056 513.853 1056 513.853 1049.5 521.059C1047 524 1047 524 1045 525C1042.07 525.136 1039.16 525.213 1036.23 525.238C1035.36 525.246 1034.48 525.255 1033.58 525.263C1031.73 525.277 1029.88 525.287 1028.03 525.295C1025.21 525.312 1022.38 525.356 1019.56 525.401C1017.76 525.411 1015.97 525.419 1014.17 525.426C1013.32 525.443 1012.48 525.461 1011.61 525.479C1007.54 525.464 1005.51 525.324 1001.99 523.099C999.511 520.485 999.065 519.469 998.562 515.875C999.168 510.512 1001.57 508.019 1005 504C1006.4 502.271 1007.79 500.542 1009.19 498.813C1013 494.181 1016.88 489.616 1020.77 485.055C1024.16 481.053 1027.41 476.958 1030.62 472.813C1034.52 467.796 1038.59 463.035 1042.89 458.356C1045.72 455.194 1048.35 451.887 1050.98 448.555C1058.11 439.532 1065.55 430.76 1073 422C1068.09 426.128 1063.34 430.412 1058.62 434.755C1052.9 440.015 1047.13 445.208 1041.33 450.383C1037.11 454.16 1032.95 457.943 1029 462C1023.52 467.584 1017.96 472.935 1012 478C1011.07 478.811 1010.13 479.622 1009.17 480.457C980.753 505.015 944.46 532.431 904.836 529.789C895.312 528.367 886.325 523.591 880.371 515.895C875.852 509.395 874.078 503.833 873 496C872.163 496.678 871.326 497.356 870.465 498.055C849.796 514.649 825.87 532.638 798.082 530.282C790.528 529.258 785.103 525.078 780.468 519.219C773.464 508.637 772.994 496.473 775.215 484.254C781.249 459.246 800.042 439.69 817.061 421.33C821.604 416.402 825.804 411.224 830 406C831.683 403.934 833.373 401.874 835.062 399.813C835.816 398.891 836.57 397.969 837.347 397.02C837.893 396.353 838.438 395.687 839 395C834.045 395.416 831.383 395.861 828.062 399.625C825.608 402.275 823.192 404.788 820.437 407.125C816.396 410.6 812.512 414.23 808.625 417.875C803.636 422.551 798.613 427.177 793.515 431.734C789.965 434.932 786.459 438.178 782.952 441.423C779.353 444.752 775.743 448.068 772.125 451.375C765.034 457.864 758.019 464.434 751 471C746.587 475.128 742.173 479.253 737.75 483.37C736.618 484.425 735.486 485.48 734.355 486.536C728.353 492.134 722.249 497.54 715.847 502.68C713.803 504.346 711.797 506.028 709.808 507.758C697.57 518.391 682.995 530.128 666.187 530.25C665.138 530.281 665.138 530.281 664.068 530.313C657.03 530.365 652.038 527.78 647 523C639.865 513.876 638.474 504.325 639 493C638.079 493.75 637.159 494.501 636.211 495.274C624.973 504.384 613.643 512.987 601.187 520.375C600.506 520.78 599.825 521.185 599.123 521.602C586.979 528.651 574.039 532.924 559.976 529.199C551.27 525.302 546.258 517.81 542.773 509.172C540.159 501.831 539.49 494.743 539 487C538.198 487.643 537.396 488.287 536.57 488.949C529.726 494.403 522.782 499.689 515.687 504.813C514.96 505.339 514.232 505.865 513.483 506.407C495.213 519.525 471.522 534.874 448 532C437.623 529.973 430.531 524.94 424.152 516.578C414.83 502.194 415.327 484.281 418.125 467.875C418.706 465.228 419.318 462.62 420 460C420.29 458.869 420.29 458.869 420.586 457.714C424.128 444.248 429.237 431.652 435 419C435.354 418.208 435.708 417.416 436.073 416.599C442.204 402.917 449.455 389.946 457 377C457.483 376.164 457.966 375.328 458.464 374.466C467.303 359.202 477.106 344.592 487 330C487.567 329.163 488.134 328.327 488.718 327.464C501.73 308.306 515.321 289.524 529.519 271.227C531.819 268.252 534.063 265.236 536.304 262.217C541.449 255.293 546.747 248.528 552.216 241.858C555.679 237.634 559.082 233.372 562.437 229.063C571.074 218.001 580.068 207.224 589.163 196.538C592.03 193.165 594.839 189.752 597.625 186.313C601.205 181.911 604.95 177.699 608.773 173.508C610.978 171.024 613.055 168.472 615.125 165.875C619.652 160.272 624.543 155.051 629.508 149.834C633.201 145.949 636.78 141.993 640.294 137.945C642.983 134.879 645.769 131.908 648.562 128.938C649.647 127.78 650.732 126.623 651.816 125.465C652.768 124.453 652.768 124.453 653.74 123.42C655.413 121.628 657.074 119.829 658.728 118.02C669.715 106.059 681.243 94.6399 692.748 83.1827C695.493 80.4486 698.234 77.7115 700.976 74.9747C706.315 69.647 711.656 64.3225 717 59.0001C715.239 60.1122 713.479 61.2259 711.72 62.3404C710.25 63.2705 710.25 63.2705 708.751 64.2194C705.53 66.3042 702.523 68.5125 699.5 70.8751C698.957 71.2987 698.414 71.7223 697.855 72.1588C684.607 82.5411 671.712 93.3837 659.438 104.904C656.992 107.194 654.519 109.398 651.937 111.535C649.684 113.426 647.615 115.35 645.551 117.435C643.697 119.306 641.83 121.163 639.963 123.021C635.754 127.212 631.549 131.405 627.344 135.6C625.536 137.404 623.726 139.207 621.916 141.009C619.288 143.625 616.663 146.244 614.039 148.863C613.237 149.659 612.436 150.456 611.611 151.276C607.423 155.463 603.395 159.72 599.555 164.23C597.94 166.068 596.246 167.788 594.5 169.5C591.489 172.464 588.707 175.567 585.949 178.766C583.669 181.379 581.338 183.939 579 186.5C570.803 195.497 562.901 204.743 555 214C554.509 214.575 554.017 215.15 553.511 215.743C548.301 221.85 543.141 227.988 538.156 234.281C536.498 236.372 534.831 238.454 533.156 240.531C527.718 247.283 522.378 254.083 517.207 261.043C513.613 265.858 509.933 270.607 506.261 275.363C505.015 276.98 503.772 278.599 502.531 280.219C498.266 285.78 493.97 291.314 489.625 296.813C485.672 301.818 481.812 306.886 478 312C473.814 317.615 469.553 323.157 465.208 328.65C461.654 333.148 458.162 337.691 454.687 342.25C450.158 348.193 445.595 354.108 441 360C435.293 367.32 429.64 374.679 424.011 382.059C422.168 384.474 420.319 386.885 418.457 389.285C413.625 395.52 408.91 401.824 404.25 408.188C398.991 415.365 393.604 422.427 388.117 429.431C384.286 434.326 380.525 439.266 376.812 444.25C368.932 454.815 360.731 465.116 352.48 475.393C349.576 479.013 346.703 482.656 343.855 486.321C310.958 528.586 310.958 528.586 292 532C285.296 532.745 279.858 531.403 274 528C267.936 522.78 262.773 515.119 262 507C261.282 489.399 264.581 470.97 272 455C272.412 454.095 272.825 453.19 273.251 452.257C283.128 430.733 294.356 410.019 307 390C307.403 389.361 307.807 388.722 308.222 388.064C312.732 380.946 317.358 373.908 322.05 366.91C323.326 365.006 324.594 363.097 325.855 361.184C331.244 353.017 336.869 345.028 342.539 337.055C343.861 335.194 345.181 333.332 346.5 331.469C359.474 313.177 372.952 295.247 386.593 277.449C388.871 274.478 391.141 271.501 393.406 268.52C398.752 261.489 404.138 254.522 409.773 247.719C412.312 244.619 414.784 241.471 417.25 238.313C421.814 232.472 426.47 226.71 431.158 220.969C434.7 216.623 438.181 212.236 441.625 207.813C446.07 202.111 450.689 196.58 455.382 191.082C457.795 188.253 460.154 185.384 462.5 182.5C466.248 177.895 470.071 173.358 473.916 168.834C476.795 165.441 479.632 162.017 482.437 158.563C487.335 152.55 492.389 146.677 497.451 140.803C498.978 139.025 500.496 137.241 502.011 135.453C507.452 129.045 512.981 122.749 518.728 116.613C521.288 113.876 523.785 111.101 526.231 108.262C529.737 104.248 533.41 100.445 537.183 96.6837C537.842 96.0235 538.502 95.3634 539.181 94.6832C540.564 93.2998 541.948 91.9175 543.333 90.5365C545.432 88.4428 547.526 86.3438 549.619 84.2442C550.973 82.8904 552.328 81.5369 553.683 80.1837C554.298 79.5668 554.913 78.95 555.546 78.3144C559.296 74.5845 563.162 71.0697 567.214 67.6694C569.081 65.9238 570.528 64.0845 572 62.0001C560.81 69.4252 550.293 77.3804 540 86.0001C538.854 86.9496 537.708 87.8988 536.562 88.8478C529.977 94.3313 523.621 100.029 517.363 105.883C514.787 108.291 512.157 110.634 509.519 112.974C503.596 118.302 497.956 123.898 492.332 129.535C491.242 130.624 490.152 131.713 489.062 132.802C486.795 135.067 484.531 137.334 482.267 139.602C479.386 142.489 476.501 145.371 473.614 148.252C471.369 150.494 469.126 152.738 466.884 154.982C465.821 156.046 464.758 157.108 463.694 158.17C458.455 163.399 453.279 168.643 448.477 174.282C445.755 177.449 442.863 180.462 440 183.5C435.233 188.586 430.525 193.697 426 199C425.102 200.045 424.203 201.089 423.304 202.133C420.709 205.15 418.122 208.174 415.537 211.201C414.546 212.361 413.553 213.52 412.56 214.678C406.97 221.194 401.527 227.795 396.256 234.572C393.342 238.313 390.374 242.001 387.362 245.664C380.484 254.032 373.957 262.631 367.492 271.32C364.68 275.1 361.825 278.841 358.937 282.563C353.099 290.119 347.466 297.825 341.819 305.524C340.033 307.955 338.242 310.383 336.449 312.809C330.758 320.51 325.096 328.23 319.5 336C262.245 415.449 262.245 415.449 230 447C227.259 449.727 224.537 452.47 221.836 455.234C215.707 461.478 209.556 467.448 202.679 472.879C199.893 475.084 197.201 477.379 194.5 479.688C176.177 494.933 156.579 507.871 135 518C134.359 518.309 133.717 518.619 133.057 518.937C106.734 531.586 71.1308 538.595 42.9059 528.723C25.6594 522.181 11.114 511.275 3.12467 494.188C-0.0948167 486.8 -0.246154 480.386 -0.312834 472.375C-0.341838 471.237 -0.370842 470.099 -0.400724 468.926C-0.492942 456.569 3.35011 447.832 11.9997 439C21.1313 431.634 29.5108 430.046 41.0163 430.762C45.4619 431.296 48.6192 433.182 51.9997 436C52.6429 436.531 53.2861 437.062 53.9489 437.609C60.1302 443.259 64.0037 450.649 64.9997 459C65.1435 468.861 61.7617 477.03 55.0426 484.207C48.5512 489.904 41.4892 491.801 32.9997 492C39.0138 500.771 49.1368 504.521 59.2067 506.691C97.9922 513.271 133.041 494.352 163.637 472.673C171.36 467.108 178.709 461.114 186 455C186.588 454.511 187.177 454.021 187.783 453.517C210.569 434.539 230.75 413.351 249 390C249.508 389.35 250.015 388.7 250.539 388.031C258.069 378.388 265.564 368.717 273 359C273.611 358.201 274.223 357.403 274.853 356.58C286.086 341.908 286.086 341.908 297 327C303.696 317.657 310.416 308.357 317.468 299.277C320.376 295.529 323.22 291.735 326.062 287.938C326.574 287.254 327.086 286.571 327.614 285.866C329.836 282.897 332.055 279.925 334.269 276.949C340.497 268.596 346.891 260.375 353.307 252.166C354.835 250.211 356.361 248.254 357.886 246.297C364.328 238.049 370.902 229.913 377.523 221.809C378.83 220.208 380.134 218.604 381.437 217C385.866 211.56 390.366 206.186 394.91 200.842C397.86 197.367 400.756 193.855 403.625 190.313C407.248 185.861 411.019 181.576 414.882 177.332C416.78 175.242 418.647 173.13 420.5 171C423.858 167.146 427.273 163.345 430.699 159.551C432.164 157.927 433.625 156.3 435.082 154.668C446.319 142.097 457.92 129.911 469.861 118.008C471.898 115.977 473.929 113.94 475.961 111.902C477.283 110.581 478.606 109.259 479.929 107.938C480.819 107.045 480.819 107.045 481.726 106.135C485.433 102.448 489.265 98.9524 493.225 95.5369C495.634 93.4504 497.971 91.2879 500.312 89.1251C504.746 85.0861 509.28 81.225 513.949 77.461C516.173 75.6673 518.382 73.8614 520.582 72.0392C606.648 0.985023 606.648 0.985019 647.804 1.66417C650 2.0001 650 2.0001 653.062 4.0001C654.994 6.9906 655.978 9.1003 655.734 12.7032C653.073 21.0267 644.41 27.7279 638.332 33.6759C635.718 36.2808 633.309 39.0035 630.91 41.8048C628.491 44.5843 625.997 47.2914 623.5 50.0001C619.262 54.6078 615.083 59.2545 611 64.0001C610.576 64.492 610.152 64.984 609.716 65.4908C606.134 69.6524 602.564 73.8237 599 78.0001C598.54 78.538 598.081 79.0758 597.608 79.63C591.37 86.945 585.228 94.3362 579.128 101.766C575.712 105.926 572.274 110.066 568.812 114.188C564.902 118.867 561.127 123.635 557.381 128.445C553.712 133.138 549.932 137.731 546.125 142.313C540.332 149.299 534.773 156.436 529.293 163.668C525.838 168.226 522.329 172.74 518.812 177.25C509.652 189.01 500.592 200.837 491.665 212.775C489.911 215.118 488.153 217.458 486.394 219.797C478.453 230.361 470.575 240.969 462.751 251.619C460.959 254.056 459.161 256.489 457.363 258.922C451.36 267.044 445.399 275.189 439.55 283.422C436.6 287.57 433.611 291.69 430.625 295.813C424.843 303.804 419.14 311.849 413.466 319.918C412.029 321.959 410.587 323.998 409.144 326.035C403.373 334.187 397.642 342.365 391.937 350.563C391.313 351.459 390.689 352.356 390.046 353.28C379.477 368.484 369.046 383.778 358.687 399.125C358.047 400.073 357.407 401.021 356.748 401.998C348.086 414.841 339.493 427.709 331.323 440.873C330.031 442.95 328.725 445.017 327.414 447.082C315.871 465.304 305.188 483.991 295 503C295.613 502.693 296.227 502.386 296.859 502.07C298.906 501.047 300.953 500.024 303 499C303 498.34 303 497.68 303 497C304.398 495.66 304.398 495.66 306.375 494.063C315.077 486.63 322.102 477.751 329.078 468.742C332.174 464.753 335.365 460.845 338.562 456.938C347.852 445.551 356.669 433.816 365.467 422.048C367.975 418.696 370.487 415.348 373 412C373.996 410.672 374.992 409.344 375.988 408.016C402.8 372.266 402.8 372.266 404.288 370.282C405.31 368.92 406.331 367.559 407.352 366.197C409.879 362.826 412.408 359.456 414.941 356.09C420.252 349.027 425.522 341.937 430.75 334.813C436.42 327.089 442.203 319.457 448.029 311.85C452.507 305.992 456.9 300.079 461.25 294.125C466.395 287.092 471.723 280.244 477.207 273.473C479.843 270.213 482.399 266.898 484.937 263.563C490.794 255.908 496.895 248.457 503 241C503.771 240.055 504.541 239.11 505.336 238.137C507.553 235.421 509.776 232.711 512 230C512.506 229.381 513.012 228.761 513.533 228.123C520.384 219.737 527.297 211.422 534.432 203.276C538.53 198.586 542.447 193.78 546.293 188.879C546.856 188.259 547.419 187.639 548 187C548.66 187 549.32 187 550 187C550.212 186.469 550.425 185.938 550.644 185.391C552.522 182.079 555.08 179.491 557.687 176.75C558.786 175.579 559.883 174.407 560.98 173.234C561.507 172.673 562.033 172.112 562.575 171.533C564.257 169.723 565.887 167.873 567.5 166C574.151 158.321 581.052 150.824 588.313 143.719C590.028 141.971 591.618 140.159 593.209 138.299C596.921 134.035 600.837 130.018 604.84 126.027C605.928 124.937 605.928 124.937 607.039 123.825C608.563 122.3 610.088 120.777 611.615 119.255C613.931 116.944 616.242 114.627 618.552 112.311C620.044 110.82 621.535 109.33 623.027 107.84C623.707 107.157 624.388 106.475 625.089 105.772C628.998 101.882 633.006 98.1724 637.2 94.5914C639.014 92.9876 640.694 91.3037 642.375 89.5626C645 87.0001 645 87.0001 647 87.0001C647 86.3401 647 85.6801 647 85.0001C648.461 83.4923 648.461 83.4923 650.375 81.8751C651.001 81.3363 651.628 80.7975 652.273 80.2423C654 79.0001 654 79.0001 656 79.0001C656 78.3401 656 77.6801 656 77.0001C658.027 75.2767 660.065 73.6618 662.187 72.0626C666.996 68.374 671.678 64.6023 676.25 60.6251C689.208 49.4933 703.533 40.039 718 31.0001C718.64 30.5981 719.28 30.1961 719.94 29.7818C732.119 22.1742 744.794 15.6471 758 10.0001C759.581 9.29241 759.581 9.29241 761.195 8.57042C785.306 -2.08082 785.306 -2.08082 797 0.000103235ZM1355.56 150.598C1353.77 152.208 1351.95 153.785 1350.14 155.363C1346 158.98 1341.95 162.687 1337.94 166.438C1337.27 167.054 1336.6 167.671 1335.91 168.307C1331.89 172.061 1328.2 175.965 1324.62 180.141C1322.36 182.728 1319.96 185.101 1317.5 187.5C1313.82 191.132 1310.3 194.84 1306.94 198.774C1304.35 201.74 1301.68 204.616 1299 207.5C1294.58 212.266 1290.23 217.069 1286 222C1285.58 222.485 1285.17 222.97 1284.74 223.47C1281.68 227.028 1278.63 230.59 1275.58 234.153C1273.55 236.525 1271.52 238.894 1269.49 241.264C1268.49 242.423 1267.5 243.583 1266.51 244.742C1263.97 247.7 1261.44 250.655 1258.89 253.606C1252.82 260.655 1246.86 267.775 1241 275C1239.31 277.064 1237.63 279.126 1235.94 281.188C1235.18 282.109 1234.43 283.031 1233.65 283.981C1233.11 284.647 1232.56 285.313 1232 286C1232.99 286.33 1233.98 286.66 1235 287C1237.45 285.815 1237.45 285.815 1240.19 283.938C1241.35 283.191 1242.52 282.448 1243.68 281.707C1244.35 281.283 1245.02 280.858 1245.71 280.421C1250.33 277.554 1255.05 274.853 1259.75 272.125C1260.8 271.514 1261.85 270.903 1262.93 270.273C1267.44 267.639 1271.97 265.012 1276.52 262.438C1299.59 249.306 1321.77 233.185 1342 216C1343.07 215.104 1344.14 214.208 1345.21 213.313C1363.29 198.096 1379.82 181.943 1394 163C1394.62 162.17 1394.62 162.17 1395.26 161.323C1403.07 150.817 1410.51 139.498 1410 126C1408.35 124.353 1406.52 124.71 1404.25 124.625C1386.12 124.928 1368.45 138.914 1355.56 150.598ZM1777.58 155.553C1776.09 156.92 1774.58 158.263 1773.07 159.606C1766.92 165.116 1761.03 170.866 1755.19 176.688C1754.48 177.388 1753.78 178.089 1753.05 178.811C1749.12 182.754 1745.37 186.796 1741.74 191.011C1738.15 195.117 1734.36 199.04 1730.61 203C1726.29 207.574 1722.11 212.239 1718 217C1717.51 217.566 1717.02 218.133 1716.52 218.716C1715.11 220.35 1713.71 221.987 1712.31 223.625C1711.27 224.846 1710.22 226.068 1709.18 227.289C1708.65 227.904 1708.12 228.52 1707.58 229.153C1705.55 231.525 1703.52 233.894 1701.49 236.264C1700.49 237.423 1699.5 238.583 1698.51 239.742C1695.97 242.7 1693.44 245.655 1690.89 248.606C1685.68 254.662 1680.52 260.749 1675.48 266.953C1672.93 270.086 1670.36 273.204 1667.79 276.319C1662.14 283.169 1656.51 290.035 1651 297C1651.66 297.33 1652.32 297.66 1653 298C1655.49 296.791 1655.49 296.791 1658.28 294.984C1659.36 294.316 1660.44 293.647 1661.56 292.958C1662.73 292.222 1663.89 291.486 1665.06 290.75C1666.25 290.007 1667.44 289.265 1668.64 288.523C1677.83 282.788 1686.96 276.962 1696 271C1696.62 270.591 1697.25 270.183 1697.89 269.761C1721.49 254.275 1744.47 237.615 1765.87 219.188C1766.47 218.68 1767.06 218.172 1767.67 217.649C1773.03 213.013 1778.27 208.246 1783.46 203.42C1785.1 201.911 1786.74 200.418 1788.39 198.926C1793.55 194.241 1798.62 189.588 1803.09 184.219C1804.63 182.428 1806.21 180.728 1807.85 179.031C1827.92 158.799 1827.92 158.799 1837 133C1835.94 130.77 1835.94 130.77 1834 129C1813.48 124.662 1791.66 142.63 1777.58 155.553ZM1923 151C1921.47 152.22 1921.47 152.22 1919.91 153.465C1911.64 160.217 1904.1 167.713 1896.56 175.25C1896.04 175.77 1895.52 176.289 1894.98 176.824C1889.67 182.137 1884.45 187.485 1879.56 193.194C1876.96 196.208 1874.22 199.096 1871.5 202C1866.45 207.418 1861.5 212.898 1856.69 218.53C1855.17 220.312 1853.65 222.094 1852.12 223.875C1851.61 224.483 1851.09 225.091 1850.55 225.718C1847.5 229.278 1844.41 232.786 1841.25 236.25C1837.74 240.123 1834.46 244.132 1831.23 248.238C1828.57 251.531 1825.82 254.736 1823.06 257.938C1818.8 262.88 1814.61 267.865 1810.5 272.934C1808.49 275.396 1806.47 277.844 1804.44 280.285C1803.81 281.042 1803.18 281.799 1802.53 282.579C1801.29 284.08 1800.04 285.579 1798.78 287.076C1795.88 290.581 1793.19 293.983 1791 298C1796.61 295.887 1801.55 292.866 1806.69 289.813C1807.63 289.26 1808.57 288.708 1809.54 288.139C1815.11 284.848 1820.46 281.378 1825.71 277.609C1828.13 275.906 1830.61 274.32 1833.12 272.75C1840.57 268.056 1847.78 263.027 1855 258C1855.69 257.519 1856.39 257.037 1857.1 256.542C1871.87 246.295 1886.22 235.539 1900 224C1900.75 223.379 1900.75 223.379 1901.51 222.745C1913.93 212.434 1925.62 201.471 1937.07 190.101C1938.17 189.009 1939.28 187.918 1940.38 186.829C1964.46 163.877 1964.46 163.877 1976.5 134.375C1976.33 130.936 1976.33 130.936 1974 129C1954.33 126.173 1937.43 139.286 1923 151ZM990.996 386.941C989.308 388.67 987.621 390.4 985.933 392.129C983.111 394.955 980.108 397.549 977.09 400.163C973.624 403.209 970.285 406.388 966.937 409.563C965.449 410.968 963.961 412.373 962.472 413.777C961.729 414.48 960.985 415.182 960.219 415.906C956.778 419.153 953.329 422.392 949.875 425.625C948.989 426.458 948.989 426.458 948.085 427.307C944.587 430.579 941.012 433.7 937.289 436.716C936.864 437.14 936.438 437.564 936 438C936 438.66 936 439.32 936 440C935.417 440.254 934.834 440.508 934.234 440.77C931.758 442.133 930.194 443.642 928.25 445.688C923.579 450.479 918.575 454.795 913.496 459.145C912.672 459.86 911.848 460.575 911 461.313C910.237 461.969 909.473 462.625 908.687 463.301C906.765 464.837 906.765 464.837 907 467C908.217 467.413 909.433 467.825 910.687 468.25C915.801 470.816 917.338 474.608 919.215 479.836C920.61 485.458 920.477 490.132 917.8 495.328C916.93 496.716 916.018 498.079 915.058 499.406C913.815 500.959 913.815 500.959 914 503C912.02 503.99 912.02 503.99 910 505C910 505.33 910 505.66 910 506C926.939 505.349 940.127 491.707 951 480C973.245 454.955 994.983 419.735 994 385C992.654 384.884 992.654 384.884 990.996 386.941ZM604.023 449.703C602.031 451.964 599.969 454.148 597.892 456.331C576.966 477.816 576.966 477.816 568 505C568.33 505.66 568.66 506.32 569 507C575.766 506.582 580.442 505.262 586.312 501.938C587.049 501.532 587.786 501.126 588.546 500.709C604.14 492.007 617.894 481.059 631 469C632.453 467.703 633.911 466.411 635.375 465.125C636.283 464.325 636.283 464.325 637.211 463.508C639 462 639 462 641.226 460.43C641.811 459.958 642.397 459.486 643 459C643 458.34 643 457.68 643 457C643.529 456.795 644.058 456.59 644.603 456.378C648.009 454.42 650.592 451.713 653.347 448.953C654.265 448.042 654.265 448.042 655.202 447.112C656.499 445.82 657.795 444.525 659.087 443.228C661.022 441.29 662.97 439.365 664.92 437.441C671.018 431.375 676.874 425.222 682.207 418.465C682.643 417.912 683.08 417.36 683.53 416.79C688.852 409.846 694.154 401.322 694.125 392.375C694.127 391.578 694.13 390.782 694.133 389.961C694.215 387.997 694.215 387.997 693 387C661.309 384.066 622.572 428.048 604.023 449.703ZM1317.2 438.616C1315.31 440.503 1313.41 442.383 1311.51 444.262C1304.54 451.204 1298.1 458.271 1292 466C1291.09 467.065 1290.18 468.124 1289.25 469.172C1281.28 478.305 1274.25 488.574 1270 500C1270.21 503.817 1270.21 503.817 1271 507C1278.4 506.619 1283.58 504.712 1290.06 501.188C1291.43 500.454 1291.43 500.454 1292.83 499.705C1305.37 492.817 1316.23 483.877 1327.01 474.555C1329.68 472.271 1332.42 470.103 1335.19 467.938C1341.44 462.874 1347.01 457.125 1352.63 451.383C1358.93 444.968 1358.93 444.968 1362.33 442.191C1364.64 440.299 1366.48 438.472 1368.37 436.188C1370.74 433.406 1373.17 430.831 1375.81 428.313C1386.86 417.377 1395.94 404.926 1397 389C1396.5 388.01 1396.5 388.01 1396 387C1365.33 385.296 1337 418.812 1317.2 438.616Z" fill="#D9D9D9"/>
</g>
<defs>
<clipPath id="clip0_39_196">
<rect width="2000" height="532" fill="white"/>
</clipPath>
</defs>
</svg>
