<svg width="2000" height="367" viewBox="0 0 2000 367" fill="none" xmlns="http://www.w3.org/2000/svg">
<g clip-path="url(#clip0_39_191)">
<path d="M356.169 5.87303C357.517 5.8688 357.517 5.8688 358.892 5.86448C359.886 5.86651 360.88 5.86853 361.904 5.87062C362.945 5.86886 363.985 5.86711 365.057 5.86531C368.516 5.86089 371.975 5.86383 375.434 5.8672C377.826 5.86653 380.219 5.86556 382.612 5.8643C387.635 5.86282 392.658 5.86498 397.681 5.86964C404.132 5.87533 410.583 5.87206 417.034 5.86607C421.978 5.86246 426.922 5.8636 431.866 5.8662C434.245 5.86686 436.624 5.86604 439.003 5.86372C442.324 5.86119 445.645 5.86503 448.966 5.87062C450.454 5.86758 450.454 5.86758 451.972 5.86448C453.324 5.86871 453.324 5.86871 454.704 5.87303C455.49 5.8734 456.276 5.87378 457.086 5.87417C459 6.00001 459 6.00001 461 7.00001C461 52.87 461 98.74 461 146C496.97 146 532.94 146 570 146C569.988 135.978 569.977 125.955 569.965 115.629C569.96 109.299 569.955 102.969 569.951 96.6387C569.945 86.58 569.938 76.5213 569.924 66.4627C569.915 59.1383 569.908 51.814 569.906 44.4897C569.905 40.6091 569.901 36.7285 569.894 32.848C569.887 29.1996 569.885 25.5513 569.887 21.9029C569.886 19.9171 569.881 17.9313 569.875 15.9456C569.877 14.7746 569.878 13.6037 569.88 12.3972C569.878 10.8611 569.878 10.8611 569.877 9.29387C570 7.00001 570 7.00001 571 6.00001C572.389 5.90243 573.783 5.8737 575.176 5.87303C576.526 5.8688 576.526 5.8688 577.904 5.86448C578.899 5.86651 579.894 5.86853 580.92 5.87062C581.962 5.86886 583.004 5.86711 584.078 5.86531C587.542 5.86089 591.005 5.86383 594.469 5.8672C596.864 5.86653 599.259 5.86556 601.654 5.8643C606.681 5.86282 611.709 5.86498 616.736 5.86964C623.196 5.87534 629.656 5.87206 636.116 5.86607C641.064 5.86246 646.012 5.8636 650.961 5.8662C653.343 5.86687 655.726 5.86604 658.109 5.86372C661.433 5.86119 664.756 5.86503 668.08 5.87062C669.075 5.86859 670.071 5.86657 671.096 5.86448C671.996 5.8673 672.897 5.87012 673.824 5.87303C674.611 5.8734 675.398 5.87378 676.209 5.87417C678 6.00001 678 6.00001 679 7.00001C679.098 8.87658 679.124 10.7569 679.123 12.636C679.125 13.8676 679.127 15.0993 679.129 16.3682C679.126 17.7526 679.123 19.1371 679.12 20.5215C679.121 21.9784 679.121 23.4353 679.123 24.8923C679.125 28.9148 679.121 32.9373 679.116 36.9598C679.112 41.2904 679.113 45.621 679.114 49.9516C679.114 57.4611 679.111 64.9705 679.106 72.4799C679.098 83.3374 679.095 94.1949 679.094 105.052C679.091 122.666 679.085 140.28 679.075 157.893C679.066 175.008 679.059 192.122 679.055 209.237C679.054 210.818 679.054 210.818 679.054 212.431C679.053 217.72 679.052 223.008 679.05 228.296C679.04 272.197 679.021 316.099 679 360C643.03 360 607.06 360 570 360C570 314.46 570 268.92 570 222C534.03 222.33 498.06 222.66 461 223C461.012 232.806 461.023 242.612 461.035 252.715C461.04 258.908 461.045 265.102 461.049 271.295C461.055 281.136 461.062 290.978 461.075 300.819C461.085 307.985 461.092 315.151 461.094 322.317C461.095 326.114 461.098 329.911 461.106 333.708C461.112 337.277 461.115 340.847 461.113 344.416C461.113 346.359 461.119 348.302 461.124 350.245C461.123 351.391 461.122 352.536 461.12 353.717C461.121 354.719 461.122 355.721 461.123 356.753C461 359 461 359 460 360C458.583 360.096 457.162 360.122 455.742 360.12C454.364 360.122 454.364 360.122 452.958 360.124C451.943 360.121 450.927 360.117 449.881 360.114C448.817 360.114 447.754 360.114 446.658 360.114C443.125 360.113 439.592 360.105 436.059 360.098C433.616 360.096 431.174 360.094 428.731 360.093C422.289 360.09 415.846 360.08 409.403 360.069C402.834 360.058 396.266 360.054 389.697 360.049C376.798 360.038 363.899 360.021 351 360C350.977 315.047 350.959 270.094 350.949 225.141C350.948 219.84 350.946 214.538 350.945 209.237C350.945 208.182 350.944 207.126 350.944 206.039C350.94 188.926 350.932 171.813 350.923 154.7C350.913 137.154 350.908 119.608 350.906 102.063C350.904 91.2269 350.9 80.3911 350.892 69.5552C350.887 62.1353 350.885 54.7155 350.886 47.2956C350.887 43.008 350.886 38.7204 350.881 34.4327C350.876 30.5141 350.876 26.5955 350.879 22.6768C350.879 21.2529 350.878 19.8289 350.875 18.4049C350.871 16.482 350.874 14.559 350.877 12.636C350.876 11.564 350.876 10.4921 350.876 9.38766C351.084 5.37512 352.575 5.87475 356.169 5.87303Z" fill="#D9D9D9"/>
<path d="M1500.21 -0.368584C1503.34 -0.374716 1506.48 -0.385981 1509.62 -0.398305C1560.7 -0.573094 1618.34 2.53411 1657.25 40.2502C1683.01 66.0399 1691.22 97.1317 1691.25 132.813C1691.25 133.639 1691.25 134.466 1691.25 135.318C1691.2 172.667 1680.27 206.602 1653.75 233.688C1638.53 248.728 1619.27 259.433 1599 266C1598.32 266.225 1597.63 266.451 1596.93 266.683C1586.43 270.095 1575.92 272.407 1565 274C1563.94 274.164 1562.88 274.328 1561.78 274.497C1552.94 275.786 1544.36 276.271 1535.41 276.196C1534.25 276.194 1533.08 276.191 1531.88 276.189C1527.61 276.179 1523.34 276.151 1519.06 276.125C1509.47 276.084 1499.88 276.043 1490 276C1490 303.72 1490 331.44 1490 360C1453.7 360 1417.4 360 1380 360C1379.98 315.047 1379.96 270.094 1379.95 225.141C1379.95 219.84 1379.95 214.538 1379.94 209.237C1379.94 208.182 1379.94 207.126 1379.94 206.039C1379.94 188.926 1379.93 171.813 1379.92 154.7C1379.91 137.154 1379.91 119.609 1379.91 102.063C1379.9 91.2271 1379.9 80.3913 1379.89 69.5555C1379.89 62.1356 1379.89 54.7157 1379.89 47.2958C1379.89 43.0082 1379.89 38.7206 1379.88 34.4329C1379.88 30.5143 1379.88 26.5957 1379.88 22.6771C1379.88 21.2531 1379.88 19.8291 1379.88 18.4052C1379.87 16.4822 1379.87 14.5592 1379.88 12.6362C1379.88 11.5643 1379.88 10.4923 1379.88 9.38787C1380 7.00022 1380 7.00022 1381 6.00022C1389.15 4.4943 1397.53 3.98819 1405.77 3.21171C1407.24 3.0723 1408.71 2.93007 1410.18 2.78483C1440.13 -0.173933 1470.13 -0.322437 1500.21 -0.368584ZM1490 68.0002C1490 115.19 1490 162.38 1490 211C1530.14 211.372 1530.14 211.372 1563.88 192.156C1569.02 186.923 1572.6 181.488 1576 175C1576.54 174.072 1577.07 173.144 1577.62 172.188C1586.62 151.332 1585.83 123.684 1577.75 102.762C1571.05 87.7746 1559.11 78.4909 1544.12 72.6877C1533.33 68.7764 1522.71 67.8829 1511.31 67.3127C1510.35 67.264 1509.39 67.2152 1508.4 67.165C1507.46 67.1274 1506.52 67.0898 1505.55 67.051C1504.31 66.9994 1504.31 66.9994 1503.04 66.9468C1498.68 67.0234 1494.34 67.5663 1490 68.0002Z" fill="#D9D9D9"/>
<path d="M119.207 -0.368627C122.344 -0.374759 125.482 -0.386024 128.62 -0.398348C178.524 -0.569096 235.065 2.4143 274 38.0002C275.367 39.228 275.367 39.228 276.762 40.4807C298.159 60.684 309.132 90.5672 310.126 119.693C310.221 124.087 310.246 128.48 310.25 132.875C310.251 133.655 310.253 134.434 310.254 135.238C310.25 147.087 309.623 158.406 307 170C306.658 171.653 306.658 171.653 306.309 173.34C298.878 206.332 277.912 233.476 249.708 251.495C235.523 260.24 220.028 265.727 204 270C203.037 270.285 202.074 270.57 201.082 270.863C180.387 276.687 158.859 276.387 137.562 276.188C128.137 276.126 118.711 276.064 109 276C109 303.72 109 331.44 109 360C73.03 360 37.06 360 0 360C0 243.18 0 126.36 0 6.00018C40.0161 1.55395 79.0267 -0.306973 119.207 -0.368627ZM109 68.0002C109 115.19 109 162.38 109 211C150.027 211.019 150.027 211.019 184.059 191.113C199.417 175.395 202.644 153.966 202.471 132.913C201.999 115.198 197.743 99.187 185.152 85.9924C172.566 74.3424 156.281 69.0294 139.438 67.8127C138.461 67.7308 137.485 67.649 136.479 67.5646C127.085 66.8169 118.451 67.0551 109 68.0002Z" fill="#D9D9D9"/>
<path d="M1854.27 -0.300681C1855.79 -0.304589 1857.32 -0.308928 1858.85 -0.313666C1862.04 -0.321065 1865.22 -0.320887 1868.41 -0.315573C1871.62 -0.31097 1874.82 -0.317763 1878.03 -0.336081C1903.8 -0.481824 1928.88 0.912241 1954.19 6.1876C1955.56 6.46406 1956.93 6.73945 1958.3 7.01377C1961.53 7.66555 1964.77 8.32953 1968 9.0001C1969.37 18.3415 1970.61 27.6873 1971.73 37.0626C1971.96 38.9759 1971.96 38.9759 1972.19 40.9278C1972.51 43.5965 1972.83 46.2653 1973.14 48.9342C1973.55 52.3415 1973.96 55.7482 1974.37 59.1547C1974.76 62.4362 1975.15 65.7182 1975.54 69.0001C1975.69 70.2158 1975.83 71.4314 1975.98 72.6839C1976.12 73.8195 1976.25 74.9551 1976.39 76.1251C1976.57 77.614 1976.57 77.614 1976.75 79.1329C1977.01 82.1035 1977.04 85.0196 1977 88.0001C1973.18 87.3157 1969.59 86.2844 1965.91 85.0743C1930.62 73.6675 1880.82 60.4422 1845.11 76.7853C1839.67 79.9167 1835.28 83.3395 1832.94 89.3126C1831.01 96.6765 1832.13 103.675 1835.85 110.266C1847.35 127.625 1874.59 134.188 1893.29 140.498C1930.25 152.984 1971.26 168.08 1990.85 204.43C1993.89 210.785 1996.26 217.178 1998 224C1998.27 225.048 1998.27 225.048 1998.55 226.117C2000.31 233.829 2000.4 241.494 2000.38 249.375C2000.37 250.08 2000.37 250.785 2000.37 251.511C2000.29 278.244 1993.08 302.738 1975 323C1974.29 323.808 1973.57 324.617 1972.84 325.449C1949.72 350.068 1915.42 360.238 1883 365C1881.73 365.186 1880.47 365.372 1879.17 365.564C1865.38 367.419 1851.57 367.355 1837.69 367.313C1836.44 367.311 1835.2 367.309 1833.92 367.307C1815.78 367.262 1797.94 366.946 1780 364C1778.91 363.823 1777.82 363.646 1776.69 363.464C1758.6 360.437 1740.11 356.741 1723 350C1721.32 339.001 1719.66 328.001 1718 317C1717.85 316.009 1717.7 315.018 1717.55 313.997C1716.58 307.603 1715.62 301.208 1714.67 294.813C1714.35 292.687 1714.03 290.561 1713.71 288.435C1713.25 285.428 1712.8 282.421 1712.36 279.414C1712.22 278.506 1712.08 277.598 1711.94 276.663C1711.82 275.827 1711.69 274.992 1711.56 274.131C1711.45 273.403 1711.34 272.674 1711.23 271.923C1711 270 1711 270 1711 267C1716.11 267.71 1720.64 269.791 1725.38 271.75C1746.29 280.212 1767.72 285.817 1789.96 289.637C1791.93 289.988 1793.9 290.377 1795.87 290.767C1807.29 292.968 1818.46 293.528 1830.08 293.501C1833.06 293.5 1836.05 293.542 1839.03 293.586C1853.9 293.678 1870.41 292.552 1882 282C1886.87 276.619 1888.78 268.936 1889.1 261.762C1888.46 254.154 1885.01 246.944 1879.4 241.809C1863.87 230.114 1844.78 224.327 1826.69 217.906C1767.68 196.954 1767.68 196.954 1747 175C1747 174.34 1747 173.68 1747 173C1746.34 173 1745.68 173 1745 173C1724.06 150.057 1720.8 120.775 1722 91.0001C1722.45 85.8456 1723.49 80.9491 1725 76.0001C1725.28 75.0642 1725.56 74.1284 1725.84 73.1642C1729.8 61.2637 1735.55 50.2899 1744 41.0001C1744.8 40.1068 1745.6 39.2135 1746.43 38.2931C1773.4 9.72553 1816.24 -0.342281 1854.27 -0.300681Z" fill="#D9D9D9"/>
<path d="M949.296 5.8729C950.197 5.87008 951.099 5.86726 952.028 5.86435C953.02 5.86638 954.012 5.8684 955.033 5.87049C956.076 5.86873 957.118 5.86698 958.192 5.86518C961.65 5.86076 965.108 5.86369 968.566 5.86707C970.96 5.86639 973.354 5.86542 975.747 5.86417C980.769 5.86269 985.79 5.86484 990.811 5.86951C997.264 5.87521 1003.72 5.87193 1010.17 5.86594C1015.11 5.86233 1020.06 5.86347 1025 5.86606C1027.38 5.86673 1029.76 5.86591 1032.14 5.86359C1035.46 5.86106 1038.78 5.8649 1042.1 5.87049C1043.59 5.86745 1043.59 5.86745 1045.11 5.86435C1046.01 5.86717 1046.9 5.86999 1047.83 5.8729C1048.62 5.87327 1049.4 5.87365 1050.21 5.87404C1052 5.99988 1052 5.99988 1053 6.99988C1053.1 8.49595 1053.12 9.99659 1053.12 11.4958C1053.12 12.4731 1053.13 13.4505 1053.13 14.4574C1053.13 15.544 1053.12 16.6305 1053.12 17.75C1053.12 18.8943 1053.12 20.0385 1053.12 21.2174C1053.12 24.4076 1053.12 27.5978 1053.12 30.788C1053.11 34.2229 1053.11 37.6578 1053.11 41.0927C1053.11 47.0486 1053.11 53.0046 1053.11 58.9605C1053.1 67.5718 1053.09 76.1832 1053.09 84.7945C1053.09 98.7644 1053.08 112.734 1053.08 126.704C1053.07 140.278 1053.06 153.852 1053.05 167.426C1053.05 168.262 1053.05 169.098 1053.05 169.96C1053.05 174.154 1053.05 178.348 1053.05 182.542C1053.04 217.362 1053.02 252.181 1053 287C1086.99 287 1120.98 287 1156 287C1154.87 296 1154.87 296 1154.16 299.076C1153.99 299.772 1153.83 300.468 1153.67 301.186C1153.5 301.916 1153.32 302.646 1153.14 303.398C1152.96 304.191 1152.78 304.984 1152.59 305.8C1152 308.326 1151.41 310.85 1150.81 313.375C1150.43 314.997 1150.06 316.62 1149.68 318.242C1149.11 320.687 1148.54 323.131 1147.97 325.575C1146.24 332.938 1144.54 340.306 1142.84 347.674C1142.57 348.866 1142.29 350.057 1142.01 351.284C1141.34 354.19 1140.67 357.095 1140 360C1114.46 360.023 1088.92 360.041 1063.39 360.052C1051.53 360.057 1039.67 360.064 1027.82 360.075C1017.49 360.085 1007.15 360.092 996.824 360.094C991.351 360.095 985.878 360.098 980.404 360.106C975.259 360.112 970.113 360.114 964.968 360.113C963.073 360.113 961.179 360.115 959.285 360.119C956.71 360.124 954.136 360.123 951.561 360.12C950.801 360.123 950.042 360.126 949.259 360.129C944.114 360.114 944.114 360.114 943 359C942.902 357.129 942.876 355.253 942.877 353.38C942.875 352.151 942.873 350.923 942.871 349.658C942.874 348.277 942.877 346.897 942.88 345.516C942.879 344.064 942.878 342.611 942.877 341.158C942.875 337.147 942.879 333.136 942.884 329.125C942.888 324.806 942.887 320.488 942.886 316.17C942.885 308.681 942.889 301.193 942.894 293.705C942.902 282.878 942.905 272.052 942.906 261.225C942.908 243.661 942.915 226.098 942.924 208.534C942.934 191.468 942.941 174.402 942.945 157.336C942.945 156.284 942.946 155.233 942.946 154.15C942.947 148.877 942.948 143.604 942.95 138.331C942.96 94.5539 942.978 50.7769 943 6.99988C945.336 5.83193 946.694 5.87415 949.296 5.8729Z" fill="#D9D9D9"/>
<path d="M1197.21 5.87284C1198.58 5.86861 1198.58 5.86861 1199.97 5.86429C1201.47 5.86733 1201.47 5.86733 1203.01 5.87043C1204.59 5.8678 1204.59 5.8678 1206.2 5.86512C1209.7 5.86069 1213.19 5.86364 1216.69 5.86701C1219.1 5.86633 1221.52 5.86536 1223.94 5.86411C1229.01 5.86263 1234.09 5.86479 1239.16 5.86945C1245.68 5.87515 1252.2 5.87187 1258.73 5.86588C1263.72 5.86227 1268.71 5.86341 1273.71 5.866C1276.11 5.86667 1278.52 5.86584 1280.92 5.86352C1284.28 5.861 1287.63 5.86484 1290.99 5.87043C1291.99 5.8684 1293 5.86638 1294.03 5.86429C1294.94 5.86711 1295.85 5.86993 1296.79 5.87284C1297.58 5.87321 1298.37 5.87359 1299.19 5.87398C1301 5.99982 1301 5.99982 1302 6.99982C1302.1 8.87022 1302.13 10.7444 1302.13 12.6174C1302.13 13.8449 1302.13 15.0724 1302.13 16.3372C1302.13 17.717 1302.13 19.0968 1302.13 20.4766C1302.13 21.9287 1302.13 23.3808 1302.13 24.8329C1302.14 28.842 1302.13 32.8512 1302.13 36.8604C1302.13 41.1767 1302.13 45.493 1302.13 49.8094C1302.14 58.2725 1302.14 66.7357 1302.14 75.1989C1302.13 82.0739 1302.13 88.9489 1302.13 95.8238C1302.13 96.8003 1302.13 97.7768 1302.13 98.7829C1302.13 100.766 1302.13 102.75 1302.14 104.733C1302.14 123.355 1302.13 141.977 1302.13 160.598C1302.12 176.595 1302.13 192.592 1302.13 208.589C1302.14 227.141 1302.14 245.694 1302.13 264.247C1302.13 266.223 1302.13 268.199 1302.13 270.176C1302.13 271.635 1302.13 271.635 1302.13 273.123C1302.13 279.994 1302.13 286.865 1302.14 293.736C1302.14 302.103 1302.14 310.47 1302.13 318.838C1302.13 323.111 1302.13 327.384 1302.13 331.658C1302.14 335.564 1302.13 339.469 1302.13 343.375C1302.13 344.794 1302.13 346.213 1302.13 347.633C1302.13 349.549 1302.13 351.466 1302.13 353.382C1302.13 354.451 1302.13 355.519 1302.13 356.62C1302 359 1302 359 1301 360C1299.58 360.095 1298.16 360.122 1296.74 360.12C1295.36 360.122 1295.36 360.122 1293.96 360.124C1292.94 360.121 1291.93 360.117 1290.88 360.113C1289.82 360.113 1288.75 360.114 1287.66 360.114C1284.13 360.113 1280.59 360.105 1277.06 360.097C1274.62 360.096 1272.17 360.094 1269.73 360.093C1263.29 360.089 1256.85 360.08 1250.4 360.068C1243.83 360.058 1237.27 360.054 1230.7 360.049C1217.8 360.038 1204.9 360.021 1192 360C1191.98 315.047 1191.96 270.094 1191.95 225.141C1191.95 219.839 1191.95 214.538 1191.94 209.237C1191.94 208.181 1191.94 207.126 1191.94 206.039C1191.94 188.926 1191.93 171.813 1191.92 154.7C1191.91 137.154 1191.91 119.608 1191.91 102.063C1191.9 91.2267 1191.9 80.3909 1191.89 69.555C1191.89 62.1352 1191.89 54.7153 1191.89 47.2954C1191.89 43.0078 1191.89 38.7202 1191.88 34.4325C1191.88 30.5139 1191.88 26.5953 1191.88 22.6767C1191.88 21.2527 1191.88 19.8287 1191.88 18.4048C1191.87 16.4818 1191.87 14.5588 1191.88 12.6358C1191.88 11.5638 1191.88 10.4919 1191.88 9.38746C1192.09 5.35676 1193.61 5.87455 1197.21 5.87284Z" fill="#D9D9D9"/>
<path d="M762.176 5.8728C763.526 5.86857 763.526 5.86857 764.904 5.86426C765.899 5.86628 766.894 5.8683 767.92 5.87039C768.962 5.86864 770.004 5.86689 771.078 5.86508C774.542 5.86066 778.005 5.8636 781.469 5.86697C783.864 5.8663 786.259 5.86533 788.654 5.86407C793.681 5.8626 798.709 5.86475 803.736 5.86941C810.196 5.87511 816.656 5.87183 823.116 5.86584C828.064 5.86224 833.012 5.86337 837.961 5.86597C840.343 5.86664 842.726 5.86581 845.109 5.86349C848.433 5.86096 851.756 5.8648 855.08 5.87039C856.075 5.86837 857.071 5.86634 858.096 5.86426C858.996 5.86708 859.897 5.8699 860.824 5.8728C861.611 5.87318 862.398 5.87355 863.209 5.87394C865 5.99978 865 5.99978 866 6.99978C866.098 8.87635 866.124 10.7567 866.123 12.6358C866.125 13.8674 866.127 15.099 866.129 16.368C866.126 17.7524 866.123 19.1368 866.12 20.5213C866.121 21.9782 866.121 23.4351 866.123 24.892C866.125 28.9145 866.121 32.937 866.116 36.9595C866.112 41.2902 866.113 45.6208 866.114 49.9514C866.114 57.4608 866.111 64.9703 866.106 72.4797C866.098 83.3372 866.095 94.1947 866.094 105.052C866.091 122.666 866.085 140.279 866.075 157.893C866.066 175.008 866.059 192.122 866.055 209.237C866.055 210.291 866.054 211.345 866.054 212.431C866.053 217.719 866.051 223.007 866.05 228.296C866.04 272.197 866.021 316.098 866 360C830.03 360 794.06 360 757 360C756.978 315.047 756.959 270.094 756.949 225.141C756.948 219.839 756.946 214.538 756.945 209.237C756.945 208.181 756.944 207.126 756.944 206.039C756.94 188.926 756.932 171.813 756.923 154.7C756.913 137.154 756.908 119.608 756.906 102.063C756.904 91.2267 756.9 80.3908 756.892 69.555C756.887 62.1351 756.885 54.7152 756.886 47.2953C756.887 43.0077 756.886 38.7201 756.881 34.4325C756.876 30.5139 756.876 26.5953 756.879 22.6766C756.879 21.2527 756.878 19.8287 756.875 18.4047C756.871 16.4817 756.874 14.5587 756.877 12.6358C756.876 11.5638 756.876 10.4919 756.876 9.38743C757.085 5.37215 758.58 5.87452 762.176 5.8728Z" fill="#D9D9D9"/>
</g>
<defs>
<clipPath id="clip0_39_191">
<rect width="2000" height="367" fill="white"/>
</clipPath>
</defs>
</svg>
