<svg width="2000" height="349" viewBox="0 0 2000 349" fill="none" xmlns="http://www.w3.org/2000/svg">
<g clip-path="url(#clip0_39_156)">
<path d="M981 14C1003.3 13.6488 1025.59 13.3847 1047.89 13.2229C1058.25 13.1457 1068.6 13.0406 1078.96 12.8684C1087.99 12.7184 1097.01 12.622 1106.05 12.5887C1110.82 12.5692 1115.6 12.5239 1120.38 12.4141C1153.36 11.6841 1153.36 11.6841 1161.93 19.4204C1164.65 22.4384 1166.83 25.557 1169 29C1169.99 29.495 1169.99 29.495 1171 30C1171 30.66 1171 31.32 1171 32C1171.58 32.2462 1172.15 32.4925 1172.74 32.7461C1175.36 34.198 1177.06 35.9029 1179.13 38.0625C1181.78 40.9158 1181.78 40.9158 1185 43C1185 43.66 1185 44.32 1185 45C1185.81 45.3191 1185.81 45.3191 1186.64 45.6446C1189.85 47.4902 1192.21 50.0397 1194.75 52.6875C1198.76 56.7894 1202.83 60.7025 1207.21 64.4258C1209.67 66.587 1211.93 68.922 1214.23 71.2578C1216.05 73.0472 1217.94 74.7129 1219.88 76.375C1222.88 78.9664 1225.71 81.6726 1228.5 84.5C1232.5 88.5488 1236.67 92.306 1241 96C1242.4 97.2058 1243.79 98.4141 1245.19 99.625C1245.8 100.154 1246.41 100.682 1247.04 101.227C1250.29 104.166 1253.32 107.312 1256.39 110.43C1260.8 114.88 1265.25 119.156 1270 123.223C1272.26 125.233 1274.38 127.348 1276.5 129.5C1280.5 133.549 1284.67 137.306 1289 141C1290.4 142.206 1291.79 143.414 1293.19 144.625C1293.8 145.154 1294.41 145.682 1295.04 146.227C1298.29 149.166 1301.32 152.312 1304.39 155.43C1308.81 159.895 1313.28 164.192 1318.05 168.27C1320.92 170.813 1323.57 173.549 1326.24 176.301C1328.09 178.191 1328.09 178.191 1331 180C1331 180.66 1331 181.32 1331 182C1331.58 182.254 1332.17 182.508 1332.77 182.77C1335.24 184.133 1336.81 185.642 1338.75 187.688C1342.01 191.038 1345.38 194.147 1348.95 197.164C1350.74 198.766 1352.43 200.412 1354.13 202.115C1354.67 202.655 1355.21 203.195 1355.76 203.752C1356.17 204.164 1356.58 204.576 1357 205C1357.98 190.441 1358.26 175.901 1358.42 161.313C1358.44 160.117 1358.45 158.921 1358.46 157.689C1358.54 151.382 1358.6 145.075 1358.67 138.767C1358.73 132.28 1358.82 125.793 1358.91 119.307C1358.97 114.284 1359.02 109.262 1359.07 104.24C1359.1 101.848 1359.13 99.4559 1359.16 97.0639C1359.21 93.7223 1359.24 90.381 1359.26 87.0391C1359.28 86.0654 1359.3 85.0917 1359.32 84.0885C1359.34 77.4749 1359.01 69.6971 1354.65 64.3439C1347.26 57.8406 1338.36 57.8584 1329.04 57.7188C1328.1 57.7004 1327.16 57.682 1326.18 57.663C1322.16 57.5845 1318.14 57.5162 1314.12 57.4478C1311.18 57.3962 1308.23 57.339 1305.29 57.2813C1303.92 57.2609 1303.92 57.2609 1302.52 57.2401C1296.11 57.1129 1296.11 57.1129 1295 56C1294.9 52.982 1294.86 49.9872 1294.87 46.9688C1294.87 45.6094 1294.87 45.6094 1294.86 44.2226C1294.86 42.3025 1294.87 40.3825 1294.87 38.4624C1294.88 35.5127 1294.87 32.5631 1294.86 29.6133C1294.86 27.7526 1294.87 25.892 1294.87 24.0313C1294.87 23.1428 1294.86 22.2542 1294.86 21.3388C1294.89 15.115 1294.89 15.115 1296 14C1298.47 13.9023 1300.9 13.8701 1303.37 13.8798C1304.15 13.8789 1304.93 13.8781 1305.74 13.8772C1308.37 13.8755 1311.01 13.8811 1313.65 13.8865C1315.53 13.8868 1317.41 13.8866 1319.29 13.8861C1324.42 13.8858 1329.54 13.8917 1334.67 13.8986C1340.02 13.9049 1345.37 13.9055 1350.72 13.9067C1360.86 13.9098 1371 13.918 1381.14 13.928C1392.68 13.9392 1404.22 13.9447 1415.76 13.9497C1439.51 13.9602 1463.25 13.9778 1487 14C1487.02 19.9632 1487.04 25.9263 1487.06 31.8894C1487.06 33.9197 1487.07 35.95 1487.08 37.9803C1487.09 40.8918 1487.09 43.8033 1487.1 46.7149C1487.1 47.6284 1487.11 48.542 1487.11 49.4832C1487.11 51.6558 1487.06 53.8283 1487 56C1485 58.0013 1480.98 57.1848 1478.23 57.211C1476.6 57.2391 1474.97 57.2678 1473.35 57.2969C1470.78 57.3378 1468.22 57.3747 1465.66 57.4014C1449.26 57.416 1449.26 57.416 1433.94 62.6875C1428.6 69.0541 1428.56 76.2651 1428.6 84.1743C1428.59 85.2797 1428.59 86.385 1428.58 87.5238C1428.56 91.2165 1428.57 94.9089 1428.57 98.6016C1428.56 101.253 1428.55 103.904 1428.54 106.556C1428.51 112.258 1428.5 117.961 1428.5 123.664C1428.49 131.909 1428.47 140.153 1428.44 148.398C1428.4 161.776 1428.37 175.155 1428.35 188.533C1428.33 201.525 1428.3 214.518 1428.26 227.51C1428.26 228.312 1428.26 229.113 1428.26 229.939C1428.24 233.959 1428.23 237.98 1428.22 242C1428.13 275.334 1428.06 308.667 1428 342C1420.73 342.026 1413.46 342.043 1406.19 342.055C1403.73 342.06 1401.27 342.067 1398.81 342.075C1391.68 342.1 1384.56 342.091 1377.44 342.028C1375.17 342.009 1372.9 341.999 1370.63 341.997C1367.48 341.989 1364.34 341.94 1361.19 341.879C1359.8 341.885 1359.8 341.885 1358.38 341.891C1352.58 341.723 1349.41 340.482 1345.12 336.536C1343.02 334.301 1341.1 331.963 1339.23 329.534C1337.67 327.593 1335.93 326.061 1334 324.5C1329.68 320.837 1325.76 316.789 1321.78 312.764C1318.3 309.256 1314.73 305.938 1310.96 302.738C1307.63 299.783 1304.56 296.567 1301.43 293.402C1299.37 291.363 1297.27 289.445 1295.06 287.563C1291.05 284.138 1287.36 280.419 1283.68 276.643C1281.1 273.98 1281.1 273.98 1278 272C1278 271.34 1278 270.68 1278 270C1277.45 269.777 1276.9 269.554 1276.33 269.324C1273.27 267.584 1271.19 265.342 1268.75 262.813C1265.64 259.628 1262.53 256.5 1259.13 253.625C1254.77 249.913 1250.8 245.83 1246.78 241.763C1243.33 238.284 1239.79 234.996 1236.05 231.828C1232.78 228.912 1229.74 225.776 1226.68 222.642C1224.1 219.98 1224.1 219.98 1221 218C1221 217.34 1221 216.68 1221 216C1220.47 215.798 1219.94 215.595 1219.39 215.387C1215.96 213.395 1213.49 210.655 1210.75 207.813C1205.5 202.456 1205.5 202.456 1199.94 197.438C1195.87 193.987 1192.17 190.199 1188.43 186.407C1185.08 183.037 1181.64 179.87 1178.02 176.797C1174.55 173.708 1171.34 170.36 1168.1 167.039C1166.17 164.959 1166.17 164.959 1164 164C1164 163.34 1164 162.68 1164 162C1163.47 161.798 1162.94 161.595 1162.39 161.387C1158.96 159.396 1156.49 156.655 1153.75 153.813C1149.6 149.578 1145.41 145.511 1140.89 141.672C1137.86 138.99 1135.07 136.073 1132.22 133.191C1129.62 130.624 1126.89 128.25 1124.11 125.875C1121.91 123.918 1119.83 121.877 1117.75 119.785C1117.05 119.074 1116.34 118.362 1115.61 117.629C1115.08 117.092 1114.55 116.554 1114 116C1113.93 137.749 1113.88 159.498 1113.84 181.247C1113.83 191.346 1113.81 201.445 1113.77 211.544C1113.74 220.348 1113.72 229.152 1113.72 237.956C1113.71 242.616 1113.7 247.276 1113.68 251.936C1113.66 256.326 1113.66 260.716 1113.66 265.107C1113.66 266.714 1113.65 268.321 1113.64 269.928C1113.5 281.795 1113.5 281.795 1117 293C1118.95 294.212 1118.95 294.212 1121 295C1121.63 295.269 1122.25 295.539 1122.89 295.816C1123.53 296.063 1124.16 296.309 1124.81 296.563C1125.75 296.936 1125.75 296.936 1126.71 297.316C1133.1 299.221 1139.7 299.197 1146.31 299.316C1147.28 299.337 1148.24 299.358 1149.24 299.379C1152.3 299.444 1155.37 299.504 1158.44 299.563C1160.53 299.606 1162.61 299.649 1164.7 299.693C1169.8 299.801 1174.9 299.9 1180 300C1180 313.86 1180 327.72 1180 342C1114.33 342 1048.66 342 981 342C981 328.14 981 314.28 981 300C984.06 299.951 987.121 299.902 990.274 299.852C993.266 299.797 996.258 299.74 999.25 299.683C1001.32 299.645 1003.38 299.61 1005.45 299.578C1008.43 299.532 1011.41 299.474 1014.4 299.414C1015.76 299.397 1015.76 299.397 1017.16 299.379C1025.95 299.181 1035.72 298.429 1043 293C1046.87 287.674 1047.58 282.415 1047.5 275.999C1047.51 275.127 1047.51 274.255 1047.52 273.357C1047.53 270.455 1047.52 267.553 1047.5 264.65C1047.51 262.562 1047.51 260.474 1047.52 258.385C1047.53 252.726 1047.52 247.068 1047.5 241.409C1047.49 235.482 1047.5 229.556 1047.5 223.629C1047.5 213.679 1047.49 203.728 1047.47 193.778C1047.44 182.277 1047.44 170.777 1047.45 159.276C1047.46 148.207 1047.45 137.137 1047.44 126.067C1047.43 121.359 1047.43 116.651 1047.44 111.942C1047.44 106.398 1047.43 100.853 1047.41 95.3089C1047.41 93.2752 1047.41 91.2415 1047.41 89.2078C1047.42 86.4297 1047.41 83.6523 1047.39 80.8743C1047.39 80.0714 1047.4 79.2684 1047.41 78.4412C1047.34 72.3122 1046.17 67.5235 1042.06 62.75C1030.6 56.1985 1016.56 57.4831 1003.81 57.375C1000.69 57.3385 997.575 57.298 994.456 57.2524C992.526 57.2252 990.596 57.2038 988.667 57.1888C987.805 57.1786 986.942 57.1683 986.054 57.1577C984.913 57.148 984.913 57.148 983.748 57.1381C982 57 982 57 981 56C980.911 52.8975 980.885 49.8174 980.903 46.7149C980.904 45.7841 980.905 44.8532 980.907 43.8942C980.912 40.9086 980.925 37.9231 980.938 34.9375C980.943 32.9187 980.947 30.8998 980.951 28.8809C980.962 23.9206 980.98 18.9603 981 14Z" fill="#D9D9D9"/>
<path d="M188.829 1.55376C191.523 1.56294 194.217 1.556 196.911 1.53325C242.806 1.14879 285.498 9.78369 326.313 31.2144C329.723 32.9925 331.911 33.9954 335.813 34.1873C339.189 33.2812 339.189 33.2812 340.813 30.3123C342.458 24.3387 343.124 18.1335 344 11.9998C361.82 11.9998 379.64 11.9998 398 11.9998C398.04 41.4487 398.04 41.4487 398.05 55.9445C398.056 63.7995 398.063 71.6544 398.076 79.5093C398.087 86.3887 398.092 93.2681 398.095 100.147C398.097 102.779 398.1 105.41 398.106 108.041C398.113 111.712 398.114 115.383 398.114 119.054C398.117 120.154 398.121 121.254 398.125 122.387C398.123 123.381 398.122 124.375 398.12 125.4C398.122 126.704 398.122 126.704 398.123 128.034C398 130 398 130 397 131C395.465 131.093 393.926 131.117 392.389 131.113C391.408 131.113 390.427 131.113 389.416 131.113C388.349 131.108 387.283 131.103 386.184 131.097C384.554 131.095 384.554 131.095 382.892 131.093C379.407 131.088 375.922 131.075 372.438 131.062C370.082 131.057 367.725 131.053 365.369 131.049C359.58 131.038 353.79 131.021 348 131C347.409 129.372 347.409 129.372 346.806 127.711C346.275 126.265 345.743 124.82 345.211 123.375C344.953 122.662 344.695 121.949 344.43 121.215C339.239 107.181 330.113 98.3279 318.649 89.1561C316.391 87.3177 314.258 85.4168 312.125 83.4373C292.372 66.0832 264.091 56.9186 239 50.9998C238.128 50.7866 237.257 50.5734 236.359 50.3538C209.586 44.0529 177.897 44.4497 151 49.9998C150.252 50.1443 149.503 50.2889 148.732 50.4378C130.131 54.0806 108.844 60.4956 96.6876 75.9373C93.3051 82.0759 92.335 87.2569 94.0001 93.9998C97.3652 102.581 104.697 108.164 112.931 111.868C146.615 125.928 184.611 128.632 220.51 133.244C238.872 135.603 257.192 138.081 275.453 141.137C276.188 141.259 276.923 141.382 277.68 141.508C321.202 148.813 375.348 158.678 404 196C411.159 206.334 416.486 218.286 417 231C417.077 232.705 417.077 232.705 417.156 234.445C417.759 260.126 409.843 283.078 392.147 301.879C360.779 334.06 312.85 343.293 270 348C268.817 348.13 268.817 348.13 267.609 348.263C260.135 349.021 252.708 349.193 245.199 349.238C243.232 349.25 243.232 349.25 241.225 349.263C238.45 349.277 235.676 349.287 232.902 349.295C230.126 349.304 227.351 349.324 224.576 349.357C199.098 349.645 174.45 347.312 149.5 341.812C148.501 341.595 148.501 341.595 147.482 341.374C122.394 335.902 97.4484 328.571 74.5665 316.73C71.1016 314.797 71.1016 314.797 67.3126 314.625C62.8712 316.468 61.9549 318.648 60.0626 322.949C58.525 327.364 57.4974 331.83 56.5782 336.41C56.0001 339 56.0001 339 55.0001 340C53.3482 340.099 51.6921 340.128 50.0372 340.129C48.4505 340.134 48.4505 340.134 46.8318 340.139C45.6808 340.137 44.5298 340.135 43.3439 340.133C41.585 340.134 41.585 340.134 39.7905 340.136C37.3055 340.136 34.8205 340.134 32.3356 340.13C28.5167 340.125 24.6979 340.13 20.879 340.137C18.4715 340.136 16.0639 340.135 13.6564 340.133C11.9298 340.136 11.9298 340.136 10.1685 340.139C9.11065 340.136 8.05286 340.132 6.96301 340.129C5.55855 340.128 5.55855 340.128 4.12573 340.127C2.00012 340 2.00012 340 1.00012 339C0.904143 337.406 0.878236 335.807 0.879861 334.21C0.878486 333.174 0.877112 332.137 0.875695 331.07C0.879291 329.923 0.882886 328.777 0.88659 327.595C0.886444 326.395 0.886298 325.196 0.886147 323.959C0.886726 320.66 0.891755 317.361 0.898721 314.061C0.904955 310.616 0.905559 307.172 0.906747 303.727C0.90986 297.2 0.918071 290.673 0.928094 284.146C0.939256 276.717 0.944768 269.287 0.949792 261.858C0.960256 246.572 0.978601 231.286 1.00012 216C17.1701 216 33.3401 216 50.0001 216C51.9801 219.96 53.9601 223.92 56.0001 228C61.9639 239.668 68.9029 248.64 79.0001 257C79.8561 257.719 80.712 258.438 81.5939 259.18C84.3708 261.486 87.183 263.743 90.0001 266C91.3014 267.098 91.3014 267.098 92.629 268.219C110.933 283.008 134.731 290.063 157.313 295.25C158.318 295.484 159.323 295.718 160.358 295.96C179.868 300.202 199.455 301.529 219.375 301.375C220.44 301.37 221.506 301.366 222.603 301.362C251.396 301.225 283.445 300.558 308.246 284.113C310 283 310 283 312.098 282.105C314.488 280.716 314.95 279.523 316 277C316.353 276.372 316.707 275.744 317.07 275.097C320.787 267.927 321.29 260.496 319.445 252.637C316.532 245.49 309.835 241.774 303.113 238.664C287.793 232.747 271.188 229.669 255.086 226.707C253.948 226.497 252.809 226.287 251.637 226.071C236.631 223.342 221.569 220.943 206.511 218.524C201.21 217.672 195.91 216.814 190.611 215.955C188.826 215.665 187.042 215.376 185.258 215.087C184.379 214.945 183.501 214.802 182.595 214.656C178.254 213.952 173.913 213.25 169.571 212.548C168.747 212.414 167.922 212.281 167.072 212.143C163.337 211.539 159.602 210.935 155.866 210.333C51.691 193.524 51.691 193.524 23.0001 168C22.2305 167.324 21.461 166.649 20.6681 165.953C9.02055 155.079 0.805598 139.196 -0.176887 123.1C-0.70933 95.4171 -0.70933 95.4171 4.00012 82.9998C4.45064 81.6502 4.45064 81.6502 4.91027 80.2732C8.87112 69.1966 15.9464 60.3948 24.0001 51.9998C24.6988 51.238 25.3975 50.4761 26.1173 49.6912C65.404 8.17391 135.314 1.36315 188.829 1.55376Z" fill="#D9D9D9"/>
<path d="M717.179 -0.315556C720.509 -0.310929 723.839 -0.317839 727.169 -0.336063C746.656 -0.441726 765.703 -0.0986876 785 3.00012C786.453 3.23147 786.453 3.23147 787.936 3.46749C832.699 10.695 879.527 25.3323 914 56.0001C914.835 56.7271 915.671 57.4542 916.531 58.2032C919.057 60.4327 921.535 62.7038 924 65.0001C924.8 65.7349 925.601 66.4696 926.426 67.2267C949.941 89.6548 966.619 122.992 968.177 155.719C968.794 195.947 963.563 235.738 937 268C936.577 268.52 936.154 269.04 935.719 269.576C901.89 311.057 852.55 331.126 801 341C800.229 341.149 799.457 341.299 798.663 341.452C793.131 342.493 787.581 343.276 782 344C781.024 344.137 780.049 344.274 779.043 344.415C738.044 349.971 693.832 349.657 653 343C651.817 342.813 650.633 342.626 649.414 342.433C595.789 333.711 540.239 311.811 506.105 267.543C504.334 265.068 502.655 262.554 501 260C500.364 259.049 499.729 258.097 499.074 257.117C476.501 222.139 470.971 178.635 479.522 138.283C488.949 96.7014 515.541 62.1829 551.346 39.5148C555.739 36.8672 560.228 34.4393 564.801 32.1178C566.239 31.3866 567.672 30.6432 569.098 29.8863C592.828 17.2949 619.716 9.88815 646 5.00012C646.883 4.83576 647.766 4.67141 648.676 4.50207C654.101 3.52058 659.537 2.73607 665 2.00012C666.304 1.81909 667.609 1.63805 668.953 1.45153C684.963 -0.544741 701.074 -0.339849 717.179 -0.315556ZM618.894 81.8595C602.161 100.767 593.902 123.412 590 148C589.736 149.631 589.736 149.631 589.467 151.295C587.142 169.734 587.578 190.93 592 209C592.199 209.836 592.397 210.672 592.602 211.533C599.908 241.46 615.414 267.484 642 284C674.423 302.919 714.367 307.009 751 301C752.137 300.815 752.137 300.815 753.297 300.626C784.115 295.364 813.466 280.947 832.055 255.098C854.749 221.893 857.542 179.617 851 141C846.987 120.944 839.595 100.587 826 85.0001C825.3 84.1803 824.6 83.3604 823.879 82.5157C802.549 58.1172 772.611 46.0631 740.739 43.1788C696.441 40.2891 650.796 48.8531 618.894 81.8595Z" fill="#D9D9D9"/>
<path d="M1522 12C1593.61 12 1665.22 12 1739 12C1739 26.52 1739 41.04 1739 56C1725.44 56.3125 1725.44 56.3125 1721.2 56.3879C1711.37 56.3963 1711.37 56.3963 1703 61C1703.34 66.1095 1704.22 69.0118 1707.56 72.875C1708.37 73.8121 1709.18 74.7493 1710.01 75.7148C1715.58 81.8961 1721.33 87.9212 1727.06 93.9536C1729.87 96.9133 1732.66 99.8849 1735.44 102.875C1736.3 103.801 1737.17 104.726 1738.06 105.68C1740 108 1740 108 1741 111C1741.66 111 1742.32 111 1743 111C1744.3 112.293 1744.3 112.293 1745.88 114.188C1749.64 118.616 1753.55 122.877 1757.51 127.127C1760.55 130.396 1763.48 133.725 1766.38 137.125C1770.12 141.347 1773.31 143.608 1779 144.438C1785.23 143.528 1789.58 138.721 1793.81 134.375C1794.3 133.885 1794.79 133.395 1795.29 132.891C1797.98 130.195 1797.98 130.195 1800 127C1800.66 127 1801.32 127 1802 127C1802.23 126.446 1802.45 125.891 1802.68 125.32C1804.39 122.315 1806.58 120.27 1809.06 117.875C1812.46 114.759 1812.46 114.759 1815 111C1815.66 111 1816.32 111 1817 111C1817.22 110.448 1817.45 109.897 1817.68 109.328C1819.42 106.269 1821.66 104.193 1824.19 101.75C1828.1 97.9272 1831.82 94.0169 1835.37 89.8516C1837.66 87.2528 1840.12 84.8493 1842.62 82.4453C1844.11 81.0289 1844.11 81.0289 1845 79C1845.66 79 1846.32 79 1847 79C1847.27 78.4083 1847.54 77.8166 1847.81 77.207C1849 74.9938 1850.27 73.4972 1852 71.6875C1855.05 68.2126 1856.3 65.5766 1857 61C1855.28 57.7515 1855.28 57.7515 1852 57C1849.95 56.8613 1847.89 56.7749 1845.84 56.7188C1844.63 56.6814 1843.43 56.644 1842.19 56.6055C1839.64 56.5349 1837.09 56.4646 1834.54 56.3945C1833.34 56.3571 1832.14 56.3198 1830.9 56.2812C1829.79 56.251 1828.68 56.2207 1827.54 56.1895C1825 56 1825 56 1824 55C1823.91 53.6491 1823.88 52.2933 1823.89 50.9392C1823.89 50.0784 1823.89 49.2176 1823.89 48.3307C1823.89 47.3953 1823.9 46.4599 1823.9 45.4961C1823.9 44.0666 1823.9 44.0666 1823.91 42.6082C1823.91 39.5512 1823.92 36.4944 1823.94 33.4375C1823.94 31.3704 1823.95 29.3034 1823.95 27.2363C1823.96 22.1575 1823.98 17.0788 1824 12C1846.41 11.9767 1868.82 11.959 1891.23 11.9482C1901.63 11.943 1912.03 11.936 1922.44 11.9246C1931.5 11.9146 1940.57 11.9081 1949.63 11.9059C1954.44 11.9046 1959.24 11.9015 1964.04 11.8943C1968.56 11.8875 1973.07 11.8854 1977.59 11.8869C1979.25 11.8866 1980.91 11.8846 1982.57 11.8808C1984.83 11.8759 1987.09 11.877 1989.35 11.8797C1990.62 11.8788 1991.88 11.8779 1993.19 11.877C1996 12 1996 12 1997 13C1997.1 16.0908 1997.14 19.1588 1997.13 22.25C1997.13 23.6427 1997.13 23.6427 1997.14 25.0635C1997.14 27.0306 1997.13 28.9977 1997.13 30.9648C1997.13 33.987 1997.13 37.0091 1997.14 40.0312C1997.14 41.9375 1997.13 43.8438 1997.13 45.75C1997.13 46.6604 1997.14 47.5708 1997.14 48.5088C1997.11 54.8851 1997.11 54.8851 1996 56C1993.38 56.1109 1990.78 56.1617 1988.16 56.1758C1986.52 56.199 1984.89 56.2231 1983.25 56.248C1980.67 56.2829 1978.09 56.3124 1975.51 56.3259C1957.19 56.4411 1946.27 60.8711 1933 74C1930.7 76.6224 1928.52 79.3082 1926.35 82.043C1923.78 85.2765 1921.12 88.4215 1918.44 91.5625C1915.13 95.4432 1911.9 99.3625 1908.75 103.375C1905.96 106.892 1903.04 110.082 1899.81 113.19C1898.04 114.962 1896.4 116.794 1894.77 118.695C1891.04 122.988 1887.16 127.126 1883.25 131.25C1877.72 137.102 1872.23 142.989 1866.81 148.941C1864.65 151.3 1862.47 153.635 1860.29 155.965C1859.65 156.645 1859.01 157.324 1858.35 158.025C1857.1 159.356 1855.85 160.686 1854.59 162.014C1854.02 162.619 1853.46 163.224 1852.87 163.848C1852.37 164.384 1851.86 164.92 1851.34 165.473C1849.79 167.171 1849.79 167.171 1848 170C1847.34 170 1846.68 170 1846 170C1845.75 170.583 1845.49 171.165 1845.23 171.766C1843.87 174.242 1842.36 175.805 1840.31 177.75C1837.64 180.296 1835.16 182.931 1832.75 185.715C1828.86 190.192 1824.82 194.508 1820.75 198.812C1819.69 199.937 1819.69 199.937 1818.61 201.084C1813.09 206.932 1813.09 206.932 1811.42 208.184C1809.25 210.961 1809.61 213.34 1809.6 216.823C1809.59 217.513 1809.58 218.203 1809.58 218.913C1809.56 221.196 1809.56 223.479 1809.57 225.762C1809.56 227.353 1809.56 228.943 1809.55 230.534C1809.54 233.872 1809.54 237.21 1809.55 240.549C1809.57 244.811 1809.55 249.073 1809.52 253.335C1809.5 256.624 1809.5 259.912 1809.5 263.201C1809.5 264.771 1809.5 266.341 1809.49 267.912C1809.3 279.584 1809.3 279.584 1814 290C1821.27 296.459 1832.43 296.452 1841.67 296.512C1842.72 296.53 1843.77 296.548 1844.85 296.566C1848.15 296.62 1851.45 296.654 1854.75 296.688C1857.01 296.721 1859.27 296.755 1861.52 296.791C1867.02 296.878 1872.51 296.938 1878 297C1878 311.19 1878 325.38 1878 340C1847.57 340.023 1817.14 340.04 1786.71 340.051C1783.12 340.052 1779.53 340.054 1775.94 340.055C1775.23 340.055 1774.51 340.055 1773.78 340.056C1762.19 340.06 1750.61 340.068 1739.03 340.077C1727.15 340.086 1715.27 340.092 1703.39 340.094C1696.72 340.095 1690.04 340.098 1683.37 340.106C1677.09 340.112 1670.82 340.115 1664.54 340.113C1662.23 340.113 1659.92 340.115 1657.61 340.119C1654.47 340.124 1651.33 340.123 1648.19 340.12C1647.27 340.123 1646.34 340.126 1645.38 340.129C1639.11 340.114 1639.11 340.114 1638 339C1637.91 335.897 1637.88 332.817 1637.9 329.715C1637.9 328.784 1637.91 327.853 1637.91 326.894C1637.91 323.909 1637.92 320.923 1637.94 317.938C1637.94 315.919 1637.95 313.9 1637.95 311.881C1637.96 306.921 1637.98 301.96 1638 297C1638.89 296.988 1638.89 296.988 1639.8 296.975C1646.01 296.889 1652.23 296.79 1658.44 296.683C1660.76 296.644 1663.07 296.61 1665.39 296.578C1668.72 296.532 1672.06 296.474 1675.4 296.414C1676.94 296.397 1676.94 296.397 1678.51 296.379C1687.66 296.194 1696.11 295.208 1703.75 289.75C1707.05 285.132 1707.27 279.322 1707.37 273.831C1707.38 273.151 1707.4 272.472 1707.41 271.773C1707.46 269.549 1707.49 267.326 1707.51 265.102C1707.53 263.953 1707.53 263.953 1707.54 262.781C1707.59 258.732 1707.62 254.682 1707.65 250.632C1707.67 246.469 1707.75 242.31 1707.84 238.148C1707.9 234.928 1707.92 231.707 1707.93 228.486C1707.94 226.953 1707.97 225.419 1708.01 223.887C1708.35 215.081 1708.35 215.081 1705.05 207.131C1702.81 204.884 1700.5 202.953 1698 201C1696.87 199.777 1695.76 198.531 1694.69 197.25C1691.54 193.585 1688.28 190.039 1685 186.5C1681.21 182.417 1677.48 178.302 1673.84 174.09C1671.43 171.356 1668.97 168.679 1666.5 166C1662.9 162.09 1659.36 158.141 1655.88 154.125C1652.98 150.845 1650.01 147.637 1647.04 144.42C1644.51 141.665 1642.01 138.893 1639.56 136.062C1636.45 132.47 1633.23 128.985 1630 125.5C1622.99 117.926 1622.99 117.926 1619.88 114.438C1619.36 113.859 1618.84 113.28 1618.3 112.684C1616.91 110.882 1615.95 109.067 1615 107C1614.34 107 1613.68 107 1613 107C1611.59 105.602 1611.59 105.602 1609.94 103.625C1607.3 100.517 1604.62 97.4554 1601.88 94.4375C1597.99 90.1298 1594.17 85.7626 1590.38 81.375C1589.53 80.4025 1589.53 80.4025 1588.67 79.4104C1586.38 76.7741 1584.11 74.1341 1581.89 71.4375C1573.61 61.4247 1563.61 58.6204 1551 57C1548.66 56.861 1546.32 56.7565 1543.97 56.6836C1542.81 56.6455 1541.65 56.6074 1540.46 56.5681C1539.01 56.525 1537.56 56.4819 1536.06 56.4375C1531.42 56.2931 1526.78 56.1488 1522 56C1522 41.48 1522 26.96 1522 12Z" fill="#D9D9D9"/>
<path d="M1984.72 283.547C1990.95 287.516 1996.74 293.148 1999.41 300.156C2001.43 309.835 2001.63 320.479 1996.35 329.094C1995.91 329.723 1995.46 330.352 1995 331C1994.38 331.928 1993.76 332.856 1993.12 333.812C1986.39 340.746 1979.02 343.366 1969.44 344.375C1959.18 343.256 1950.21 339.327 1943.62 331.187C1938.32 323.395 1936.9 315.335 1938 306C1940.57 296.312 1945.3 289.694 1953.62 284.262C1962.92 279.331 1975.17 279.027 1984.72 283.547ZM1949.92 294.848C1944.14 301.332 1943.35 306.988 1943.61 315.652C1944.13 320.129 1945.37 323.371 1948 327C1948.59 327.828 1949.18 328.655 1949.79 329.508C1954.17 334.455 1960.43 337.312 1966.88 338.555C1975.22 338.958 1981.73 335.851 1987.94 330.437C1988.62 329.633 1989.3 328.829 1990 328C1990.56 327.361 1991.11 326.721 1991.69 326.062C1995.64 319.848 1995.71 313.152 1995 306C1993.23 298.396 1988.41 293.25 1982 289C1970.16 283.766 1959.17 285.791 1949.92 294.848Z" fill="#D9D9D9"/>
<path d="M1957 294C1960.51 293.918 1964.01 293.835 1967.62 293.75C1968.72 293.714 1969.81 293.677 1970.94 293.64C1976.95 293.571 1980.46 293.93 1985 298C1986.6 301.209 1986.48 304.519 1986 308C1983.58 312.124 1981.38 313.388 1977 315C1977.65 315.999 1978.3 316.998 1978.97 318.028C1979.81 319.331 1980.66 320.634 1981.5 321.938C1981.93 322.597 1982.36 323.256 1982.8 323.936C1986 328.887 1986 328.887 1986 330C1982.82 330.465 1982.82 330.465 1979 330C1976.79 327.838 1975.42 325.256 1973.94 322.563C1973.15 321.158 1972.35 319.763 1971.53 318.379C1971.18 317.756 1970.84 317.133 1970.49 316.491C1968.63 314.34 1968.63 314.34 1963 314C1963 319.28 1963 324.56 1963 330C1961.02 330 1959.04 330 1957 330C1957 318.12 1957 306.24 1957 294ZM1963 299C1963 302.3 1963 305.6 1963 309C1965.27 309.081 1967.54 309.139 1969.81 309.188C1971.71 309.24 1971.71 309.24 1973.64 309.293C1976.93 309.285 1976.93 309.285 1978.96 307.649C1980.24 305.964 1980.24 305.964 1979.88 303.438C1979.16 300.674 1979.16 300.674 1976 299C1972.8 298.758 1972.8 298.758 1969.31 298.875C1968.13 298.893 1966.95 298.911 1965.74 298.93C1964.38 298.965 1964.38 298.965 1963 299Z" fill="#D9D9D9"/>
</g>
<defs>
<clipPath id="clip0_39_156">
<rect width="2000" height="349" fill="white"/>
</clipPath>
</defs>
</svg>
